<?xml version="1.0"?>
<VTKFile type="UnstructuredGrid" version="0.1" byte_order="LittleEndian">
  <UnstructuredGrid>
    <Piece NumberOfPoints="961" NumberOfCells="900">
      <PointData Scalars="Temperature">
        <DataArray type="Float32" Name="Temperature" format="ascii">
          21.0001
          21.0013
          21.0025
          21.0037
          21.0047
          21.0056
          21.0065
          21.0072
          21.0078
          21.0084
          21.009
          21.0096
          21.0103
          21.0111
          21.0121
          21.0138
          21.0148
          21.0228
          21.0066
          21.1124
          20.7095
          22.7399
          22.7407
          22.7407
          22.7399
          20.7076
          21.1086
          21.0007
          21.0148
          21.0043
          21.0005
          21.0013
          21.0219
          21.0419
          21.0605
          21.0776
          21.0928
          21.1062
          21.118
          21.1285
          21.138
          21.1473
          21.157
          21.1679
          21.1811
          21.1981
          21.2211
          21.2543
          21.3023
          21.3898
          21.5079
          21.9679
          22.7425
          22.7425
          22.7425
          22.7425
          21.9375
          21.4462
          21.2951
          21.1717
          21.0839
          21.0049
          21.0027
          21.0433
          21.0825
          21.1191
          21.1524
          21.1819
          21.2077
          21.2302
          21.25
          21.268
          21.2853
          21.3033
          21.3234
          21.3476
          21.3785
          21.4198
          21.4774
          21.5622
          21.6902
          21.914
          22.2725
          22.7446
          22.7447
          22.7447
          22.7446
          22.2144
          21.7962
          21.5092
          21.3131
          21.1528
          21.0092
          21.0041
          21.0661
          21.1257
          21.1811
          21.231
          21.2748
          21.3126
          21.3451
          21.3733
          21.3987
          21.4228
          21.4475
          21.475
          21.5077
          21.549
          21.6033
          21.677
          21.7796
          21.9274
          22.1381
          22.4187
          22.7468
          22.7468
          22.7468
          22.7468
          22.3344
          21.9673
          21.6653
          21.419
          21.2079
          21.0125
          21.0056
          21.0914
          21.1735
          21.249
          21.316
          21.374
          21.4231
          21.4644
          21.4997
          21.5307
          21.5598
          21.5892
          21.6215
          21.6597
          21.7072
          21.7684
          21.8489
          21.9561
          22.0981
          22.2812
          22.503
          22.749
          22.7491
          22.7491
          22.749
          22.3951
          22.0623
          21.7619
          21.4935
          21.2483
          21.015
          21.0074
          21.1208
          21.2282
          21.3257
          21.4105
          21.4822
          21.5414
          21.59
          21.6303
          21.6649
          21.6965
          21.728
          21.7623
          21.8026
          21.8522
          21.9149
          21.995
          22.0972
          22.2252
          22.3804
          22.559
          22.7513
          22.7513
          22.7513
          22.7513
          22.4306
          22.1196
          21.8239
          21.5444
          21.2772
          21.0169
          21.0099
          21.1562
          21.2938
          21.4156
          21.5188
          21.6031
          21.6705
          21.724
          21.7667
          21.8021
          21.8335
          21.8641
          21.8974
          21.9363
          21.9842
          22.0441
          22.1191
          22.2117
          22.3235
          22.4539
          22.5995
          22.7536
          22.7536
          22.7536
          22.7536
          22.455
          22.1594
          21.8685
          21.5822
          21.2994
          21.0182
          21.0116
          21.2022
          21.376
          21.5254
          21.6466
          21.7413
          21.8137
          21.8687
          21.9105
          21.9433
          21.9711
          21.9977
          22.0267
          22.0612
          22.1043
          22.1583
          22.2253
          22.3065
          22.4022
          22.5112
          22.6307
          22.7559
          22.7559
          22.7559
          22.7559
          22.4759
          22.1939
          21.908
          21.6167
          21.3199
          21.0198
          21.0206
          21.2634
          21.4862
          21.6651
          21.8016
          21.9018
          21.9743
          22.0264
          22.0633
          22.0897
          22.1101
          22.1289
          22.1502
          22.1776
          22.2134
          22.2595
          22.317
          22.3862
          22.4669
          22.5576
          22.6558
          22.7582
          22.7582
          22.7582
          22.7582
          22.4987
          22.2326
          21.9535
          21.6574
          21.345
          21.0203
          21.0046
          21.3653
          21.6408
          21.8512
          21.9928
          22.0891
          22.1549
          22.199
          22.2267
          22.2422
          22.2505
          22.2572
          22.2675
          22.2852
          22.3121
          22.3492
          22.3967
          22.4543
          22.5212
          22.5961
          22.6768
          22.7606
          22.7606
          22.7606
          22.7605
          22.5284
          22.2848
          22.0174
          21.7176
          21.3808
          21.0276
          21.1142
          21.4988
          21.8943
          22.1023
          22.2266
          22.3051
          22.356
          22.3878
          22.4026
          22.4027
          22.3924
          22.3813
          22.3769
          22.3833
          22.4006
          22.4284
          22.4661
          22.5128
          22.5675
          22.6288
          22.6946
          22.7629
          22.7629
          22.7629
          22.7629
          22.5693
          22.3606
          22.1179
          21.8152
          21.4534
          21.0102
          20.7003
          21.9842
          22.2865
          22.4254
          22.5007
          22.5461
          22.5747
          22.5917
          22.5971
          22.574
          22.5363
          22.4949
          22.4751
          22.4706
          22.4787
          22.4978
          22.5264
          22.5633
          22.6073
          22.6567
          22.71
          22.7654
          22.7654
          22.7653
          22.7653
          22.6242
          22.4681
          22.275
          22.0051
          21.5543
          21.1161
          22.7908
          22.7935
          22.7957
          22.7979
          22.8
          22.8021
          22.8039
          22.8053
          22.8062
          22.8065
          22.6488
          22.5901
          22.5585
          22.5455
          22.5461
          22.5577
          22.5785
          22.6069
          22.6415
          22.6809
          22.7235
          22.7678
          22.7678
          22.7677
          22.7677
          22.6926
          22.6076
          22.4977
          22.3279
          21.9994
          20.7075
          22.7916
          22.7935
          22.7957
          22.7979
          22.8001
          22.8023
          22.8042
          22.8056
          22.8065
          22.8068
          22.7224
          22.6599
          22.625
          22.6074
          22.6029
          22.6087
          22.623
          22.6442
          22.6709
          22.7018
          22.7354
          22.7704
          22.7703
          22.7701
          22.7701
          22.7697
          22.768
          22.766
          22.7639
          22.7617
          22.7592
          22.7916
          22.7935
          22.7957
          22.798
          22.8002
          22.8027
          22.8049
          22.8065
          22.8074
          22.8077
          22.7526
          22.7068
          22.675
          22.6568
          22.6496
          22.6515
          22.6608
          22.6762
          22.6963
          22.7201
          22.7461
          22.7732
          22.773
          22.7725
          22.7715
          22.77
          22.7682
          22.7661
          22.7639
          22.7618
          22.7599
          22.7909
          22.7935
          22.7957
          22.798
          22.8003
          22.8028
          22.8066
          22.8083
          22.809
          22.8092
          22.7709
          22.7374
          22.7119
          22.6954
          22.6875
          22.6869
          22.6926
          22.7034
          22.7183
          22.7361
          22.7559
          22.7764
          22.7762
          22.7752
          22.7734
          22.771
          22.7685
          22.7662
          22.764
          22.7618
          22.7599
          20.716
          22.2432
          22.7266
          22.9489
          23.0002
          22.9354
          22.8105
          22.8106
          22.811
          22.8111
          22.7837
          22.759
          22.7393
          22.7256
          22.718
          22.7162
          22.7194
          22.7267
          22.7373
          22.7503
          22.7649
          22.7801
          22.7798
          22.779
          22.7766
          22.7714
          22.7686
          22.7662
          22.764
          22.7618
          22.7592
          21.1553
          22.0829
          22.8845
          23.2667
          23.3197
          23.1304
          22.8131
          22.8131
          22.8132
          22.8133
          22.7934
          22.7753
          22.7604
          22.7495
          22.7429
          22.7406
          22.742
          22.7467
          22.754
          22.7631
          22.7734
          22.7842
          22.7841
          22.7836
          22.7834
          23.0458
          23.2182
          23.2164
          22.9689
          22.3861
          20.736
          21.0577
          22.4446
          23.4355
          23.9276
          23.8909
          23.4578
          22.8156
          22.8156
          22.8156
          22.8156
          22.8014
          22.7884
          22.7774
          22.769
          22.7637
          22.7613
          22.7616
          22.7643
          22.7689
          22.7748
          22.7816
          22.7887
          22.7886
          22.7885
          22.7885
          23.4128
          23.8476
          23.917
          23.4808
          22.4596
          21.1585
          21.2138
          23.1309
          24.5961
          25.1504
          24.8774
          23.9972
          22.8181
          22.818
          22.818
          22.818
          22.8083
          22.7994
          22.7916
          22.7856
          22.7814
          22.7792
          22.7788
          22.78
          22.7825
          22.7857
          22.7895
          22.7934
          22.7934
          22.7933
          22.7933
          23.9699
          24.8557
          25.145
          24.6034
          23.1502
          21.1929
          20.9174
          24.675
          26.7075
          27.2977
          26.4712
          24.8268
          22.8205
          22.8204
          22.8204
          22.8204
          22.8146
          22.8092
          22.8043
          22.8003
          22.7973
          22.7954
          22.7946
          22.7947
          22.7953
          22.7964
          22.7974
          22.7982
          22.7981
          22.798
          22.7981
          24.8068
          26.4566
          27.2908
          26.7082
          24.6759
          20.9225
          22.8374
          27.0661
          30.9309
          30.813
          28.8352
          25.972
          22.8229
          22.8228
          22.8228
          22.8228
          22.8208
          22.8185
          22.8161
          22.8139
          22.8121
          22.8107
          22.8095
          22.8087
          22.808
          22.8071
          22.8057
          22.8032
          22.803
          22.8026
          22.8026
          25.9554
          28.8232
          30.8062
          30.9282
          27.066
          22.8363
          15.6992
          36.413
          38.3486
          36.1265
          31.7871
          27.3874
          22.8251
          22.825
          22.825
          22.8258
          22.8275
          22.8278
          22.8278
          22.8274
          22.8267
          22.8256
          22.8243
          22.8227
          22.8207
          22.8184
          22.8154
          22.81
          22.8075
          22.8067
          22.8067
          27.3728
          31.7767
          36.1205
          38.346
          36.4122
          15.6994
          52.1142
          52.1497
          52.1579
          41.1325
          35.0076
          29.0227
          22.8272
          22.8269
          22.8269
          22.8273
          22.8277
          22.828
          22.8279
          22.8275
          22.8268
          22.8258
          22.8245
          22.8229
          22.8209
          22.8186
          22.8158
          22.8131
          22.8111
          22.8102
          22.8102
          29.0096
          34.9986
          41.1276
          52.1579
          52.1497
          52.1142
          52.1374
          52.1604
          52.1692
          45.0867
          38.3773
          31.1411
          22.8291
          22.8287
          22.8284
          22.8284
          22.8285
          22.8286
          22.8285
          22.828
          22.8273
          22.8263
          22.825
          22.8234
          22.8215
          22.8193
          22.817
          22.8149
          22.8134
          22.8128
          22.813
          31.1295
          38.37
          45.083
          52.1691
          52.1604
          52.1374
          52.1669
          52.1901
          52.1981
          47.3951
          42.2563
          35.9774
          22.8314
          22.8299
          22.8295
          22.8294
          22.8294
          22.8294
          22.8293
          22.8288
          22.8281
          22.8271
          22.8258
          22.8242
          22.8223
          22.8202
          22.8181
          22.8162
          22.8148
          22.8144
          22.8156
          35.9685
          42.2508
          47.3925
          52.1981
          52.1901
          52.1669
          52.2079
          52.2358
          52.245
          49.8022
          47.027
          43.244
          40.1131
          38.0744
          37.8438
          37.8422
          37.868
          37.8942
          37.9161
          37.9322
          37.9418
          37.9446
          37.9406
          37.9299
          37.9126
          37.8896
          37.8624
          37.8357
          37.8366
          38.0669
          40.1065
          43.2391
          47.0241
          49.8008
          52.245
          52.2358
          52.2078
          52.2538
          52.2866
          52.3383
          52.4436
          52.5151
          52.583
          52.6496
          52.7161
          52.7823
          52.8473
          52.909
          52.964
          53.0092
          53.0424
          53.0626
          53.0693
          53.0626
          53.0424
          53.0092
          52.964
          52.9089
          52.8473
          52.7823
          52.7161
          52.6496
          52.583
          52.5151
          52.4436
          52.3383
          52.2866
          52.2538
          52.2959
          52.3324
          52.3838
          52.4474
          52.517
          52.5839
          52.6505
          52.717
          52.7836
          52.8497
          52.9132
          52.9701
          53.0165
          53.05
          53.0703
          53.0771
          53.0703
          53.05
          53.0165
          52.9701
          52.9132
          52.8497
          52.7836
          52.717
          52.6505
          52.5839
          52.517
          52.4473
          52.3838
          52.3323
          52.2959
          52.3363
          52.3612
          52.4031
          52.458
          52.5201
          52.5852
          52.6512
          52.7178
          52.7851
          52.8535
          52.9242
          52.9882
          53.0368
          53.0711
          53.0916
          53.0984
          53.0916
          53.0711
          53.0368
          52.9882
          52.9242
          52.8535
          52.7851
          52.7178
          52.6512
          52.5852
          52.5201
          52.458
          52.4031
          52.3612
          52.3363
          52.3574
          52.371
          52.4096
          52.4617
          52.5217
          52.5858
          52.6515
          52.7182
          52.7858
          52.8553
          52.9313
          53.0007
          53.0504
          53.0851
          53.1056
          53.1124
          53.1056
          53.085
          53.0504
          53.0007
          52.9313
          52.8553
          52.7858
          52.7182
          52.6515
          52.5858
          52.5217
          52.4617
          52.4096
          52.371
          52.3574
        </DataArray>
      </PointData>
      <CellData>
      </CellData>
      <Points>
        <DataArray type="Float32" NumberOfComponents="3" format="ascii">
          0.039 0.00195 0.0
          0.0377 0.00195 0.0
          0.0364 0.00195 0.0
          0.0351 0.00195 0.0
          0.0338 0.00195 0.0
          0.0325 0.00195 0.0
          0.0312 0.00195 0.0
          0.0299 0.00195 0.0
          0.0286 0.00195 0.0
          0.0273 0.00195 0.0
          0.026 0.00195 0.0
          0.0247 0.00195 0.0
          0.0234 0.00195 0.0
          0.0221 0.00195 0.0
          0.0208 0.00195 0.0
          0.0195 0.00195 0.0
          0.0182 0.00195 0.0
          0.0169 0.00195 0.0
          0.0156 0.00195 0.0
          0.0143 0.00195 0.0
          0.013 0.00195 0.0
          0.0117 0.00195 0.0
          0.0104 0.00195 0.0
          0.0091 0.00195 0.0
          0.0078 0.00195 0.0
          0.0065 0.00195 0.0
          0.0052 0.00195 0.0
          0.0039 0.00195 0.0
          0.0026 0.00195 0.0
          0.0013 0.00195 0.0
          0 0.00195 0.0
          0.039 0.00065 0.0
          0.0377 0.00065 0.0
          0.0364 0.00065 0.0
          0.0351 0.00065 0.0
          0.0338 0.00065 0.0
          0.0325 0.00065 0.0
          0.0312 0.00065 0.0
          0.0299 0.00065 0.0
          0.0286 0.00065 0.0
          0.0273 0.00065 0.0
          0.026 0.00065 0.0
          0.0247 0.00065 0.0
          0.0234 0.00065 0.0
          0.0221 0.00065 0.0
          0.0208 0.00065 0.0
          0.0195 0.00065 0.0
          0.0182 0.00065 0.0
          0.0169 0.00065 0.0
          0.0156 0.00065 0.0
          0.0143 0.00065 0.0
          0.013 0.00065 0.0
          0.0117 0.00065 0.0
          0.0104 0.00065 0.0
          0.0091 0.00065 0.0
          0.0078 0.00065 0.0
          0.0065 0.00065 0.0
          0.0052 0.00065 0.0
          0.0039 0.00065 0.0
          0.0026 0.00065 0.0
          0.0013 0.00065 0.0
          0 0.00065 0.0
          0.039 -0.00065 0.0
          0.0377 -0.00065 0.0
          0.0364 -0.00065 0.0
          0.0351 -0.00065 0.0
          0.0338 -0.00065 0.0
          0.0325 -0.00065 0.0
          0.0312 -0.00065 0.0
          0.0299 -0.00065 0.0
          0.0286 -0.00065 0.0
          0.0273 -0.00065 0.0
          0.026 -0.00065 0.0
          0.0247 -0.00065 0.0
          0.0234 -0.00065 0.0
          0.0221 -0.00065 0.0
          0.0208 -0.00065 0.0
          0.0195 -0.00065 0.0
          0.0182 -0.00065 0.0
          0.0169 -0.00065 0.0
          0.0156 -0.00065 0.0
          0.0143 -0.00065 0.0
          0.013 -0.00065 0.0
          0.0117 -0.00065 0.0
          0.0104 -0.00065 0.0
          0.0091 -0.00065 0.0
          0.0078 -0.00065 0.0
          0.0065 -0.00065 0.0
          0.0052 -0.00065 0.0
          0.0039 -0.00065 0.0
          0.0026 -0.00065 0.0
          0.0013 -0.00065 0.0
          0 -0.00065 0.0
          0.039 -0.00195 0.0
          0.0377 -0.00195 0.0
          0.0364 -0.00195 0.0
          0.0351 -0.00195 0.0
          0.0338 -0.00195 0.0
          0.0325 -0.00195 0.0
          0.0312 -0.00195 0.0
          0.0299 -0.00195 0.0
          0.0286 -0.00195 0.0
          0.0273 -0.00195 0.0
          0.026 -0.00195 0.0
          0.0247 -0.00195 0.0
          0.0234 -0.00195 0.0
          0.0221 -0.00195 0.0
          0.0208 -0.00195 0.0
          0.0195 -0.00195 0.0
          0.0182 -0.00195 0.0
          0.0169 -0.00195 0.0
          0.0156 -0.00195 0.0
          0.0143 -0.00195 0.0
          0.013 -0.00195 0.0
          0.0117 -0.00195 0.0
          0.0104 -0.00195 0.0
          0.0091 -0.00195 0.0
          0.0078 -0.00195 0.0
          0.0065 -0.00195 0.0
          0.0052 -0.00195 0.0
          0.0039 -0.00195 0.0
          0.0026 -0.00195 0.0
          0.0013 -0.00195 0.0
          0 -0.00195 0.0
          0.039 -0.00325 0.0
          0.0377 -0.00325 0.0
          0.0364 -0.00325 0.0
          0.0351 -0.00325 0.0
          0.0338 -0.00325 0.0
          0.0325 -0.00325 0.0
          0.0312 -0.00325 0.0
          0.0299 -0.00325 0.0
          0.0286 -0.00325 0.0
          0.0273 -0.00325 0.0
          0.026 -0.00325 0.0
          0.0247 -0.00325 0.0
          0.0234 -0.00325 0.0
          0.0221 -0.00325 0.0
          0.0208 -0.00325 0.0
          0.0195 -0.00325 0.0
          0.0182 -0.00325 0.0
          0.0169 -0.00325 0.0
          0.0156 -0.00325 0.0
          0.0143 -0.00325 0.0
          0.013 -0.00325 0.0
          0.0117 -0.00325 0.0
          0.0104 -0.00325 0.0
          0.0091 -0.00325 0.0
          0.0078 -0.00325 0.0
          0.0065 -0.00325 0.0
          0.0052 -0.00325 0.0
          0.0039 -0.00325 0.0
          0.0026 -0.00325 0.0
          0.0013 -0.00325 0.0
          0 -0.00325 0.0
          0.039 -0.00455 0.0
          0.0377 -0.00455 0.0
          0.0364 -0.00455 0.0
          0.0351 -0.00455 0.0
          0.0338 -0.00455 0.0
          0.0325 -0.00455 0.0
          0.0312 -0.00455 0.0
          0.0299 -0.00455 0.0
          0.0286 -0.00455 0.0
          0.0273 -0.00455 0.0
          0.026 -0.00455 0.0
          0.0247 -0.00455 0.0
          0.0234 -0.00455 0.0
          0.0221 -0.00455 0.0
          0.0208 -0.00455 0.0
          0.0195 -0.00455 0.0
          0.0182 -0.00455 0.0
          0.0169 -0.00455 0.0
          0.0156 -0.00455 0.0
          0.0143 -0.00455 0.0
          0.013 -0.00455 0.0
          0.0117 -0.00455 0.0
          0.0104 -0.00455 0.0
          0.0091 -0.00455 0.0
          0.0078 -0.00455 0.0
          0.0065 -0.00455 0.0
          0.0052 -0.00455 0.0
          0.0039 -0.00455 0.0
          0.0026 -0.00455 0.0
          0.0013 -0.00455 0.0
          0 -0.00455 0.0
          0.039 -0.00585 0.0
          0.0377 -0.00585 0.0
          0.0364 -0.00585 0.0
          0.0351 -0.00585 0.0
          0.0338 -0.00585 0.0
          0.0325 -0.00585 0.0
          0.0312 -0.00585 0.0
          0.0299 -0.00585 0.0
          0.0286 -0.00585 0.0
          0.0273 -0.00585 0.0
          0.026 -0.00585 0.0
          0.0247 -0.00585 0.0
          0.0234 -0.00585 0.0
          0.0221 -0.00585 0.0
          0.0208 -0.00585 0.0
          0.0195 -0.00585 0.0
          0.0182 -0.00585 0.0
          0.0169 -0.00585 0.0
          0.0156 -0.00585 0.0
          0.0143 -0.00585 0.0
          0.013 -0.00585 0.0
          0.0117 -0.00585 0.0
          0.0104 -0.00585 0.0
          0.0091 -0.00585 0.0
          0.0078 -0.00585 0.0
          0.0065 -0.00585 0.0
          0.0052 -0.00585 0.0
          0.0039 -0.00585 0.0
          0.0026 -0.00585 0.0
          0.0013 -0.00585 0.0
          0 -0.00585 0.0
          0.039 -0.00715 0.0
          0.0377 -0.00715 0.0
          0.0364 -0.00715 0.0
          0.0351 -0.00715 0.0
          0.0338 -0.00715 0.0
          0.0325 -0.00715 0.0
          0.0312 -0.00715 0.0
          0.0299 -0.00715 0.0
          0.0286 -0.00715 0.0
          0.0273 -0.00715 0.0
          0.026 -0.00715 0.0
          0.0247 -0.00715 0.0
          0.0234 -0.00715 0.0
          0.0221 -0.00715 0.0
          0.0208 -0.00715 0.0
          0.0195 -0.00715 0.0
          0.0182 -0.00715 0.0
          0.0169 -0.00715 0.0
          0.0156 -0.00715 0.0
          0.0143 -0.00715 0.0
          0.013 -0.00715 0.0
          0.0117 -0.00715 0.0
          0.0104 -0.00715 0.0
          0.0091 -0.00715 0.0
          0.0078 -0.00715 0.0
          0.0065 -0.00715 0.0
          0.0052 -0.00715 0.0
          0.0039 -0.00715 0.0
          0.0026 -0.00715 0.0
          0.0013 -0.00715 0.0
          0 -0.00715 0.0
          0.039 -0.00845 0.0
          0.0377 -0.00845 0.0
          0.0364 -0.00845 0.0
          0.0351 -0.00845 0.0
          0.0338 -0.00845 0.0
          0.0325 -0.00845 0.0
          0.0312 -0.00845 0.0
          0.0299 -0.00845 0.0
          0.0286 -0.00845 0.0
          0.0273 -0.00845 0.0
          0.026 -0.00845 0.0
          0.0247 -0.00845 0.0
          0.0234 -0.00845 0.0
          0.0221 -0.00845 0.0
          0.0208 -0.00845 0.0
          0.0195 -0.00845 0.0
          0.0182 -0.00845 0.0
          0.0169 -0.00845 0.0
          0.0156 -0.00845 0.0
          0.0143 -0.00845 0.0
          0.013 -0.00845 0.0
          0.0117 -0.00845 0.0
          0.0104 -0.00845 0.0
          0.0091 -0.00845 0.0
          0.0078 -0.00845 0.0
          0.0065 -0.00845 0.0
          0.0052 -0.00845 0.0
          0.0039 -0.00845 0.0
          0.0026 -0.00845 0.0
          0.0013 -0.00845 0.0
          0 -0.00845 0.0
          0.039 -0.00975 0.0
          0.0377 -0.00975 0.0
          0.0364 -0.00975 0.0
          0.0351 -0.00975 0.0
          0.0338 -0.00975 0.0
          0.0325 -0.00975 0.0
          0.0312 -0.00975 0.0
          0.0299 -0.00975 0.0
          0.0286 -0.00975 0.0
          0.0273 -0.00975 0.0
          0.026 -0.00975 0.0
          0.0247 -0.00975 0.0
          0.0234 -0.00975 0.0
          0.0221 -0.00975 0.0
          0.0208 -0.00975 0.0
          0.0195 -0.00975 0.0
          0.0182 -0.00975 0.0
          0.0169 -0.00975 0.0
          0.0156 -0.00975 0.0
          0.0143 -0.00975 0.0
          0.013 -0.00975 0.0
          0.0117 -0.00975 0.0
          0.0104 -0.00975 0.0
          0.0091 -0.00975 0.0
          0.0078 -0.00975 0.0
          0.0065 -0.00975 0.0
          0.0052 -0.00975 0.0
          0.0039 -0.00975 0.0
          0.0026 -0.00975 0.0
          0.0013 -0.00975 0.0
          0 -0.00975 0.0
          0.039 -0.01105 0.0
          0.0377 -0.01105 0.0
          0.0364 -0.01105 0.0
          0.0351 -0.01105 0.0
          0.0338 -0.01105 0.0
          0.0325 -0.01105 0.0
          0.0312 -0.01105 0.0
          0.0299 -0.01105 0.0
          0.0286 -0.01105 0.0
          0.0273 -0.01105 0.0
          0.026 -0.01105 0.0
          0.0247 -0.01105 0.0
          0.0234 -0.01105 0.0
          0.0221 -0.01105 0.0
          0.0208 -0.01105 0.0
          0.0195 -0.01105 0.0
          0.0182 -0.01105 0.0
          0.0169 -0.01105 0.0
          0.0156 -0.01105 0.0
          0.0143 -0.01105 0.0
          0.013 -0.01105 0.0
          0.0117 -0.01105 0.0
          0.0104 -0.01105 0.0
          0.0091 -0.01105 0.0
          0.0078 -0.01105 0.0
          0.0065 -0.01105 0.0
          0.0052 -0.01105 0.0
          0.0039 -0.01105 0.0
          0.0026 -0.01105 0.0
          0.0013 -0.01105 0.0
          0 -0.01105 0.0
          0.039 -0.01235 0.0
          0.0377 -0.01235 0.0
          0.0364 -0.01235 0.0
          0.0351 -0.01235 0.0
          0.0338 -0.01235 0.0
          0.0325 -0.01235 0.0
          0.0312 -0.01235 0.0
          0.0299 -0.01235 0.0
          0.0286 -0.01235 0.0
          0.0273 -0.01235 0.0
          0.026 -0.01235 0.0
          0.0247 -0.01235 0.0
          0.0234 -0.01235 0.0
          0.0221 -0.01235 0.0
          0.0208 -0.01235 0.0
          0.0195 -0.01235 0.0
          0.0182 -0.01235 0.0
          0.0169 -0.01235 0.0
          0.0156 -0.01235 0.0
          0.0143 -0.01235 0.0
          0.013 -0.01235 0.0
          0.0117 -0.01235 0.0
          0.0104 -0.01235 0.0
          0.0091 -0.01235 0.0
          0.0078 -0.01235 0.0
          0.0065 -0.01235 0.0
          0.0052 -0.01235 0.0
          0.0039 -0.01235 0.0
          0.0026 -0.01235 0.0
          0.0013 -0.01235 0.0
          0 -0.01235 0.0
          0.039 -0.01365 0.0
          0.0377 -0.01365 0.0
          0.0364 -0.01365 0.0
          0.0351 -0.01365 0.0
          0.0338 -0.01365 0.0
          0.0325 -0.01365 0.0
          0.0312 -0.01365 0.0
          0.0299 -0.01365 0.0
          0.0286 -0.01365 0.0
          0.0273 -0.01365 0.0
          0.026 -0.01365 0.0
          0.0247 -0.01365 0.0
          0.0234 -0.01365 0.0
          0.0221 -0.01365 0.0
          0.0208 -0.01365 0.0
          0.0195 -0.01365 0.0
          0.0182 -0.01365 0.0
          0.0169 -0.01365 0.0
          0.0156 -0.01365 0.0
          0.0143 -0.01365 0.0
          0.013 -0.01365 0.0
          0.0117 -0.01365 0.0
          0.0104 -0.01365 0.0
          0.0091 -0.01365 0.0
          0.0078 -0.01365 0.0
          0.0065 -0.01365 0.0
          0.0052 -0.01365 0.0
          0.0039 -0.01365 0.0
          0.0026 -0.01365 0.0
          0.0013 -0.01365 0.0
          0 -0.01365 0.0
          0.039 -0.01495 0.0
          0.0377 -0.01495 0.0
          0.0364 -0.01495 0.0
          0.0351 -0.01495 0.0
          0.0338 -0.01495 0.0
          0.0325 -0.01495 0.0
          0.0312 -0.01495 0.0
          0.0299 -0.01495 0.0
          0.0286 -0.01495 0.0
          0.0273 -0.01495 0.0
          0.026 -0.01495 0.0
          0.0247 -0.01495 0.0
          0.0234 -0.01495 0.0
          0.0221 -0.01495 0.0
          0.0208 -0.01495 0.0
          0.0195 -0.01495 0.0
          0.0182 -0.01495 0.0
          0.0169 -0.01495 0.0
          0.0156 -0.01495 0.0
          0.0143 -0.01495 0.0
          0.013 -0.01495 0.0
          0.0117 -0.01495 0.0
          0.0104 -0.01495 0.0
          0.0091 -0.01495 0.0
          0.0078 -0.01495 0.0
          0.0065 -0.01495 0.0
          0.0052 -0.01495 0.0
          0.0039 -0.01495 0.0
          0.0026 -0.01495 0.0
          0.0013 -0.01495 0.0
          0 -0.01495 0.0
          0.039 -0.01625 0.0
          0.0377 -0.01625 0.0
          0.0364 -0.01625 0.0
          0.0351 -0.01625 0.0
          0.0338 -0.01625 0.0
          0.0325 -0.01625 0.0
          0.0312 -0.01625 0.0
          0.0299 -0.01625 0.0
          0.0286 -0.01625 0.0
          0.0273 -0.01625 0.0
          0.026 -0.01625 0.0
          0.0247 -0.01625 0.0
          0.0234 -0.01625 0.0
          0.0221 -0.01625 0.0
          0.0208 -0.01625 0.0
          0.0195 -0.01625 0.0
          0.0182 -0.01625 0.0
          0.0169 -0.01625 0.0
          0.0156 -0.01625 0.0
          0.0143 -0.01625 0.0
          0.013 -0.01625 0.0
          0.0117 -0.01625 0.0
          0.0104 -0.01625 0.0
          0.0091 -0.01625 0.0
          0.0078 -0.01625 0.0
          0.0065 -0.01625 0.0
          0.0052 -0.01625 0.0
          0.0039 -0.01625 0.0
          0.0026 -0.01625 0.0
          0.0013 -0.01625 0.0
          0 -0.01625 0.0
          0.039 -0.01755 0.0
          0.0377 -0.01755 0.0
          0.0364 -0.01755 0.0
          0.0351 -0.01755 0.0
          0.0338 -0.01755 0.0
          0.0325 -0.01755 0.0
          0.0312 -0.01755 0.0
          0.0299 -0.01755 0.0
          0.0286 -0.01755 0.0
          0.0273 -0.01755 0.0
          0.026 -0.01755 0.0
          0.0247 -0.01755 0.0
          0.0234 -0.01755 0.0
          0.0221 -0.01755 0.0
          0.0208 -0.01755 0.0
          0.0195 -0.01755 0.0
          0.0182 -0.01755 0.0
          0.0169 -0.01755 0.0
          0.0156 -0.01755 0.0
          0.0143 -0.01755 0.0
          0.013 -0.01755 0.0
          0.0117 -0.01755 0.0
          0.0104 -0.01755 0.0
          0.0091 -0.01755 0.0
          0.0078 -0.01755 0.0
          0.0065 -0.01755 0.0
          0.0052 -0.01755 0.0
          0.0039 -0.01755 0.0
          0.0026 -0.01755 0.0
          0.0013 -0.01755 0.0
          0 -0.01755 0.0
          0.039 -0.01885 0.0
          0.0377 -0.01885 0.0
          0.0364 -0.01885 0.0
          0.0351 -0.01885 0.0
          0.0338 -0.01885 0.0
          0.0325 -0.01885 0.0
          0.0312 -0.01885 0.0
          0.0299 -0.01885 0.0
          0.0286 -0.01885 0.0
          0.0273 -0.01885 0.0
          0.026 -0.01885 0.0
          0.0247 -0.01885 0.0
          0.0234 -0.01885 0.0
          0.0221 -0.01885 0.0
          0.0208 -0.01885 0.0
          0.0195 -0.01885 0.0
          0.0182 -0.01885 0.0
          0.0169 -0.01885 0.0
          0.0156 -0.01885 0.0
          0.0143 -0.01885 0.0
          0.013 -0.01885 0.0
          0.0117 -0.01885 0.0
          0.0104 -0.01885 0.0
          0.0091 -0.01885 0.0
          0.0078 -0.01885 0.0
          0.0065 -0.01885 0.0
          0.0052 -0.01885 0.0
          0.0039 -0.01885 0.0
          0.0026 -0.01885 0.0
          0.0013 -0.01885 0.0
          0 -0.01885 0.0
          0.039 -0.02015 0.0
          0.0377 -0.02015 0.0
          0.0364 -0.02015 0.0
          0.0351 -0.02015 0.0
          0.0338 -0.02015 0.0
          0.0325 -0.02015 0.0
          0.0312 -0.02015 0.0
          0.0299 -0.02015 0.0
          0.0286 -0.02015 0.0
          0.0273 -0.02015 0.0
          0.026 -0.02015 0.0
          0.0247 -0.02015 0.0
          0.0234 -0.02015 0.0
          0.0221 -0.02015 0.0
          0.0208 -0.02015 0.0
          0.0195 -0.02015 0.0
          0.0182 -0.02015 0.0
          0.0169 -0.02015 0.0
          0.0156 -0.02015 0.0
          0.0143 -0.02015 0.0
          0.013 -0.02015 0.0
          0.0117 -0.02015 0.0
          0.0104 -0.02015 0.0
          0.0091 -0.02015 0.0
          0.0078 -0.02015 0.0
          0.0065 -0.02015 0.0
          0.0052 -0.02015 0.0
          0.0039 -0.02015 0.0
          0.0026 -0.02015 0.0
          0.0013 -0.02015 0.0
          0 -0.02015 0.0
          0.039 -0.02145 0.0
          0.0377 -0.02145 0.0
          0.0364 -0.02145 0.0
          0.0351 -0.02145 0.0
          0.0338 -0.02145 0.0
          0.0325 -0.02145 0.0
          0.0312 -0.02145 0.0
          0.0299 -0.02145 0.0
          0.0286 -0.02145 0.0
          0.0273 -0.02145 0.0
          0.026 -0.02145 0.0
          0.0247 -0.02145 0.0
          0.0234 -0.02145 0.0
          0.0221 -0.02145 0.0
          0.0208 -0.02145 0.0
          0.0195 -0.02145 0.0
          0.0182 -0.02145 0.0
          0.0169 -0.02145 0.0
          0.0156 -0.02145 0.0
          0.0143 -0.02145 0.0
          0.013 -0.02145 0.0
          0.0117 -0.02145 0.0
          0.0104 -0.02145 0.0
          0.0091 -0.02145 0.0
          0.0078 -0.02145 0.0
          0.0065 -0.02145 0.0
          0.0052 -0.02145 0.0
          0.0039 -0.02145 0.0
          0.0026 -0.02145 0.0
          0.0013 -0.02145 0.0
          0 -0.02145 0.0
          0.039 -0.02275 0.0
          0.0377 -0.02275 0.0
          0.0364 -0.02275 0.0
          0.0351 -0.02275 0.0
          0.0338 -0.02275 0.0
          0.0325 -0.02275 0.0
          0.0312 -0.02275 0.0
          0.0299 -0.02275 0.0
          0.0286 -0.02275 0.0
          0.0273 -0.02275 0.0
          0.026 -0.02275 0.0
          0.0247 -0.02275 0.0
          0.0234 -0.02275 0.0
          0.0221 -0.02275 0.0
          0.0208 -0.02275 0.0
          0.0195 -0.02275 0.0
          0.0182 -0.02275 0.0
          0.0169 -0.02275 0.0
          0.0156 -0.02275 0.0
          0.0143 -0.02275 0.0
          0.013 -0.02275 0.0
          0.0117 -0.02275 0.0
          0.0104 -0.02275 0.0
          0.0091 -0.02275 0.0
          0.0078 -0.02275 0.0
          0.0065 -0.02275 0.0
          0.0052 -0.02275 0.0
          0.0039 -0.02275 0.0
          0.0026 -0.02275 0.0
          0.0013 -0.02275 0.0
          0 -0.02275 0.0
          0.039 -0.02405 0.0
          0.0377 -0.02405 0.0
          0.0364 -0.02405 0.0
          0.0351 -0.02405 0.0
          0.0338 -0.02405 0.0
          0.0325 -0.02405 0.0
          0.0312 -0.02405 0.0
          0.0299 -0.02405 0.0
          0.0286 -0.02405 0.0
          0.0273 -0.02405 0.0
          0.026 -0.02405 0.0
          0.0247 -0.02405 0.0
          0.0234 -0.02405 0.0
          0.0221 -0.02405 0.0
          0.0208 -0.02405 0.0
          0.0195 -0.02405 0.0
          0.0182 -0.02405 0.0
          0.0169 -0.02405 0.0
          0.0156 -0.02405 0.0
          0.0143 -0.02405 0.0
          0.013 -0.02405 0.0
          0.0117 -0.02405 0.0
          0.0104 -0.02405 0.0
          0.0091 -0.02405 0.0
          0.0078 -0.02405 0.0
          0.0065 -0.02405 0.0
          0.0052 -0.02405 0.0
          0.0039 -0.02405 0.0
          0.0026 -0.02405 0.0
          0.0013 -0.02405 0.0
          0 -0.02405 0.0
          0.039 -0.02535 0.0
          0.0377 -0.02535 0.0
          0.0364 -0.02535 0.0
          0.0351 -0.02535 0.0
          0.0338 -0.02535 0.0
          0.0325 -0.02535 0.0
          0.0312 -0.02535 0.0
          0.0299 -0.02535 0.0
          0.0286 -0.02535 0.0
          0.0273 -0.02535 0.0
          0.026 -0.02535 0.0
          0.0247 -0.02535 0.0
          0.0234 -0.02535 0.0
          0.0221 -0.02535 0.0
          0.0208 -0.02535 0.0
          0.0195 -0.02535 0.0
          0.0182 -0.02535 0.0
          0.0169 -0.02535 0.0
          0.0156 -0.02535 0.0
          0.0143 -0.02535 0.0
          0.013 -0.02535 0.0
          0.0117 -0.02535 0.0
          0.0104 -0.02535 0.0
          0.0091 -0.02535 0.0
          0.0078 -0.02535 0.0
          0.0065 -0.02535 0.0
          0.0052 -0.02535 0.0
          0.0039 -0.02535 0.0
          0.0026 -0.02535 0.0
          0.0013 -0.02535 0.0
          0 -0.02535 0.0
          0.039 -0.02665 0.0
          0.0377 -0.02665 0.0
          0.0364 -0.02665 0.0
          0.0351 -0.02665 0.0
          0.0338 -0.02665 0.0
          0.0325 -0.02665 0.0
          0.0312 -0.02665 0.0
          0.0299 -0.02665 0.0
          0.0286 -0.02665 0.0
          0.0273 -0.02665 0.0
          0.026 -0.02665 0.0
          0.0247 -0.02665 0.0
          0.0234 -0.02665 0.0
          0.0221 -0.02665 0.0
          0.0208 -0.02665 0.0
          0.0195 -0.02665 0.0
          0.0182 -0.02665 0.0
          0.0169 -0.02665 0.0
          0.0156 -0.02665 0.0
          0.0143 -0.02665 0.0
          0.013 -0.02665 0.0
          0.0117 -0.02665 0.0
          0.0104 -0.02665 0.0
          0.0091 -0.02665 0.0
          0.0078 -0.02665 0.0
          0.0065 -0.02665 0.0
          0.0052 -0.02665 0.0
          0.0039 -0.02665 0.0
          0.0026 -0.02665 0.0
          0.0013 -0.02665 0.0
          0 -0.02665 0.0
          0.039 -0.02795 0.0
          0.0377 -0.02795 0.0
          0.0364 -0.02795 0.0
          0.0351 -0.02795 0.0
          0.0338 -0.02795 0.0
          0.0325 -0.02795 0.0
          0.0312 -0.02795 0.0
          0.0299 -0.02795 0.0
          0.0286 -0.02795 0.0
          0.0273 -0.02795 0.0
          0.026 -0.02795 0.0
          0.0247 -0.02795 0.0
          0.0234 -0.02795 0.0
          0.0221 -0.02795 0.0
          0.0208 -0.02795 0.0
          0.0195 -0.02795 0.0
          0.0182 -0.02795 0.0
          0.0169 -0.02795 0.0
          0.0156 -0.02795 0.0
          0.0143 -0.02795 0.0
          0.013 -0.02795 0.0
          0.0117 -0.02795 0.0
          0.0104 -0.02795 0.0
          0.0091 -0.02795 0.0
          0.0078 -0.02795 0.0
          0.0065 -0.02795 0.0
          0.0052 -0.02795 0.0
          0.0039 -0.02795 0.0
          0.0026 -0.02795 0.0
          0.0013 -0.02795 0.0
          0 -0.02795 0.0
          0.039 -0.02925 0.0
          0.0377 -0.02925 0.0
          0.0364 -0.02925 0.0
          0.0351 -0.02925 0.0
          0.0338 -0.02925 0.0
          0.0325 -0.02925 0.0
          0.0312 -0.02925 0.0
          0.0299 -0.02925 0.0
          0.0286 -0.02925 0.0
          0.0273 -0.02925 0.0
          0.026 -0.02925 0.0
          0.0247 -0.02925 0.0
          0.0234 -0.02925 0.0
          0.0221 -0.02925 0.0
          0.0208 -0.02925 0.0
          0.0195 -0.02925 0.0
          0.0182 -0.02925 0.0
          0.0169 -0.02925 0.0
          0.0156 -0.02925 0.0
          0.0143 -0.02925 0.0
          0.013 -0.02925 0.0
          0.0117 -0.02925 0.0
          0.0104 -0.02925 0.0
          0.0091 -0.02925 0.0
          0.0078 -0.02925 0.0
          0.0065 -0.02925 0.0
          0.0052 -0.02925 0.0
          0.0039 -0.02925 0.0
          0.0026 -0.02925 0.0
          0.0013 -0.02925 0.0
          0 -0.02925 0.0
          0.039 -0.03055 0.0
          0.0377 -0.03055 0.0
          0.0364 -0.03055 0.0
          0.0351 -0.03055 0.0
          0.0338 -0.03055 0.0
          0.0325 -0.03055 0.0
          0.0312 -0.03055 0.0
          0.0299 -0.03055 0.0
          0.0286 -0.03055 0.0
          0.0273 -0.03055 0.0
          0.026 -0.03055 0.0
          0.0247 -0.03055 0.0
          0.0234 -0.03055 0.0
          0.0221 -0.03055 0.0
          0.0208 -0.03055 0.0
          0.0195 -0.03055 0.0
          0.0182 -0.03055 0.0
          0.0169 -0.03055 0.0
          0.0156 -0.03055 0.0
          0.0143 -0.03055 0.0
          0.013 -0.03055 0.0
          0.0117 -0.03055 0.0
          0.0104 -0.03055 0.0
          0.0091 -0.03055 0.0
          0.0078 -0.03055 0.0
          0.0065 -0.03055 0.0
          0.0052 -0.03055 0.0
          0.0039 -0.03055 0.0
          0.0026 -0.03055 0.0
          0.0013 -0.03055 0.0
          0 -0.03055 0.0
          0.039 -0.03185 0.0
          0.0377 -0.03185 0.0
          0.0364 -0.03185 0.0
          0.0351 -0.03185 0.0
          0.0338 -0.03185 0.0
          0.0325 -0.03185 0.0
          0.0312 -0.03185 0.0
          0.0299 -0.03185 0.0
          0.0286 -0.03185 0.0
          0.0273 -0.03185 0.0
          0.026 -0.03185 0.0
          0.0247 -0.03185 0.0
          0.0234 -0.03185 0.0
          0.0221 -0.03185 0.0
          0.0208 -0.03185 0.0
          0.0195 -0.03185 0.0
          0.0182 -0.03185 0.0
          0.0169 -0.03185 0.0
          0.0156 -0.03185 0.0
          0.0143 -0.03185 0.0
          0.013 -0.03185 0.0
          0.0117 -0.03185 0.0
          0.0104 -0.03185 0.0
          0.0091 -0.03185 0.0
          0.0078 -0.03185 0.0
          0.0065 -0.03185 0.0
          0.0052 -0.03185 0.0
          0.0039 -0.03185 0.0
          0.0026 -0.03185 0.0
          0.0013 -0.03185 0.0
          0 -0.03185 0.0
          0.039 -0.03315 0.0
          0.0377 -0.03315 0.0
          0.0364 -0.03315 0.0
          0.0351 -0.03315 0.0
          0.0338 -0.03315 0.0
          0.0325 -0.03315 0.0
          0.0312 -0.03315 0.0
          0.0299 -0.03315 0.0
          0.0286 -0.03315 0.0
          0.0273 -0.03315 0.0
          0.026 -0.03315 0.0
          0.0247 -0.03315 0.0
          0.0234 -0.03315 0.0
          0.0221 -0.03315 0.0
          0.0208 -0.03315 0.0
          0.0195 -0.03315 0.0
          0.0182 -0.03315 0.0
          0.0169 -0.03315 0.0
          0.0156 -0.03315 0.0
          0.0143 -0.03315 0.0
          0.013 -0.03315 0.0
          0.0117 -0.03315 0.0
          0.0104 -0.03315 0.0
          0.0091 -0.03315 0.0
          0.0078 -0.03315 0.0
          0.0065 -0.03315 0.0
          0.0052 -0.03315 0.0
          0.0039 -0.03315 0.0
          0.0026 -0.03315 0.0
          0.0013 -0.03315 0.0
          0 -0.03315 0.0
          0.039 -0.03445 0.0
          0.0377 -0.03445 0.0
          0.0364 -0.03445 0.0
          0.0351 -0.03445 0.0
          0.0338 -0.03445 0.0
          0.0325 -0.03445 0.0
          0.0312 -0.03445 0.0
          0.0299 -0.03445 0.0
          0.0286 -0.03445 0.0
          0.0273 -0.03445 0.0
          0.026 -0.03445 0.0
          0.0247 -0.03445 0.0
          0.0234 -0.03445 0.0
          0.0221 -0.03445 0.0
          0.0208 -0.03445 0.0
          0.0195 -0.03445 0.0
          0.0182 -0.03445 0.0
          0.0169 -0.03445 0.0
          0.0156 -0.03445 0.0
          0.0143 -0.03445 0.0
          0.013 -0.03445 0.0
          0.0117 -0.03445 0.0
          0.0104 -0.03445 0.0
          0.0091 -0.03445 0.0
          0.0078 -0.03445 0.0
          0.0065 -0.03445 0.0
          0.0052 -0.03445 0.0
          0.0039 -0.03445 0.0
          0.0026 -0.03445 0.0
          0.0013 -0.03445 0.0
          0 -0.03445 0.0
          0.039 -0.03575 0.0
          0.0377 -0.03575 0.0
          0.0364 -0.03575 0.0
          0.0351 -0.03575 0.0
          0.0338 -0.03575 0.0
          0.0325 -0.03575 0.0
          0.0312 -0.03575 0.0
          0.0299 -0.03575 0.0
          0.0286 -0.03575 0.0
          0.0273 -0.03575 0.0
          0.026 -0.03575 0.0
          0.0247 -0.03575 0.0
          0.0234 -0.03575 0.0
          0.0221 -0.03575 0.0
          0.0208 -0.03575 0.0
          0.0195 -0.03575 0.0
          0.0182 -0.03575 0.0
          0.0169 -0.03575 0.0
          0.0156 -0.03575 0.0
          0.0143 -0.03575 0.0
          0.013 -0.03575 0.0
          0.0117 -0.03575 0.0
          0.0104 -0.03575 0.0
          0.0091 -0.03575 0.0
          0.0078 -0.03575 0.0
          0.0065 -0.03575 0.0
          0.0052 -0.03575 0.0
          0.0039 -0.03575 0.0
          0.0026 -0.03575 0.0
          0.0013 -0.03575 0.0
          0 -0.03575 0.0
          0.039 -0.03705 0.0
          0.0377 -0.03705 0.0
          0.0364 -0.03705 0.0
          0.0351 -0.03705 0.0
          0.0338 -0.03705 0.0
          0.0325 -0.03705 0.0
          0.0312 -0.03705 0.0
          0.0299 -0.03705 0.0
          0.0286 -0.03705 0.0
          0.0273 -0.03705 0.0
          0.026 -0.03705 0.0
          0.0247 -0.03705 0.0
          0.0234 -0.03705 0.0
          0.0221 -0.03705 0.0
          0.0208 -0.03705 0.0
          0.0195 -0.03705 0.0
          0.0182 -0.03705 0.0
          0.0169 -0.03705 0.0
          0.0156 -0.03705 0.0
          0.0143 -0.03705 0.0
          0.013 -0.03705 0.0
          0.0117 -0.03705 0.0
          0.0104 -0.03705 0.0
          0.0091 -0.03705 0.0
          0.0078 -0.03705 0.0
          0.0065 -0.03705 0.0
          0.0052 -0.03705 0.0
          0.0039 -0.03705 0.0
          0.0026 -0.03705 0.0
          0.0013 -0.03705 0.0
          0 -0.03705 0.0
        </DataArray>
      </Points>
      <Cells>
        <DataArray type="Int32" Name="connectivity" format="ascii">
          0 1 32 31 
          1 2 33 32 
          2 3 34 33 
          3 4 35 34 
          4 5 36 35 
          5 6 37 36 
          6 7 38 37 
          7 8 39 38 
          8 9 40 39 
          9 10 41 40 
          10 11 42 41 
          11 12 43 42 
          12 13 44 43 
          13 14 45 44 
          14 15 46 45 
          15 16 47 46 
          16 17 48 47 
          17 18 49 48 
          18 19 50 49 
          19 20 51 50 
          20 21 52 51 
          21 22 53 52 
          22 23 54 53 
          23 24 55 54 
          24 25 56 55 
          25 26 57 56 
          26 27 58 57 
          27 28 59 58 
          28 29 60 59 
          29 30 61 60 
          31 32 63 62 
          32 33 64 63 
          33 34 65 64 
          34 35 66 65 
          35 36 67 66 
          36 37 68 67 
          37 38 69 68 
          38 39 70 69 
          39 40 71 70 
          40 41 72 71 
          41 42 73 72 
          42 43 74 73 
          43 44 75 74 
          44 45 76 75 
          45 46 77 76 
          46 47 78 77 
          47 48 79 78 
          48 49 80 79 
          49 50 81 80 
          50 51 82 81 
          51 52 83 82 
          52 53 84 83 
          53 54 85 84 
          54 55 86 85 
          55 56 87 86 
          56 57 88 87 
          57 58 89 88 
          58 59 90 89 
          59 60 91 90 
          60 61 92 91 
          62 63 94 93 
          63 64 95 94 
          64 65 96 95 
          65 66 97 96 
          66 67 98 97 
          67 68 99 98 
          68 69 100 99 
          69 70 101 100 
          70 71 102 101 
          71 72 103 102 
          72 73 104 103 
          73 74 105 104 
          74 75 106 105 
          75 76 107 106 
          76 77 108 107 
          77 78 109 108 
          78 79 110 109 
          79 80 111 110 
          80 81 112 111 
          81 82 113 112 
          82 83 114 113 
          83 84 115 114 
          84 85 116 115 
          85 86 117 116 
          86 87 118 117 
          87 88 119 118 
          88 89 120 119 
          89 90 121 120 
          90 91 122 121 
          91 92 123 122 
          93 94 125 124 
          94 95 126 125 
          95 96 127 126 
          96 97 128 127 
          97 98 129 128 
          98 99 130 129 
          99 100 131 130 
          100 101 132 131 
          101 102 133 132 
          102 103 134 133 
          103 104 135 134 
          104 105 136 135 
          105 106 137 136 
          106 107 138 137 
          107 108 139 138 
          108 109 140 139 
          109 110 141 140 
          110 111 142 141 
          111 112 143 142 
          112 113 144 143 
          113 114 145 144 
          114 115 146 145 
          115 116 147 146 
          116 117 148 147 
          117 118 149 148 
          118 119 150 149 
          119 120 151 150 
          120 121 152 151 
          121 122 153 152 
          122 123 154 153 
          124 125 156 155 
          125 126 157 156 
          126 127 158 157 
          127 128 159 158 
          128 129 160 159 
          129 130 161 160 
          130 131 162 161 
          131 132 163 162 
          132 133 164 163 
          133 134 165 164 
          134 135 166 165 
          135 136 167 166 
          136 137 168 167 
          137 138 169 168 
          138 139 170 169 
          139 140 171 170 
          140 141 172 171 
          141 142 173 172 
          142 143 174 173 
          143 144 175 174 
          144 145 176 175 
          145 146 177 176 
          146 147 178 177 
          147 148 179 178 
          148 149 180 179 
          149 150 181 180 
          150 151 182 181 
          151 152 183 182 
          152 153 184 183 
          153 154 185 184 
          155 156 187 186 
          156 157 188 187 
          157 158 189 188 
          158 159 190 189 
          159 160 191 190 
          160 161 192 191 
          161 162 193 192 
          162 163 194 193 
          163 164 195 194 
          164 165 196 195 
          165 166 197 196 
          166 167 198 197 
          167 168 199 198 
          168 169 200 199 
          169 170 201 200 
          170 171 202 201 
          171 172 203 202 
          172 173 204 203 
          173 174 205 204 
          174 175 206 205 
          175 176 207 206 
          176 177 208 207 
          177 178 209 208 
          178 179 210 209 
          179 180 211 210 
          180 181 212 211 
          181 182 213 212 
          182 183 214 213 
          183 184 215 214 
          184 185 216 215 
          186 187 218 217 
          187 188 219 218 
          188 189 220 219 
          189 190 221 220 
          190 191 222 221 
          191 192 223 222 
          192 193 224 223 
          193 194 225 224 
          194 195 226 225 
          195 196 227 226 
          196 197 228 227 
          197 198 229 228 
          198 199 230 229 
          199 200 231 230 
          200 201 232 231 
          201 202 233 232 
          202 203 234 233 
          203 204 235 234 
          204 205 236 235 
          205 206 237 236 
          206 207 238 237 
          207 208 239 238 
          208 209 240 239 
          209 210 241 240 
          210 211 242 241 
          211 212 243 242 
          212 213 244 243 
          213 214 245 244 
          214 215 246 245 
          215 216 247 246 
          217 218 249 248 
          218 219 250 249 
          219 220 251 250 
          220 221 252 251 
          221 222 253 252 
          222 223 254 253 
          223 224 255 254 
          224 225 256 255 
          225 226 257 256 
          226 227 258 257 
          227 228 259 258 
          228 229 260 259 
          229 230 261 260 
          230 231 262 261 
          231 232 263 262 
          232 233 264 263 
          233 234 265 264 
          234 235 266 265 
          235 236 267 266 
          236 237 268 267 
          237 238 269 268 
          238 239 270 269 
          239 240 271 270 
          240 241 272 271 
          241 242 273 272 
          242 243 274 273 
          243 244 275 274 
          244 245 276 275 
          245 246 277 276 
          246 247 278 277 
          248 249 280 279 
          249 250 281 280 
          250 251 282 281 
          251 252 283 282 
          252 253 284 283 
          253 254 285 284 
          254 255 286 285 
          255 256 287 286 
          256 257 288 287 
          257 258 289 288 
          258 259 290 289 
          259 260 291 290 
          260 261 292 291 
          261 262 293 292 
          262 263 294 293 
          263 264 295 294 
          264 265 296 295 
          265 266 297 296 
          266 267 298 297 
          267 268 299 298 
          268 269 300 299 
          269 270 301 300 
          270 271 302 301 
          271 272 303 302 
          272 273 304 303 
          273 274 305 304 
          274 275 306 305 
          275 276 307 306 
          276 277 308 307 
          277 278 309 308 
          279 280 311 310 
          280 281 312 311 
          281 282 313 312 
          282 283 314 313 
          283 284 315 314 
          284 285 316 315 
          285 286 317 316 
          286 287 318 317 
          287 288 319 318 
          288 289 320 319 
          289 290 321 320 
          290 291 322 321 
          291 292 323 322 
          292 293 324 323 
          293 294 325 324 
          294 295 326 325 
          295 296 327 326 
          296 297 328 327 
          297 298 329 328 
          298 299 330 329 
          299 300 331 330 
          300 301 332 331 
          301 302 333 332 
          302 303 334 333 
          303 304 335 334 
          304 305 336 335 
          305 306 337 336 
          306 307 338 337 
          307 308 339 338 
          308 309 340 339 
          310 311 342 341 
          311 312 343 342 
          312 313 344 343 
          313 314 345 344 
          314 315 346 345 
          315 316 347 346 
          316 317 348 347 
          317 318 349 348 
          318 319 350 349 
          319 320 351 350 
          320 321 352 351 
          321 322 353 352 
          322 323 354 353 
          323 324 355 354 
          324 325 356 355 
          325 326 357 356 
          326 327 358 357 
          327 328 359 358 
          328 329 360 359 
          329 330 361 360 
          330 331 362 361 
          331 332 363 362 
          332 333 364 363 
          333 334 365 364 
          334 335 366 365 
          335 336 367 366 
          336 337 368 367 
          337 338 369 368 
          338 339 370 369 
          339 340 371 370 
          341 342 373 372 
          342 343 374 373 
          343 344 375 374 
          344 345 376 375 
          345 346 377 376 
          346 347 378 377 
          347 348 379 378 
          348 349 380 379 
          349 350 381 380 
          350 351 382 381 
          351 352 383 382 
          352 353 384 383 
          353 354 385 384 
          354 355 386 385 
          355 356 387 386 
          356 357 388 387 
          357 358 389 388 
          358 359 390 389 
          359 360 391 390 
          360 361 392 391 
          361 362 393 392 
          362 363 394 393 
          363 364 395 394 
          364 365 396 395 
          365 366 397 396 
          366 367 398 397 
          367 368 399 398 
          368 369 400 399 
          369 370 401 400 
          370 371 402 401 
          372 373 404 403 
          373 374 405 404 
          374 375 406 405 
          375 376 407 406 
          376 377 408 407 
          377 378 409 408 
          378 379 410 409 
          379 380 411 410 
          380 381 412 411 
          381 382 413 412 
          382 383 414 413 
          383 384 415 414 
          384 385 416 415 
          385 386 417 416 
          386 387 418 417 
          387 388 419 418 
          388 389 420 419 
          389 390 421 420 
          390 391 422 421 
          391 392 423 422 
          392 393 424 423 
          393 394 425 424 
          394 395 426 425 
          395 396 427 426 
          396 397 428 427 
          397 398 429 428 
          398 399 430 429 
          399 400 431 430 
          400 401 432 431 
          401 402 433 432 
          403 404 435 434 
          404 405 436 435 
          405 406 437 436 
          406 407 438 437 
          407 408 439 438 
          408 409 440 439 
          409 410 441 440 
          410 411 442 441 
          411 412 443 442 
          412 413 444 443 
          413 414 445 444 
          414 415 446 445 
          415 416 447 446 
          416 417 448 447 
          417 418 449 448 
          418 419 450 449 
          419 420 451 450 
          420 421 452 451 
          421 422 453 452 
          422 423 454 453 
          423 424 455 454 
          424 425 456 455 
          425 426 457 456 
          426 427 458 457 
          427 428 459 458 
          428 429 460 459 
          429 430 461 460 
          430 431 462 461 
          431 432 463 462 
          432 433 464 463 
          434 435 466 465 
          435 436 467 466 
          436 437 468 467 
          437 438 469 468 
          438 439 470 469 
          439 440 471 470 
          440 441 472 471 
          441 442 473 472 
          442 443 474 473 
          443 444 475 474 
          444 445 476 475 
          445 446 477 476 
          446 447 478 477 
          447 448 479 478 
          448 449 480 479 
          449 450 481 480 
          450 451 482 481 
          451 452 483 482 
          452 453 484 483 
          453 454 485 484 
          454 455 486 485 
          455 456 487 486 
          456 457 488 487 
          457 458 489 488 
          458 459 490 489 
          459 460 491 490 
          460 461 492 491 
          461 462 493 492 
          462 463 494 493 
          463 464 495 494 
          465 466 497 496 
          466 467 498 497 
          467 468 499 498 
          468 469 500 499 
          469 470 501 500 
          470 471 502 501 
          471 472 503 502 
          472 473 504 503 
          473 474 505 504 
          474 475 506 505 
          475 476 507 506 
          476 477 508 507 
          477 478 509 508 
          478 479 510 509 
          479 480 511 510 
          480 481 512 511 
          481 482 513 512 
          482 483 514 513 
          483 484 515 514 
          484 485 516 515 
          485 486 517 516 
          486 487 518 517 
          487 488 519 518 
          488 489 520 519 
          489 490 521 520 
          490 491 522 521 
          491 492 523 522 
          492 493 524 523 
          493 494 525 524 
          494 495 526 525 
          496 497 528 527 
          497 498 529 528 
          498 499 530 529 
          499 500 531 530 
          500 501 532 531 
          501 502 533 532 
          502 503 534 533 
          503 504 535 534 
          504 505 536 535 
          505 506 537 536 
          506 507 538 537 
          507 508 539 538 
          508 509 540 539 
          509 510 541 540 
          510 511 542 541 
          511 512 543 542 
          512 513 544 543 
          513 514 545 544 
          514 515 546 545 
          515 516 547 546 
          516 517 548 547 
          517 518 549 548 
          518 519 550 549 
          519 520 551 550 
          520 521 552 551 
          521 522 553 552 
          522 523 554 553 
          523 524 555 554 
          524 525 556 555 
          525 526 557 556 
          527 528 559 558 
          528 529 560 559 
          529 530 561 560 
          530 531 562 561 
          531 532 563 562 
          532 533 564 563 
          533 534 565 564 
          534 535 566 565 
          535 536 567 566 
          536 537 568 567 
          537 538 569 568 
          538 539 570 569 
          539 540 571 570 
          540 541 572 571 
          541 542 573 572 
          542 543 574 573 
          543 544 575 574 
          544 545 576 575 
          545 546 577 576 
          546 547 578 577 
          547 548 579 578 
          548 549 580 579 
          549 550 581 580 
          550 551 582 581 
          551 552 583 582 
          552 553 584 583 
          553 554 585 584 
          554 555 586 585 
          555 556 587 586 
          556 557 588 587 
          558 559 590 589 
          559 560 591 590 
          560 561 592 591 
          561 562 593 592 
          562 563 594 593 
          563 564 595 594 
          564 565 596 595 
          565 566 597 596 
          566 567 598 597 
          567 568 599 598 
          568 569 600 599 
          569 570 601 600 
          570 571 602 601 
          571 572 603 602 
          572 573 604 603 
          573 574 605 604 
          574 575 606 605 
          575 576 607 606 
          576 577 608 607 
          577 578 609 608 
          578 579 610 609 
          579 580 611 610 
          580 581 612 611 
          581 582 613 612 
          582 583 614 613 
          583 584 615 614 
          584 585 616 615 
          585 586 617 616 
          586 587 618 617 
          587 588 619 618 
          589 590 621 620 
          590 591 622 621 
          591 592 623 622 
          592 593 624 623 
          593 594 625 624 
          594 595 626 625 
          595 596 627 626 
          596 597 628 627 
          597 598 629 628 
          598 599 630 629 
          599 600 631 630 
          600 601 632 631 
          601 602 633 632 
          602 603 634 633 
          603 604 635 634 
          604 605 636 635 
          605 606 637 636 
          606 607 638 637 
          607 608 639 638 
          608 609 640 639 
          609 610 641 640 
          610 611 642 641 
          611 612 643 642 
          612 613 644 643 
          613 614 645 644 
          614 615 646 645 
          615 616 647 646 
          616 617 648 647 
          617 618 649 648 
          618 619 650 649 
          620 621 652 651 
          621 622 653 652 
          622 623 654 653 
          623 624 655 654 
          624 625 656 655 
          625 626 657 656 
          626 627 658 657 
          627 628 659 658 
          628 629 660 659 
          629 630 661 660 
          630 631 662 661 
          631 632 663 662 
          632 633 664 663 
          633 634 665 664 
          634 635 666 665 
          635 636 667 666 
          636 637 668 667 
          637 638 669 668 
          638 639 670 669 
          639 640 671 670 
          640 641 672 671 
          641 642 673 672 
          642 643 674 673 
          643 644 675 674 
          644 645 676 675 
          645 646 677 676 
          646 647 678 677 
          647 648 679 678 
          648 649 680 679 
          649 650 681 680 
          651 652 683 682 
          652 653 684 683 
          653 654 685 684 
          654 655 686 685 
          655 656 687 686 
          656 657 688 687 
          657 658 689 688 
          658 659 690 689 
          659 660 691 690 
          660 661 692 691 
          661 662 693 692 
          662 663 694 693 
          663 664 695 694 
          664 665 696 695 
          665 666 697 696 
          666 667 698 697 
          667 668 699 698 
          668 669 700 699 
          669 670 701 700 
          670 671 702 701 
          671 672 703 702 
          672 673 704 703 
          673 674 705 704 
          674 675 706 705 
          675 676 707 706 
          676 677 708 707 
          677 678 709 708 
          678 679 710 709 
          679 680 711 710 
          680 681 712 711 
          682 683 714 713 
          683 684 715 714 
          684 685 716 715 
          685 686 717 716 
          686 687 718 717 
          687 688 719 718 
          688 689 720 719 
          689 690 721 720 
          690 691 722 721 
          691 692 723 722 
          692 693 724 723 
          693 694 725 724 
          694 695 726 725 
          695 696 727 726 
          696 697 728 727 
          697 698 729 728 
          698 699 730 729 
          699 700 731 730 
          700 701 732 731 
          701 702 733 732 
          702 703 734 733 
          703 704 735 734 
          704 705 736 735 
          705 706 737 736 
          706 707 738 737 
          707 708 739 738 
          708 709 740 739 
          709 710 741 740 
          710 711 742 741 
          711 712 743 742 
          713 714 745 744 
          714 715 746 745 
          715 716 747 746 
          716 717 748 747 
          717 718 749 748 
          718 719 750 749 
          719 720 751 750 
          720 721 752 751 
          721 722 753 752 
          722 723 754 753 
          723 724 755 754 
          724 725 756 755 
          725 726 757 756 
          726 727 758 757 
          727 728 759 758 
          728 729 760 759 
          729 730 761 760 
          730 731 762 761 
          731 732 763 762 
          732 733 764 763 
          733 734 765 764 
          734 735 766 765 
          735 736 767 766 
          736 737 768 767 
          737 738 769 768 
          738 739 770 769 
          739 740 771 770 
          740 741 772 771 
          741 742 773 772 
          742 743 774 773 
          744 745 776 775 
          745 746 777 776 
          746 747 778 777 
          747 748 779 778 
          748 749 780 779 
          749 750 781 780 
          750 751 782 781 
          751 752 783 782 
          752 753 784 783 
          753 754 785 784 
          754 755 786 785 
          755 756 787 786 
          756 757 788 787 
          757 758 789 788 
          758 759 790 789 
          759 760 791 790 
          760 761 792 791 
          761 762 793 792 
          762 763 794 793 
          763 764 795 794 
          764 765 796 795 
          765 766 797 796 
          766 767 798 797 
          767 768 799 798 
          768 769 800 799 
          769 770 801 800 
          770 771 802 801 
          771 772 803 802 
          772 773 804 803 
          773 774 805 804 
          775 776 807 806 
          776 777 808 807 
          777 778 809 808 
          778 779 810 809 
          779 780 811 810 
          780 781 812 811 
          781 782 813 812 
          782 783 814 813 
          783 784 815 814 
          784 785 816 815 
          785 786 817 816 
          786 787 818 817 
          787 788 819 818 
          788 789 820 819 
          789 790 821 820 
          790 791 822 821 
          791 792 823 822 
          792 793 824 823 
          793 794 825 824 
          794 795 826 825 
          795 796 827 826 
          796 797 828 827 
          797 798 829 828 
          798 799 830 829 
          799 800 831 830 
          800 801 832 831 
          801 802 833 832 
          802 803 834 833 
          803 804 835 834 
          804 805 836 835 
          806 807 838 837 
          807 808 839 838 
          808 809 840 839 
          809 810 841 840 
          810 811 842 841 
          811 812 843 842 
          812 813 844 843 
          813 814 845 844 
          814 815 846 845 
          815 816 847 846 
          816 817 848 847 
          817 818 849 848 
          818 819 850 849 
          819 820 851 850 
          820 821 852 851 
          821 822 853 852 
          822 823 854 853 
          823 824 855 854 
          824 825 856 855 
          825 826 857 856 
          826 827 858 857 
          827 828 859 858 
          828 829 860 859 
          829 830 861 860 
          830 831 862 861 
          831 832 863 862 
          832 833 864 863 
          833 834 865 864 
          834 835 866 865 
          835 836 867 866 
          837 838 869 868 
          838 839 870 869 
          839 840 871 870 
          840 841 872 871 
          841 842 873 872 
          842 843 874 873 
          843 844 875 874 
          844 845 876 875 
          845 846 877 876 
          846 847 878 877 
          847 848 879 878 
          848 849 880 879 
          849 850 881 880 
          850 851 882 881 
          851 852 883 882 
          852 853 884 883 
          853 854 885 884 
          854 855 886 885 
          855 856 887 886 
          856 857 888 887 
          857 858 889 888 
          858 859 890 889 
          859 860 891 890 
          860 861 892 891 
          861 862 893 892 
          862 863 894 893 
          863 864 895 894 
          864 865 896 895 
          865 866 897 896 
          866 867 898 897 
          868 869 900 899 
          869 870 901 900 
          870 871 902 901 
          871 872 903 902 
          872 873 904 903 
          873 874 905 904 
          874 875 906 905 
          875 876 907 906 
          876 877 908 907 
          877 878 909 908 
          878 879 910 909 
          879 880 911 910 
          880 881 912 911 
          881 882 913 912 
          882 883 914 913 
          883 884 915 914 
          884 885 916 915 
          885 886 917 916 
          886 887 918 917 
          887 888 919 918 
          888 889 920 919 
          889 890 921 920 
          890 891 922 921 
          891 892 923 922 
          892 893 924 923 
          893 894 925 924 
          894 895 926 925 
          895 896 927 926 
          896 897 928 927 
          897 898 929 928 
          899 900 931 930 
          900 901 932 931 
          901 902 933 932 
          902 903 934 933 
          903 904 935 934 
          904 905 936 935 
          905 906 937 936 
          906 907 938 937 
          907 908 939 938 
          908 909 940 939 
          909 910 941 940 
          910 911 942 941 
          911 912 943 942 
          912 913 944 943 
          913 914 945 944 
          914 915 946 945 
          915 916 947 946 
          916 917 948 947 
          917 918 949 948 
          918 919 950 949 
          919 920 951 950 
          920 921 952 951 
          921 922 953 952 
          922 923 954 953 
          923 924 955 954 
          924 925 956 955 
          925 926 957 956 
          926 927 958 957 
          927 928 959 958 
          928 929 960 959 
        </DataArray>
        <DataArray type="Int32" Name="offsets" format="ascii">
          4
          8
          12
          16
          20
          24
          28
          32
          36
          40
          44
          48
          52
          56
          60
          64
          68
          72
          76
          80
          84
          88
          92
          96
          100
          104
          108
          112
          116
          120
          124
          128
          132
          136
          140
          144
          148
          152
          156
          160
          164
          168
          172
          176
          180
          184
          188
          192
          196
          200
          204
          208
          212
          216
          220
          224
          228
          232
          236
          240
          244
          248
          252
          256
          260
          264
          268
          272
          276
          280
          284
          288
          292
          296
          300
          304
          308
          312
          316
          320
          324
          328
          332
          336
          340
          344
          348
          352
          356
          360
          364
          368
          372
          376
          380
          384
          388
          392
          396
          400
          404
          408
          412
          416
          420
          424
          428
          432
          436
          440
          444
          448
          452
          456
          460
          464
          468
          472
          476
          480
          484
          488
          492
          496
          500
          504
          508
          512
          516
          520
          524
          528
          532
          536
          540
          544
          548
          552
          556
          560
          564
          568
          572
          576
          580
          584
          588
          592
          596
          600
          604
          608
          612
          616
          620
          624
          628
          632
          636
          640
          644
          648
          652
          656
          660
          664
          668
          672
          676
          680
          684
          688
          692
          696
          700
          704
          708
          712
          716
          720
          724
          728
          732
          736
          740
          744
          748
          752
          756
          760
          764
          768
          772
          776
          780
          784
          788
          792
          796
          800
          804
          808
          812
          816
          820
          824
          828
          832
          836
          840
          844
          848
          852
          856
          860
          864
          868
          872
          876
          880
          884
          888
          892
          896
          900
          904
          908
          912
          916
          920
          924
          928
          932
          936
          940
          944
          948
          952
          956
          960
          964
          968
          972
          976
          980
          984
          988
          992
          996
          1000
          1004
          1008
          1012
          1016
          1020
          1024
          1028
          1032
          1036
          1040
          1044
          1048
          1052
          1056
          1060
          1064
          1068
          1072
          1076
          1080
          1084
          1088
          1092
          1096
          1100
          1104
          1108
          1112
          1116
          1120
          1124
          1128
          1132
          1136
          1140
          1144
          1148
          1152
          1156
          1160
          1164
          1168
          1172
          1176
          1180
          1184
          1188
          1192
          1196
          1200
          1204
          1208
          1212
          1216
          1220
          1224
          1228
          1232
          1236
          1240
          1244
          1248
          1252
          1256
          1260
          1264
          1268
          1272
          1276
          1280
          1284
          1288
          1292
          1296
          1300
          1304
          1308
          1312
          1316
          1320
          1324
          1328
          1332
          1336
          1340
          1344
          1348
          1352
          1356
          1360
          1364
          1368
          1372
          1376
          1380
          1384
          1388
          1392
          1396
          1400
          1404
          1408
          1412
          1416
          1420
          1424
          1428
          1432
          1436
          1440
          1444
          1448
          1452
          1456
          1460
          1464
          1468
          1472
          1476
          1480
          1484
          1488
          1492
          1496
          1500
          1504
          1508
          1512
          1516
          1520
          1524
          1528
          1532
          1536
          1540
          1544
          1548
          1552
          1556
          1560
          1564
          1568
          1572
          1576
          1580
          1584
          1588
          1592
          1596
          1600
          1604
          1608
          1612
          1616
          1620
          1624
          1628
          1632
          1636
          1640
          1644
          1648
          1652
          1656
          1660
          1664
          1668
          1672
          1676
          1680
          1684
          1688
          1692
          1696
          1700
          1704
          1708
          1712
          1716
          1720
          1724
          1728
          1732
          1736
          1740
          1744
          1748
          1752
          1756
          1760
          1764
          1768
          1772
          1776
          1780
          1784
          1788
          1792
          1796
          1800
          1804
          1808
          1812
          1816
          1820
          1824
          1828
          1832
          1836
          1840
          1844
          1848
          1852
          1856
          1860
          1864
          1868
          1872
          1876
          1880
          1884
          1888
          1892
          1896
          1900
          1904
          1908
          1912
          1916
          1920
          1924
          1928
          1932
          1936
          1940
          1944
          1948
          1952
          1956
          1960
          1964
          1968
          1972
          1976
          1980
          1984
          1988
          1992
          1996
          2000
          2004
          2008
          2012
          2016
          2020
          2024
          2028
          2032
          2036
          2040
          2044
          2048
          2052
          2056
          2060
          2064
          2068
          2072
          2076
          2080
          2084
          2088
          2092
          2096
          2100
          2104
          2108
          2112
          2116
          2120
          2124
          2128
          2132
          2136
          2140
          2144
          2148
          2152
          2156
          2160
          2164
          2168
          2172
          2176
          2180
          2184
          2188
          2192
          2196
          2200
          2204
          2208
          2212
          2216
          2220
          2224
          2228
          2232
          2236
          2240
          2244
          2248
          2252
          2256
          2260
          2264
          2268
          2272
          2276
          2280
          2284
          2288
          2292
          2296
          2300
          2304
          2308
          2312
          2316
          2320
          2324
          2328
          2332
          2336
          2340
          2344
          2348
          2352
          2356
          2360
          2364
          2368
          2372
          2376
          2380
          2384
          2388
          2392
          2396
          2400
          2404
          2408
          2412
          2416
          2420
          2424
          2428
          2432
          2436
          2440
          2444
          2448
          2452
          2456
          2460
          2464
          2468
          2472
          2476
          2480
          2484
          2488
          2492
          2496
          2500
          2504
          2508
          2512
          2516
          2520
          2524
          2528
          2532
          2536
          2540
          2544
          2548
          2552
          2556
          2560
          2564
          2568
          2572
          2576
          2580
          2584
          2588
          2592
          2596
          2600
          2604
          2608
          2612
          2616
          2620
          2624
          2628
          2632
          2636
          2640
          2644
          2648
          2652
          2656
          2660
          2664
          2668
          2672
          2676
          2680
          2684
          2688
          2692
          2696
          2700
          2704
          2708
          2712
          2716
          2720
          2724
          2728
          2732
          2736
          2740
          2744
          2748
          2752
          2756
          2760
          2764
          2768
          2772
          2776
          2780
          2784
          2788
          2792
          2796
          2800
          2804
          2808
          2812
          2816
          2820
          2824
          2828
          2832
          2836
          2840
          2844
          2848
          2852
          2856
          2860
          2864
          2868
          2872
          2876
          2880
          2884
          2888
          2892
          2896
          2900
          2904
          2908
          2912
          2916
          2920
          2924
          2928
          2932
          2936
          2940
          2944
          2948
          2952
          2956
          2960
          2964
          2968
          2972
          2976
          2980
          2984
          2988
          2992
          2996
          3000
          3004
          3008
          3012
          3016
          3020
          3024
          3028
          3032
          3036
          3040
          3044
          3048
          3052
          3056
          3060
          3064
          3068
          3072
          3076
          3080
          3084
          3088
          3092
          3096
          3100
          3104
          3108
          3112
          3116
          3120
          3124
          3128
          3132
          3136
          3140
          3144
          3148
          3152
          3156
          3160
          3164
          3168
          3172
          3176
          3180
          3184
          3188
          3192
          3196
          3200
          3204
          3208
          3212
          3216
          3220
          3224
          3228
          3232
          3236
          3240
          3244
          3248
          3252
          3256
          3260
          3264
          3268
          3272
          3276
          3280
          3284
          3288
          3292
          3296
          3300
          3304
          3308
          3312
          3316
          3320
          3324
          3328
          3332
          3336
          3340
          3344
          3348
          3352
          3356
          3360
          3364
          3368
          3372
          3376
          3380
          3384
          3388
          3392
          3396
          3400
          3404
          3408
          3412
          3416
          3420
          3424
          3428
          3432
          3436
          3440
          3444
          3448
          3452
          3456
          3460
          3464
          3468
          3472
          3476
          3480
          3484
          3488
          3492
          3496
          3500
          3504
          3508
          3512
          3516
          3520
          3524
          3528
          3532
          3536
          3540
          3544
          3548
          3552
          3556
          3560
          3564
          3568
          3572
          3576
          3580
          3584
          3588
          3592
          3596
          3600
        </DataArray>
        <DataArray type="UInt8" Name="types" format="ascii">
          9
          9
          9
          9
          9
          9
          9
          9
          9
          9
          9
          9
          9
          9
          9
          9
          9
          9
          9
          9
          9
          9
          9
          9
          9
          9
          9
          9
          9
          9
          9
          9
          9
          9
          9
          9
          9
          9
          9
          9
          9
          9
          9
          9
          9
          9
          9
          9
          9
          9
          9
          9
          9
          9
          9
          9
          9
          9
          9
          9
          9
          9
          9
          9
          9
          9
          9
          9
          9
          9
          9
          9
          9
          9
          9
          9
          9
          9
          9
          9
          9
          9
          9
          9
          9
          9
          9
          9
          9
          9
          9
          9
          9
          9
          9
          9
          9
          9
          9
          9
          9
          9
          9
          9
          9
          9
          9
          9
          9
          9
          9
          9
          9
          9
          9
          9
          9
          9
          9
          9
          9
          9
          9
          9
          9
          9
          9
          9
          9
          9
          9
          9
          9
          9
          9
          9
          9
          9
          9
          9
          9
          9
          9
          9
          9
          9
          9
          9
          9
          9
          9
          9
          9
          9
          9
          9
          9
          9
          9
          9
          9
          9
          9
          9
          9
          9
          9
          9
          9
          9
          9
          9
          9
          9
          9
          9
          9
          9
          9
          9
          9
          9
          9
          9
          9
          9
          9
          9
          9
          9
          9
          9
          9
          9
          9
          9
          9
          9
          9
          9
          9
          9
          9
          9
          9
          9
          9
          9
          9
          9
          9
          9
          9
          9
          9
          9
          9
          9
          9
          9
          9
          9
          9
          9
          9
          9
          9
          9
          9
          9
          9
          9
          9
          9
          9
          9
          9
          9
          9
          9
          9
          9
          9
          9
          9
          9
          9
          9
          9
          9
          9
          9
          9
          9
          9
          9
          9
          9
          9
          9
          9
          9
          9
          9
          9
          9
          9
          9
          9
          9
          9
          9
          9
          9
          9
          9
          9
          9
          9
          9
          9
          9
          9
          9
          9
          9
          9
          9
          9
          9
          9
          9
          9
          9
          9
          9
          9
          9
          9
          9
          9
          9
          9
          9
          9
          9
          9
          9
          9
          9
          9
          9
          9
          9
          9
          9
          9
          9
          9
          9
          9
          9
          9
          9
          9
          9
          9
          9
          9
          9
          9
          9
          9
          9
          9
          9
          9
          9
          9
          9
          9
          9
          9
          9
          9
          9
          9
          9
          9
          9
          9
          9
          9
          9
          9
          9
          9
          9
          9
          9
          9
          9
          9
          9
          9
          9
          9
          9
          9
          9
          9
          9
          9
          9
          9
          9
          9
          9
          9
          9
          9
          9
          9
          9
          9
          9
          9
          9
          9
          9
          9
          9
          9
          9
          9
          9
          9
          9
          9
          9
          9
          9
          9
          9
          9
          9
          9
          9
          9
          9
          9
          9
          9
          9
          9
          9
          9
          9
          9
          9
          9
          9
          9
          9
          9
          9
          9
          9
          9
          9
          9
          9
          9
          9
          9
          9
          9
          9
          9
          9
          9
          9
          9
          9
          9
          9
          9
          9
          9
          9
          9
          9
          9
          9
          9
          9
          9
          9
          9
          9
          9
          9
          9
          9
          9
          9
          9
          9
          9
          9
          9
          9
          9
          9
          9
          9
          9
          9
          9
          9
          9
          9
          9
          9
          9
          9
          9
          9
          9
          9
          9
          9
          9
          9
          9
          9
          9
          9
          9
          9
          9
          9
          9
          9
          9
          9
          9
          9
          9
          9
          9
          9
          9
          9
          9
          9
          9
          9
          9
          9
          9
          9
          9
          9
          9
          9
          9
          9
          9
          9
          9
          9
          9
          9
          9
          9
          9
          9
          9
          9
          9
          9
          9
          9
          9
          9
          9
          9
          9
          9
          9
          9
          9
          9
          9
          9
          9
          9
          9
          9
          9
          9
          9
          9
          9
          9
          9
          9
          9
          9
          9
          9
          9
          9
          9
          9
          9
          9
          9
          9
          9
          9
          9
          9
          9
          9
          9
          9
          9
          9
          9
          9
          9
          9
          9
          9
          9
          9
          9
          9
          9
          9
          9
          9
          9
          9
          9
          9
          9
          9
          9
          9
          9
          9
          9
          9
          9
          9
          9
          9
          9
          9
          9
          9
          9
          9
          9
          9
          9
          9
          9
          9
          9
          9
          9
          9
          9
          9
          9
          9
          9
          9
          9
          9
          9
          9
          9
          9
          9
          9
          9
          9
          9
          9
          9
          9
          9
          9
          9
          9
          9
          9
          9
          9
          9
          9
          9
          9
          9
          9
          9
          9
          9
          9
          9
          9
          9
          9
          9
          9
          9
          9
          9
          9
          9
          9
          9
          9
          9
          9
          9
          9
          9
          9
          9
          9
          9
          9
          9
          9
          9
          9
          9
          9
          9
          9
          9
          9
          9
          9
          9
          9
          9
          9
          9
          9
          9
          9
          9
          9
          9
          9
          9
          9
          9
          9
          9
          9
          9
          9
          9
          9
          9
          9
          9
          9
          9
          9
          9
          9
          9
          9
          9
          9
          9
          9
          9
          9
          9
          9
          9
          9
          9
          9
          9
          9
          9
          9
          9
          9
          9
          9
          9
          9
          9
          9
          9
          9
          9
          9
          9
          9
          9
          9
          9
          9
          9
          9
          9
          9
          9
          9
          9
          9
          9
          9
          9
          9
          9
          9
          9
          9
          9
          9
          9
          9
          9
          9
          9
          9
          9
          9
          9
          9
          9
          9
          9
          9
          9
          9
          9
          9
          9
          9
          9
          9
          9
          9
          9
          9
          9
          9
          9
          9
          9
          9
          9
          9
          9
          9
          9
          9
          9
          9
          9
          9
          9
          9
          9
          9
          9
          9
          9
          9
          9
          9
          9
          9
          9
          9
          9
          9
          9
          9
          9
          9
          9
          9
          9
          9
          9
          9
          9
          9
          9
          9
          9
          9
          9
          9
          9
          9
          9
          9
          9
          9
          9
          9
          9
          9
          9
          9
          9
          9
          9
          9
          9
          9
          9
          9
          9
          9
          9
          9
          9
          9
          9
          9
          9
          9
        </DataArray>
      </Cells>
    </Piece>
  </UnstructuredGrid>
</VTKFile>
