<?xml version="1.0"?>
<VTKFile type="UnstructuredGrid" version="0.1" byte_order="LittleEndian">
  <UnstructuredGrid>
    <Piece NumberOfPoints="961" NumberOfCells="900">
      <PointData Scalars="Temperature">
        <DataArray type="Float32" Name="Temperature" format="ascii">
          21.0001
          21.0014
          21.0027
          21.0039
          21.005
          21.0059
          21.0068
          21.0076
          21.0082
          21.0088
          21.0095
          21.0101
          21.0108
          21.0117
          21.0127
          21.0145
          21.0155
          21.024
          21.0069
          21.1181
          20.6949
          22.8273
          22.8281
          22.8281
          22.8273
          20.6929
          21.1141
          21.0008
          21.0155
          21.0045
          21.0006
          21.0014
          21.023
          21.0439
          21.0636
          21.0815
          21.0975
          21.1115
          21.1239
          21.1349
          21.1449
          21.1547
          21.1649
          21.1763
          21.1902
          21.2081
          21.2322
          21.2671
          21.3174
          21.4094
          21.5334
          22.0165
          22.8299
          22.83
          22.83
          22.8299
          21.9846
          21.4686
          21.3099
          21.1804
          21.0881
          21.0052
          21.0028
          21.0454
          21.0866
          21.125
          21.16
          21.191
          21.2181
          21.2417
          21.2625
          21.2814
          21.2996
          21.3185
          21.3396
          21.365
          21.3975
          21.4409
          21.5014
          21.5905
          21.7248
          21.9599
          22.3364
          22.8322
          22.8322
          22.8322
          22.8322
          22.2754
          21.8361
          21.5348
          21.3288
          21.1605
          21.0096
          21.0043
          21.0694
          21.132
          21.1902
          21.2426
          21.2885
          21.3282
          21.3624
          21.392
          21.4186
          21.444
          21.4699
          21.4988
          21.5332
          21.5766
          21.6336
          21.711
          21.8188
          21.974
          22.1953
          22.4899
          22.8345
          22.8345
          22.8345
          22.8345
          22.4014
          22.0159
          21.6987
          21.44
          21.2184
          21.0131
          21.0059
          21.096
          21.1821
          21.2614
          21.3318
          21.3926
          21.4442
          21.4876
          21.5246
          21.5573
          21.5878
          21.6187
          21.6526
          21.6927
          21.7427
          21.807
          21.8915
          22.0041
          22.1533
          22.3456
          22.5785
          22.8368
          22.8368
          22.8368
          22.8368
          22.4652
          22.1156
          21.8002
          21.5183
          21.2608
          21.0158
          21.0078
          21.1268
          21.2396
          21.3419
          21.431
          21.5062
          21.5684
          21.6194
          21.6618
          21.6981
          21.7313
          21.7644
          21.8005
          21.8428
          21.8949
          21.9608
          22.045
          22.1523
          22.2868
          22.4497
          22.6372
          22.8391
          22.8391
          22.8391
          22.8391
          22.5024
          22.1758
          21.8653
          21.5717
          21.2912
          21.0177
          21.0104
          21.164
          21.3084
          21.4363
          21.5446
          21.6331
          21.7039
          21.76
          21.8049
          21.8421
          21.8751
          21.9073
          21.9423
          21.9832
          22.0336
          22.0965
          22.1753
          22.2725
          22.3899
          22.5269
          22.6797
          22.8415
          22.8415
          22.8415
          22.8415
          22.528
          22.2176
          21.9121
          21.6115
          21.3144
          21.0191
          21.0122
          21.2122
          21.3946
          21.5515
          21.6787
          21.7781
          21.8542
          21.9119
          21.9558
          21.9904
          22.0196
          22.0476
          22.078
          22.1144
          22.1596
          22.2164
          22.2867
          22.372
          22.4725
          22.587
          22.7124
          22.8439
          22.8439
          22.8439
          22.8439
          22.5499
          22.2538
          21.9536
          21.6477
          21.3359
          21.0208
          21.0216
          21.2765
          21.5103
          21.698
          21.8414
          21.9465
          22.0227
          22.0774
          22.1162
          22.1439
          22.1654
          22.1852
          22.2077
          22.2365
          22.2742
          22.3226
          22.383
          22.4557
          22.5404
          22.6357
          22.7388
          22.8463
          22.8463
          22.8463
          22.8463
          22.5738
          22.2944
          22.0013
          21.6903
          21.3623
          21.0213
          21.0048
          21.3834
          21.6725
          21.8934
          22.042
          22.1431
          22.2122
          22.2585
          22.2876
          22.304
          22.3128
          22.3198
          22.3308
          22.3494
          22.3778
          22.4167
          22.4666
          22.5271
          22.5975
          22.6761
          22.7608
          22.8487
          22.8487
          22.8487
          22.8487
          22.605
          22.3492
          22.0684
          21.7535
          21.3999
          21.029
          21.1199
          21.5234
          21.9385
          22.1568
          22.2873
          22.3697
          22.4232
          22.4566
          22.4721
          22.4723
          22.4615
          22.4501
          22.4455
          22.4524
          22.4706
          22.4999
          22.5395
          22.5886
          22.646
          22.7103
          22.7795
          22.8511
          22.8511
          22.8511
          22.8511
          22.6479
          22.4287
          22.1739
          21.856
          21.476
          21.0107
          20.6854
          22.0329
          22.3501
          22.4959
          22.5749
          22.6226
          22.6526
          22.6704
          22.6761
          22.652
          22.6125
          22.5692
          22.5485
          22.5439
          22.5526
          22.5726
          22.6027
          22.6415
          22.6877
          22.7396
          22.7956
          22.8536
          22.8536
          22.8536
          22.8536
          22.7055
          22.5415
          22.3387
          22.0553
          21.5821
          21.1219
          22.8793
          22.8821
          22.8844
          22.8867
          22.889
          22.8911
          22.893
          22.8944
          22.8953
          22.8956
          22.7305
          22.669
          22.636
          22.6225
          22.6232
          22.6355
          22.6573
          22.6872
          22.7235
          22.7649
          22.8097
          22.8561
          22.8561
          22.8561
          22.856
          22.7771
          22.6879
          22.5725
          22.3942
          22.0494
          20.6929
          22.8802
          22.8821
          22.8844
          22.8867
          22.889
          22.8913
          22.8932
          22.8947
          22.8957
          22.896
          22.8076
          22.7422
          22.7057
          22.6874
          22.6827
          22.6889
          22.704
          22.7263
          22.7544
          22.7868
          22.8221
          22.8588
          22.8587
          22.8584
          22.8584
          22.858
          22.8562
          22.8541
          22.8519
          22.8497
          22.847
          22.8802
          22.8822
          22.8844
          22.8868
          22.8892
          22.8917
          22.8939
          22.8957
          22.8966
          22.8969
          22.8392
          22.7914
          22.7582
          22.7391
          22.7317
          22.7337
          22.7436
          22.7598
          22.781
          22.8059
          22.8333
          22.8617
          22.8615
          22.8609
          22.8599
          22.8583
          22.8564
          22.8542
          22.852
          22.8497
          22.8478
          22.8794
          22.8821
          22.8844
          22.8868
          22.8892
          22.8918
          22.8957
          22.8975
          22.8982
          22.8984
          22.8584
          22.8234
          22.7967
          22.7796
          22.7713
          22.7708
          22.7768
          22.7882
          22.8039
          22.8227
          22.8434
          22.8649
          22.8647
          22.8637
          22.8618
          22.8593
          22.8567
          22.8543
          22.852
          22.8498
          22.8478
          20.7014
          22.2948
          22.7957
          23.0269
          23.0834
          23.022
          22.8997
          22.8999
          22.9002
          22.9004
          22.8717
          22.846
          22.8254
          22.8111
          22.8033
          22.8015
          22.8048
          22.8126
          22.8237
          22.8375
          22.8528
          22.8687
          22.8684
          22.8676
          22.8651
          22.8597
          22.8569
          22.8544
          22.852
          22.8497
          22.847
          21.1614
          22.1139
          22.9403
          23.3368
          23.3987
          23.2152
          22.9024
          22.9025
          22.9026
          22.9026
          22.8819
          22.8631
          22.8475
          22.8361
          22.8293
          22.827
          22.8285
          22.8335
          22.8411
          22.8507
          22.8616
          22.8729
          22.8728
          22.8722
          22.8721
          23.1326
          23.3022
          23.2954
          23.0391
          22.4383
          20.7215
          21.0585
          22.4733
          23.4861
          23.9947
          23.9686
          23.5422
          22.905
          22.905
          22.905
          22.905
          22.8902
          22.8766
          22.8652
          22.8565
          22.8509
          22.8485
          22.8489
          22.8518
          22.8566
          22.8629
          22.87
          22.8775
          22.8774
          22.8773
          22.8773
          23.4989
          23.9292
          23.9904
          23.5397
          22.4926
          21.1645
          21.2163
          23.1605
          24.6493
          25.2203
          24.9576
          24.0832
          22.9075
          22.9075
          22.9074
          22.9074
          22.8974
          22.8881
          22.88
          22.8737
          22.8694
          22.8672
          22.8668
          22.8681
          22.8707
          22.8742
          22.8782
          22.8823
          22.8823
          22.8822
          22.8822
          24.0569
          24.9386
          25.2187
          24.6605
          23.1828
          21.1945
          20.9177
          24.7121
          26.7704
          27.3773
          26.5584
          24.9163
          22.91
          22.9099
          22.9099
          22.9099
          22.9039
          22.8982
          22.8931
          22.889
          22.8859
          22.884
          22.8832
          22.8833
          22.884
          22.8852
          22.8863
          22.8872
          22.8871
          22.887
          22.8871
          24.8969
          26.5454
          27.3725
          26.7733
          24.7144
          20.9231
          22.8499
          27.116
          31.017
          30.9111
          28.9343
          26.0672
          22.9124
          22.9123
          22.9123
          22.9124
          22.9102
          22.9078
          22.9053
          22.9031
          22.9012
          22.8997
          22.8986
          22.8978
          22.897
          22.8962
          22.8948
          22.8923
          22.8921
          22.8917
          22.8916
          26.0508
          28.9232
          30.9054
          31.0154
          27.1167
          22.8488
          15.6651
          36.5193
          38.4768
          36.2532
          31.9016
          27.4898
          22.9147
          22.9145
          22.9146
          22.9154
          22.917
          22.9174
          22.9174
          22.917
          22.9162
          22.9152
          22.9138
          22.9122
          22.9102
          22.9077
          22.9048
          22.8992
          22.8966
          22.8959
          22.8958
          27.4752
          31.8916
          36.2477
          38.4747
          36.5187
          15.6653
          52.3166
          52.3522
          52.3605
          41.2858
          35.1386
          29.1332
          22.9168
          22.9165
          22.9165
          22.9169
          22.9173
          22.9176
          22.9175
          22.9171
          22.9164
          22.9154
          22.914
          22.9123
          22.9104
          22.908
          22.9052
          22.9024
          22.9003
          22.8994
          22.8994
          29.12
          35.1297
          41.2811
          52.3605
          52.3522
          52.3165
          52.3398
          52.363
          52.3718
          45.26
          38.5242
          31.2611
          22.9187
          22.9183
          22.918
          22.918
          22.9181
          22.9182
          22.9181
          22.9176
          22.9169
          22.9158
          22.9145
          22.9128
          22.9109
          22.9087
          22.9064
          22.9042
          22.9027
          22.9021
          22.9022
          31.2494
          38.5168
          45.2563
          52.3718
          52.363
          52.3398
          52.3695
          52.3928
          52.4009
          47.5787
          42.4198
          36.117
          22.9211
          22.9195
          22.9191
          22.919
          22.919
          22.919
          22.9189
          22.9184
          22.9177
          22.9166
          22.9153
          22.9136
          22.9117
          22.9096
          22.9074
          22.9055
          22.9041
          22.9036
          22.9049
          36.108
          42.4143
          47.5761
          52.4009
          52.3928
          52.3695
          52.4107
          52.4388
          52.4481
          49.9957
          47.2097
          43.4122
          40.2694
          38.2229
          37.9914
          37.9898
          38.0156
          38.0418
          38.0638
          38.0799
          38.0895
          38.0923
          38.0883
          38.0775
          38.0602
          38.0371
          38.0099
          37.9831
          37.984
          38.2152
          40.2627
          43.4072
          47.2067
          49.9943
          52.4481
          52.4388
          52.4107
          52.4568
          52.4898
          52.5418
          52.6476
          52.7194
          52.7875
          52.8544
          52.921
          52.9874
          53.0526
          53.1144
          53.1695
          53.2149
          53.2481
          53.2683
          53.275
          53.2683
          53.2481
          53.2148
          53.1695
          53.1144
          53.0526
          52.9874
          52.921
          52.8544
          52.7875
          52.7194
          52.6475
          52.5418
          52.4898
          52.4568
          52.4991
          52.5358
          52.5875
          52.6514
          52.7213
          52.7885
          52.8552
          52.922
          52.9887
          53.0551
          53.1187
          53.1757
          53.2221
          53.2557
          53.276
          53.2828
          53.276
          53.2557
          53.2221
          53.1757
          53.1187
          53.055
          52.9887
          52.922
          52.8552
          52.7885
          52.7213
          52.6514
          52.5875
          52.5358
          52.4991
          52.5398
          52.5648
          52.6069
          52.6621
          52.7244
          52.7898
          52.856
          52.9228
          52.9903
          53.0588
          53.1296
          53.1938
          53.2425
          53.2768
          53.2973
          53.3041
          53.2973
          53.2768
          53.2425
          53.1938
          53.1296
          53.0588
          52.9902
          52.9228
          52.856
          52.7897
          52.7244
          52.6621
          52.6069
          52.5648
          52.5398
          52.561
          52.5747
          52.6135
          52.6658
          52.7261
          52.7903
          52.8563
          52.9232
          52.9909
          53.0606
          53.1367
          53.2062
          53.2561
          53.2907
          53.3113
          53.3182
          53.3113
          53.2907
          53.2561
          53.2062
          53.1367
          53.0606
          52.9909
          52.9232
          52.8563
          52.7903
          52.7261
          52.6658
          52.6135
          52.5747
          52.561
        </DataArray>
      </PointData>
      <CellData>
      </CellData>
      <Points>
        <DataArray type="Float32" NumberOfComponents="3" format="ascii">
          0.039 0.00195 0.0
          0.0377 0.00195 0.0
          0.0364 0.00195 0.0
          0.0351 0.00195 0.0
          0.0338 0.00195 0.0
          0.0325 0.00195 0.0
          0.0312 0.00195 0.0
          0.0299 0.00195 0.0
          0.0286 0.00195 0.0
          0.0273 0.00195 0.0
          0.026 0.00195 0.0
          0.0247 0.00195 0.0
          0.0234 0.00195 0.0
          0.0221 0.00195 0.0
          0.0208 0.00195 0.0
          0.0195 0.00195 0.0
          0.0182 0.00195 0.0
          0.0169 0.00195 0.0
          0.0156 0.00195 0.0
          0.0143 0.00195 0.0
          0.013 0.00195 0.0
          0.0117 0.00195 0.0
          0.0104 0.00195 0.0
          0.0091 0.00195 0.0
          0.0078 0.00195 0.0
          0.0065 0.00195 0.0
          0.0052 0.00195 0.0
          0.0039 0.00195 0.0
          0.0026 0.00195 0.0
          0.0013 0.00195 0.0
          0 0.00195 0.0
          0.039 0.00065 0.0
          0.0377 0.00065 0.0
          0.0364 0.00065 0.0
          0.0351 0.00065 0.0
          0.0338 0.00065 0.0
          0.0325 0.00065 0.0
          0.0312 0.00065 0.0
          0.0299 0.00065 0.0
          0.0286 0.00065 0.0
          0.0273 0.00065 0.0
          0.026 0.00065 0.0
          0.0247 0.00065 0.0
          0.0234 0.00065 0.0
          0.0221 0.00065 0.0
          0.0208 0.00065 0.0
          0.0195 0.00065 0.0
          0.0182 0.00065 0.0
          0.0169 0.00065 0.0
          0.0156 0.00065 0.0
          0.0143 0.00065 0.0
          0.013 0.00065 0.0
          0.0117 0.00065 0.0
          0.0104 0.00065 0.0
          0.0091 0.00065 0.0
          0.0078 0.00065 0.0
          0.0065 0.00065 0.0
          0.0052 0.00065 0.0
          0.0039 0.00065 0.0
          0.0026 0.00065 0.0
          0.0013 0.00065 0.0
          0 0.00065 0.0
          0.039 -0.00065 0.0
          0.0377 -0.00065 0.0
          0.0364 -0.00065 0.0
          0.0351 -0.00065 0.0
          0.0338 -0.00065 0.0
          0.0325 -0.00065 0.0
          0.0312 -0.00065 0.0
          0.0299 -0.00065 0.0
          0.0286 -0.00065 0.0
          0.0273 -0.00065 0.0
          0.026 -0.00065 0.0
          0.0247 -0.00065 0.0
          0.0234 -0.00065 0.0
          0.0221 -0.00065 0.0
          0.0208 -0.00065 0.0
          0.0195 -0.00065 0.0
          0.0182 -0.00065 0.0
          0.0169 -0.00065 0.0
          0.0156 -0.00065 0.0
          0.0143 -0.00065 0.0
          0.013 -0.00065 0.0
          0.0117 -0.00065 0.0
          0.0104 -0.00065 0.0
          0.0091 -0.00065 0.0
          0.0078 -0.00065 0.0
          0.0065 -0.00065 0.0
          0.0052 -0.00065 0.0
          0.0039 -0.00065 0.0
          0.0026 -0.00065 0.0
          0.0013 -0.00065 0.0
          0 -0.00065 0.0
          0.039 -0.00195 0.0
          0.0377 -0.00195 0.0
          0.0364 -0.00195 0.0
          0.0351 -0.00195 0.0
          0.0338 -0.00195 0.0
          0.0325 -0.00195 0.0
          0.0312 -0.00195 0.0
          0.0299 -0.00195 0.0
          0.0286 -0.00195 0.0
          0.0273 -0.00195 0.0
          0.026 -0.00195 0.0
          0.0247 -0.00195 0.0
          0.0234 -0.00195 0.0
          0.0221 -0.00195 0.0
          0.0208 -0.00195 0.0
          0.0195 -0.00195 0.0
          0.0182 -0.00195 0.0
          0.0169 -0.00195 0.0
          0.0156 -0.00195 0.0
          0.0143 -0.00195 0.0
          0.013 -0.00195 0.0
          0.0117 -0.00195 0.0
          0.0104 -0.00195 0.0
          0.0091 -0.00195 0.0
          0.0078 -0.00195 0.0
          0.0065 -0.00195 0.0
          0.0052 -0.00195 0.0
          0.0039 -0.00195 0.0
          0.0026 -0.00195 0.0
          0.0013 -0.00195 0.0
          0 -0.00195 0.0
          0.039 -0.00325 0.0
          0.0377 -0.00325 0.0
          0.0364 -0.00325 0.0
          0.0351 -0.00325 0.0
          0.0338 -0.00325 0.0
          0.0325 -0.00325 0.0
          0.0312 -0.00325 0.0
          0.0299 -0.00325 0.0
          0.0286 -0.00325 0.0
          0.0273 -0.00325 0.0
          0.026 -0.00325 0.0
          0.0247 -0.00325 0.0
          0.0234 -0.00325 0.0
          0.0221 -0.00325 0.0
          0.0208 -0.00325 0.0
          0.0195 -0.00325 0.0
          0.0182 -0.00325 0.0
          0.0169 -0.00325 0.0
          0.0156 -0.00325 0.0
          0.0143 -0.00325 0.0
          0.013 -0.00325 0.0
          0.0117 -0.00325 0.0
          0.0104 -0.00325 0.0
          0.0091 -0.00325 0.0
          0.0078 -0.00325 0.0
          0.0065 -0.00325 0.0
          0.0052 -0.00325 0.0
          0.0039 -0.00325 0.0
          0.0026 -0.00325 0.0
          0.0013 -0.00325 0.0
          0 -0.00325 0.0
          0.039 -0.00455 0.0
          0.0377 -0.00455 0.0
          0.0364 -0.00455 0.0
          0.0351 -0.00455 0.0
          0.0338 -0.00455 0.0
          0.0325 -0.00455 0.0
          0.0312 -0.00455 0.0
          0.0299 -0.00455 0.0
          0.0286 -0.00455 0.0
          0.0273 -0.00455 0.0
          0.026 -0.00455 0.0
          0.0247 -0.00455 0.0
          0.0234 -0.00455 0.0
          0.0221 -0.00455 0.0
          0.0208 -0.00455 0.0
          0.0195 -0.00455 0.0
          0.0182 -0.00455 0.0
          0.0169 -0.00455 0.0
          0.0156 -0.00455 0.0
          0.0143 -0.00455 0.0
          0.013 -0.00455 0.0
          0.0117 -0.00455 0.0
          0.0104 -0.00455 0.0
          0.0091 -0.00455 0.0
          0.0078 -0.00455 0.0
          0.0065 -0.00455 0.0
          0.0052 -0.00455 0.0
          0.0039 -0.00455 0.0
          0.0026 -0.00455 0.0
          0.0013 -0.00455 0.0
          0 -0.00455 0.0
          0.039 -0.00585 0.0
          0.0377 -0.00585 0.0
          0.0364 -0.00585 0.0
          0.0351 -0.00585 0.0
          0.0338 -0.00585 0.0
          0.0325 -0.00585 0.0
          0.0312 -0.00585 0.0
          0.0299 -0.00585 0.0
          0.0286 -0.00585 0.0
          0.0273 -0.00585 0.0
          0.026 -0.00585 0.0
          0.0247 -0.00585 0.0
          0.0234 -0.00585 0.0
          0.0221 -0.00585 0.0
          0.0208 -0.00585 0.0
          0.0195 -0.00585 0.0
          0.0182 -0.00585 0.0
          0.0169 -0.00585 0.0
          0.0156 -0.00585 0.0
          0.0143 -0.00585 0.0
          0.013 -0.00585 0.0
          0.0117 -0.00585 0.0
          0.0104 -0.00585 0.0
          0.0091 -0.00585 0.0
          0.0078 -0.00585 0.0
          0.0065 -0.00585 0.0
          0.0052 -0.00585 0.0
          0.0039 -0.00585 0.0
          0.0026 -0.00585 0.0
          0.0013 -0.00585 0.0
          0 -0.00585 0.0
          0.039 -0.00715 0.0
          0.0377 -0.00715 0.0
          0.0364 -0.00715 0.0
          0.0351 -0.00715 0.0
          0.0338 -0.00715 0.0
          0.0325 -0.00715 0.0
          0.0312 -0.00715 0.0
          0.0299 -0.00715 0.0
          0.0286 -0.00715 0.0
          0.0273 -0.00715 0.0
          0.026 -0.00715 0.0
          0.0247 -0.00715 0.0
          0.0234 -0.00715 0.0
          0.0221 -0.00715 0.0
          0.0208 -0.00715 0.0
          0.0195 -0.00715 0.0
          0.0182 -0.00715 0.0
          0.0169 -0.00715 0.0
          0.0156 -0.00715 0.0
          0.0143 -0.00715 0.0
          0.013 -0.00715 0.0
          0.0117 -0.00715 0.0
          0.0104 -0.00715 0.0
          0.0091 -0.00715 0.0
          0.0078 -0.00715 0.0
          0.0065 -0.00715 0.0
          0.0052 -0.00715 0.0
          0.0039 -0.00715 0.0
          0.0026 -0.00715 0.0
          0.0013 -0.00715 0.0
          0 -0.00715 0.0
          0.039 -0.00845 0.0
          0.0377 -0.00845 0.0
          0.0364 -0.00845 0.0
          0.0351 -0.00845 0.0
          0.0338 -0.00845 0.0
          0.0325 -0.00845 0.0
          0.0312 -0.00845 0.0
          0.0299 -0.00845 0.0
          0.0286 -0.00845 0.0
          0.0273 -0.00845 0.0
          0.026 -0.00845 0.0
          0.0247 -0.00845 0.0
          0.0234 -0.00845 0.0
          0.0221 -0.00845 0.0
          0.0208 -0.00845 0.0
          0.0195 -0.00845 0.0
          0.0182 -0.00845 0.0
          0.0169 -0.00845 0.0
          0.0156 -0.00845 0.0
          0.0143 -0.00845 0.0
          0.013 -0.00845 0.0
          0.0117 -0.00845 0.0
          0.0104 -0.00845 0.0
          0.0091 -0.00845 0.0
          0.0078 -0.00845 0.0
          0.0065 -0.00845 0.0
          0.0052 -0.00845 0.0
          0.0039 -0.00845 0.0
          0.0026 -0.00845 0.0
          0.0013 -0.00845 0.0
          0 -0.00845 0.0
          0.039 -0.00975 0.0
          0.0377 -0.00975 0.0
          0.0364 -0.00975 0.0
          0.0351 -0.00975 0.0
          0.0338 -0.00975 0.0
          0.0325 -0.00975 0.0
          0.0312 -0.00975 0.0
          0.0299 -0.00975 0.0
          0.0286 -0.00975 0.0
          0.0273 -0.00975 0.0
          0.026 -0.00975 0.0
          0.0247 -0.00975 0.0
          0.0234 -0.00975 0.0
          0.0221 -0.00975 0.0
          0.0208 -0.00975 0.0
          0.0195 -0.00975 0.0
          0.0182 -0.00975 0.0
          0.0169 -0.00975 0.0
          0.0156 -0.00975 0.0
          0.0143 -0.00975 0.0
          0.013 -0.00975 0.0
          0.0117 -0.00975 0.0
          0.0104 -0.00975 0.0
          0.0091 -0.00975 0.0
          0.0078 -0.00975 0.0
          0.0065 -0.00975 0.0
          0.0052 -0.00975 0.0
          0.0039 -0.00975 0.0
          0.0026 -0.00975 0.0
          0.0013 -0.00975 0.0
          0 -0.00975 0.0
          0.039 -0.01105 0.0
          0.0377 -0.01105 0.0
          0.0364 -0.01105 0.0
          0.0351 -0.01105 0.0
          0.0338 -0.01105 0.0
          0.0325 -0.01105 0.0
          0.0312 -0.01105 0.0
          0.0299 -0.01105 0.0
          0.0286 -0.01105 0.0
          0.0273 -0.01105 0.0
          0.026 -0.01105 0.0
          0.0247 -0.01105 0.0
          0.0234 -0.01105 0.0
          0.0221 -0.01105 0.0
          0.0208 -0.01105 0.0
          0.0195 -0.01105 0.0
          0.0182 -0.01105 0.0
          0.0169 -0.01105 0.0
          0.0156 -0.01105 0.0
          0.0143 -0.01105 0.0
          0.013 -0.01105 0.0
          0.0117 -0.01105 0.0
          0.0104 -0.01105 0.0
          0.0091 -0.01105 0.0
          0.0078 -0.01105 0.0
          0.0065 -0.01105 0.0
          0.0052 -0.01105 0.0
          0.0039 -0.01105 0.0
          0.0026 -0.01105 0.0
          0.0013 -0.01105 0.0
          0 -0.01105 0.0
          0.039 -0.01235 0.0
          0.0377 -0.01235 0.0
          0.0364 -0.01235 0.0
          0.0351 -0.01235 0.0
          0.0338 -0.01235 0.0
          0.0325 -0.01235 0.0
          0.0312 -0.01235 0.0
          0.0299 -0.01235 0.0
          0.0286 -0.01235 0.0
          0.0273 -0.01235 0.0
          0.026 -0.01235 0.0
          0.0247 -0.01235 0.0
          0.0234 -0.01235 0.0
          0.0221 -0.01235 0.0
          0.0208 -0.01235 0.0
          0.0195 -0.01235 0.0
          0.0182 -0.01235 0.0
          0.0169 -0.01235 0.0
          0.0156 -0.01235 0.0
          0.0143 -0.01235 0.0
          0.013 -0.01235 0.0
          0.0117 -0.01235 0.0
          0.0104 -0.01235 0.0
          0.0091 -0.01235 0.0
          0.0078 -0.01235 0.0
          0.0065 -0.01235 0.0
          0.0052 -0.01235 0.0
          0.0039 -0.01235 0.0
          0.0026 -0.01235 0.0
          0.0013 -0.01235 0.0
          0 -0.01235 0.0
          0.039 -0.01365 0.0
          0.0377 -0.01365 0.0
          0.0364 -0.01365 0.0
          0.0351 -0.01365 0.0
          0.0338 -0.01365 0.0
          0.0325 -0.01365 0.0
          0.0312 -0.01365 0.0
          0.0299 -0.01365 0.0
          0.0286 -0.01365 0.0
          0.0273 -0.01365 0.0
          0.026 -0.01365 0.0
          0.0247 -0.01365 0.0
          0.0234 -0.01365 0.0
          0.0221 -0.01365 0.0
          0.0208 -0.01365 0.0
          0.0195 -0.01365 0.0
          0.0182 -0.01365 0.0
          0.0169 -0.01365 0.0
          0.0156 -0.01365 0.0
          0.0143 -0.01365 0.0
          0.013 -0.01365 0.0
          0.0117 -0.01365 0.0
          0.0104 -0.01365 0.0
          0.0091 -0.01365 0.0
          0.0078 -0.01365 0.0
          0.0065 -0.01365 0.0
          0.0052 -0.01365 0.0
          0.0039 -0.01365 0.0
          0.0026 -0.01365 0.0
          0.0013 -0.01365 0.0
          0 -0.01365 0.0
          0.039 -0.01495 0.0
          0.0377 -0.01495 0.0
          0.0364 -0.01495 0.0
          0.0351 -0.01495 0.0
          0.0338 -0.01495 0.0
          0.0325 -0.01495 0.0
          0.0312 -0.01495 0.0
          0.0299 -0.01495 0.0
          0.0286 -0.01495 0.0
          0.0273 -0.01495 0.0
          0.026 -0.01495 0.0
          0.0247 -0.01495 0.0
          0.0234 -0.01495 0.0
          0.0221 -0.01495 0.0
          0.0208 -0.01495 0.0
          0.0195 -0.01495 0.0
          0.0182 -0.01495 0.0
          0.0169 -0.01495 0.0
          0.0156 -0.01495 0.0
          0.0143 -0.01495 0.0
          0.013 -0.01495 0.0
          0.0117 -0.01495 0.0
          0.0104 -0.01495 0.0
          0.0091 -0.01495 0.0
          0.0078 -0.01495 0.0
          0.0065 -0.01495 0.0
          0.0052 -0.01495 0.0
          0.0039 -0.01495 0.0
          0.0026 -0.01495 0.0
          0.0013 -0.01495 0.0
          0 -0.01495 0.0
          0.039 -0.01625 0.0
          0.0377 -0.01625 0.0
          0.0364 -0.01625 0.0
          0.0351 -0.01625 0.0
          0.0338 -0.01625 0.0
          0.0325 -0.01625 0.0
          0.0312 -0.01625 0.0
          0.0299 -0.01625 0.0
          0.0286 -0.01625 0.0
          0.0273 -0.01625 0.0
          0.026 -0.01625 0.0
          0.0247 -0.01625 0.0
          0.0234 -0.01625 0.0
          0.0221 -0.01625 0.0
          0.0208 -0.01625 0.0
          0.0195 -0.01625 0.0
          0.0182 -0.01625 0.0
          0.0169 -0.01625 0.0
          0.0156 -0.01625 0.0
          0.0143 -0.01625 0.0
          0.013 -0.01625 0.0
          0.0117 -0.01625 0.0
          0.0104 -0.01625 0.0
          0.0091 -0.01625 0.0
          0.0078 -0.01625 0.0
          0.0065 -0.01625 0.0
          0.0052 -0.01625 0.0
          0.0039 -0.01625 0.0
          0.0026 -0.01625 0.0
          0.0013 -0.01625 0.0
          0 -0.01625 0.0
          0.039 -0.01755 0.0
          0.0377 -0.01755 0.0
          0.0364 -0.01755 0.0
          0.0351 -0.01755 0.0
          0.0338 -0.01755 0.0
          0.0325 -0.01755 0.0
          0.0312 -0.01755 0.0
          0.0299 -0.01755 0.0
          0.0286 -0.01755 0.0
          0.0273 -0.01755 0.0
          0.026 -0.01755 0.0
          0.0247 -0.01755 0.0
          0.0234 -0.01755 0.0
          0.0221 -0.01755 0.0
          0.0208 -0.01755 0.0
          0.0195 -0.01755 0.0
          0.0182 -0.01755 0.0
          0.0169 -0.01755 0.0
          0.0156 -0.01755 0.0
          0.0143 -0.01755 0.0
          0.013 -0.01755 0.0
          0.0117 -0.01755 0.0
          0.0104 -0.01755 0.0
          0.0091 -0.01755 0.0
          0.0078 -0.01755 0.0
          0.0065 -0.01755 0.0
          0.0052 -0.01755 0.0
          0.0039 -0.01755 0.0
          0.0026 -0.01755 0.0
          0.0013 -0.01755 0.0
          0 -0.01755 0.0
          0.039 -0.01885 0.0
          0.0377 -0.01885 0.0
          0.0364 -0.01885 0.0
          0.0351 -0.01885 0.0
          0.0338 -0.01885 0.0
          0.0325 -0.01885 0.0
          0.0312 -0.01885 0.0
          0.0299 -0.01885 0.0
          0.0286 -0.01885 0.0
          0.0273 -0.01885 0.0
          0.026 -0.01885 0.0
          0.0247 -0.01885 0.0
          0.0234 -0.01885 0.0
          0.0221 -0.01885 0.0
          0.0208 -0.01885 0.0
          0.0195 -0.01885 0.0
          0.0182 -0.01885 0.0
          0.0169 -0.01885 0.0
          0.0156 -0.01885 0.0
          0.0143 -0.01885 0.0
          0.013 -0.01885 0.0
          0.0117 -0.01885 0.0
          0.0104 -0.01885 0.0
          0.0091 -0.01885 0.0
          0.0078 -0.01885 0.0
          0.0065 -0.01885 0.0
          0.0052 -0.01885 0.0
          0.0039 -0.01885 0.0
          0.0026 -0.01885 0.0
          0.0013 -0.01885 0.0
          0 -0.01885 0.0
          0.039 -0.02015 0.0
          0.0377 -0.02015 0.0
          0.0364 -0.02015 0.0
          0.0351 -0.02015 0.0
          0.0338 -0.02015 0.0
          0.0325 -0.02015 0.0
          0.0312 -0.02015 0.0
          0.0299 -0.02015 0.0
          0.0286 -0.02015 0.0
          0.0273 -0.02015 0.0
          0.026 -0.02015 0.0
          0.0247 -0.02015 0.0
          0.0234 -0.02015 0.0
          0.0221 -0.02015 0.0
          0.0208 -0.02015 0.0
          0.0195 -0.02015 0.0
          0.0182 -0.02015 0.0
          0.0169 -0.02015 0.0
          0.0156 -0.02015 0.0
          0.0143 -0.02015 0.0
          0.013 -0.02015 0.0
          0.0117 -0.02015 0.0
          0.0104 -0.02015 0.0
          0.0091 -0.02015 0.0
          0.0078 -0.02015 0.0
          0.0065 -0.02015 0.0
          0.0052 -0.02015 0.0
          0.0039 -0.02015 0.0
          0.0026 -0.02015 0.0
          0.0013 -0.02015 0.0
          0 -0.02015 0.0
          0.039 -0.02145 0.0
          0.0377 -0.02145 0.0
          0.0364 -0.02145 0.0
          0.0351 -0.02145 0.0
          0.0338 -0.02145 0.0
          0.0325 -0.02145 0.0
          0.0312 -0.02145 0.0
          0.0299 -0.02145 0.0
          0.0286 -0.02145 0.0
          0.0273 -0.02145 0.0
          0.026 -0.02145 0.0
          0.0247 -0.02145 0.0
          0.0234 -0.02145 0.0
          0.0221 -0.02145 0.0
          0.0208 -0.02145 0.0
          0.0195 -0.02145 0.0
          0.0182 -0.02145 0.0
          0.0169 -0.02145 0.0
          0.0156 -0.02145 0.0
          0.0143 -0.02145 0.0
          0.013 -0.02145 0.0
          0.0117 -0.02145 0.0
          0.0104 -0.02145 0.0
          0.0091 -0.02145 0.0
          0.0078 -0.02145 0.0
          0.0065 -0.02145 0.0
          0.0052 -0.02145 0.0
          0.0039 -0.02145 0.0
          0.0026 -0.02145 0.0
          0.0013 -0.02145 0.0
          0 -0.02145 0.0
          0.039 -0.02275 0.0
          0.0377 -0.02275 0.0
          0.0364 -0.02275 0.0
          0.0351 -0.02275 0.0
          0.0338 -0.02275 0.0
          0.0325 -0.02275 0.0
          0.0312 -0.02275 0.0
          0.0299 -0.02275 0.0
          0.0286 -0.02275 0.0
          0.0273 -0.02275 0.0
          0.026 -0.02275 0.0
          0.0247 -0.02275 0.0
          0.0234 -0.02275 0.0
          0.0221 -0.02275 0.0
          0.0208 -0.02275 0.0
          0.0195 -0.02275 0.0
          0.0182 -0.02275 0.0
          0.0169 -0.02275 0.0
          0.0156 -0.02275 0.0
          0.0143 -0.02275 0.0
          0.013 -0.02275 0.0
          0.0117 -0.02275 0.0
          0.0104 -0.02275 0.0
          0.0091 -0.02275 0.0
          0.0078 -0.02275 0.0
          0.0065 -0.02275 0.0
          0.0052 -0.02275 0.0
          0.0039 -0.02275 0.0
          0.0026 -0.02275 0.0
          0.0013 -0.02275 0.0
          0 -0.02275 0.0
          0.039 -0.02405 0.0
          0.0377 -0.02405 0.0
          0.0364 -0.02405 0.0
          0.0351 -0.02405 0.0
          0.0338 -0.02405 0.0
          0.0325 -0.02405 0.0
          0.0312 -0.02405 0.0
          0.0299 -0.02405 0.0
          0.0286 -0.02405 0.0
          0.0273 -0.02405 0.0
          0.026 -0.02405 0.0
          0.0247 -0.02405 0.0
          0.0234 -0.02405 0.0
          0.0221 -0.02405 0.0
          0.0208 -0.02405 0.0
          0.0195 -0.02405 0.0
          0.0182 -0.02405 0.0
          0.0169 -0.02405 0.0
          0.0156 -0.02405 0.0
          0.0143 -0.02405 0.0
          0.013 -0.02405 0.0
          0.0117 -0.02405 0.0
          0.0104 -0.02405 0.0
          0.0091 -0.02405 0.0
          0.0078 -0.02405 0.0
          0.0065 -0.02405 0.0
          0.0052 -0.02405 0.0
          0.0039 -0.02405 0.0
          0.0026 -0.02405 0.0
          0.0013 -0.02405 0.0
          0 -0.02405 0.0
          0.039 -0.02535 0.0
          0.0377 -0.02535 0.0
          0.0364 -0.02535 0.0
          0.0351 -0.02535 0.0
          0.0338 -0.02535 0.0
          0.0325 -0.02535 0.0
          0.0312 -0.02535 0.0
          0.0299 -0.02535 0.0
          0.0286 -0.02535 0.0
          0.0273 -0.02535 0.0
          0.026 -0.02535 0.0
          0.0247 -0.02535 0.0
          0.0234 -0.02535 0.0
          0.0221 -0.02535 0.0
          0.0208 -0.02535 0.0
          0.0195 -0.02535 0.0
          0.0182 -0.02535 0.0
          0.0169 -0.02535 0.0
          0.0156 -0.02535 0.0
          0.0143 -0.02535 0.0
          0.013 -0.02535 0.0
          0.0117 -0.02535 0.0
          0.0104 -0.02535 0.0
          0.0091 -0.02535 0.0
          0.0078 -0.02535 0.0
          0.0065 -0.02535 0.0
          0.0052 -0.02535 0.0
          0.0039 -0.02535 0.0
          0.0026 -0.02535 0.0
          0.0013 -0.02535 0.0
          0 -0.02535 0.0
          0.039 -0.02665 0.0
          0.0377 -0.02665 0.0
          0.0364 -0.02665 0.0
          0.0351 -0.02665 0.0
          0.0338 -0.02665 0.0
          0.0325 -0.02665 0.0
          0.0312 -0.02665 0.0
          0.0299 -0.02665 0.0
          0.0286 -0.02665 0.0
          0.0273 -0.02665 0.0
          0.026 -0.02665 0.0
          0.0247 -0.02665 0.0
          0.0234 -0.02665 0.0
          0.0221 -0.02665 0.0
          0.0208 -0.02665 0.0
          0.0195 -0.02665 0.0
          0.0182 -0.02665 0.0
          0.0169 -0.02665 0.0
          0.0156 -0.02665 0.0
          0.0143 -0.02665 0.0
          0.013 -0.02665 0.0
          0.0117 -0.02665 0.0
          0.0104 -0.02665 0.0
          0.0091 -0.02665 0.0
          0.0078 -0.02665 0.0
          0.0065 -0.02665 0.0
          0.0052 -0.02665 0.0
          0.0039 -0.02665 0.0
          0.0026 -0.02665 0.0
          0.0013 -0.02665 0.0
          0 -0.02665 0.0
          0.039 -0.02795 0.0
          0.0377 -0.02795 0.0
          0.0364 -0.02795 0.0
          0.0351 -0.02795 0.0
          0.0338 -0.02795 0.0
          0.0325 -0.02795 0.0
          0.0312 -0.02795 0.0
          0.0299 -0.02795 0.0
          0.0286 -0.02795 0.0
          0.0273 -0.02795 0.0
          0.026 -0.02795 0.0
          0.0247 -0.02795 0.0
          0.0234 -0.02795 0.0
          0.0221 -0.02795 0.0
          0.0208 -0.02795 0.0
          0.0195 -0.02795 0.0
          0.0182 -0.02795 0.0
          0.0169 -0.02795 0.0
          0.0156 -0.02795 0.0
          0.0143 -0.02795 0.0
          0.013 -0.02795 0.0
          0.0117 -0.02795 0.0
          0.0104 -0.02795 0.0
          0.0091 -0.02795 0.0
          0.0078 -0.02795 0.0
          0.0065 -0.02795 0.0
          0.0052 -0.02795 0.0
          0.0039 -0.02795 0.0
          0.0026 -0.02795 0.0
          0.0013 -0.02795 0.0
          0 -0.02795 0.0
          0.039 -0.02925 0.0
          0.0377 -0.02925 0.0
          0.0364 -0.02925 0.0
          0.0351 -0.02925 0.0
          0.0338 -0.02925 0.0
          0.0325 -0.02925 0.0
          0.0312 -0.02925 0.0
          0.0299 -0.02925 0.0
          0.0286 -0.02925 0.0
          0.0273 -0.02925 0.0
          0.026 -0.02925 0.0
          0.0247 -0.02925 0.0
          0.0234 -0.02925 0.0
          0.0221 -0.02925 0.0
          0.0208 -0.02925 0.0
          0.0195 -0.02925 0.0
          0.0182 -0.02925 0.0
          0.0169 -0.02925 0.0
          0.0156 -0.02925 0.0
          0.0143 -0.02925 0.0
          0.013 -0.02925 0.0
          0.0117 -0.02925 0.0
          0.0104 -0.02925 0.0
          0.0091 -0.02925 0.0
          0.0078 -0.02925 0.0
          0.0065 -0.02925 0.0
          0.0052 -0.02925 0.0
          0.0039 -0.02925 0.0
          0.0026 -0.02925 0.0
          0.0013 -0.02925 0.0
          0 -0.02925 0.0
          0.039 -0.03055 0.0
          0.0377 -0.03055 0.0
          0.0364 -0.03055 0.0
          0.0351 -0.03055 0.0
          0.0338 -0.03055 0.0
          0.0325 -0.03055 0.0
          0.0312 -0.03055 0.0
          0.0299 -0.03055 0.0
          0.0286 -0.03055 0.0
          0.0273 -0.03055 0.0
          0.026 -0.03055 0.0
          0.0247 -0.03055 0.0
          0.0234 -0.03055 0.0
          0.0221 -0.03055 0.0
          0.0208 -0.03055 0.0
          0.0195 -0.03055 0.0
          0.0182 -0.03055 0.0
          0.0169 -0.03055 0.0
          0.0156 -0.03055 0.0
          0.0143 -0.03055 0.0
          0.013 -0.03055 0.0
          0.0117 -0.03055 0.0
          0.0104 -0.03055 0.0
          0.0091 -0.03055 0.0
          0.0078 -0.03055 0.0
          0.0065 -0.03055 0.0
          0.0052 -0.03055 0.0
          0.0039 -0.03055 0.0
          0.0026 -0.03055 0.0
          0.0013 -0.03055 0.0
          0 -0.03055 0.0
          0.039 -0.03185 0.0
          0.0377 -0.03185 0.0
          0.0364 -0.03185 0.0
          0.0351 -0.03185 0.0
          0.0338 -0.03185 0.0
          0.0325 -0.03185 0.0
          0.0312 -0.03185 0.0
          0.0299 -0.03185 0.0
          0.0286 -0.03185 0.0
          0.0273 -0.03185 0.0
          0.026 -0.03185 0.0
          0.0247 -0.03185 0.0
          0.0234 -0.03185 0.0
          0.0221 -0.03185 0.0
          0.0208 -0.03185 0.0
          0.0195 -0.03185 0.0
          0.0182 -0.03185 0.0
          0.0169 -0.03185 0.0
          0.0156 -0.03185 0.0
          0.0143 -0.03185 0.0
          0.013 -0.03185 0.0
          0.0117 -0.03185 0.0
          0.0104 -0.03185 0.0
          0.0091 -0.03185 0.0
          0.0078 -0.03185 0.0
          0.0065 -0.03185 0.0
          0.0052 -0.03185 0.0
          0.0039 -0.03185 0.0
          0.0026 -0.03185 0.0
          0.0013 -0.03185 0.0
          0 -0.03185 0.0
          0.039 -0.03315 0.0
          0.0377 -0.03315 0.0
          0.0364 -0.03315 0.0
          0.0351 -0.03315 0.0
          0.0338 -0.03315 0.0
          0.0325 -0.03315 0.0
          0.0312 -0.03315 0.0
          0.0299 -0.03315 0.0
          0.0286 -0.03315 0.0
          0.0273 -0.03315 0.0
          0.026 -0.03315 0.0
          0.0247 -0.03315 0.0
          0.0234 -0.03315 0.0
          0.0221 -0.03315 0.0
          0.0208 -0.03315 0.0
          0.0195 -0.03315 0.0
          0.0182 -0.03315 0.0
          0.0169 -0.03315 0.0
          0.0156 -0.03315 0.0
          0.0143 -0.03315 0.0
          0.013 -0.03315 0.0
          0.0117 -0.03315 0.0
          0.0104 -0.03315 0.0
          0.0091 -0.03315 0.0
          0.0078 -0.03315 0.0
          0.0065 -0.03315 0.0
          0.0052 -0.03315 0.0
          0.0039 -0.03315 0.0
          0.0026 -0.03315 0.0
          0.0013 -0.03315 0.0
          0 -0.03315 0.0
          0.039 -0.03445 0.0
          0.0377 -0.03445 0.0
          0.0364 -0.03445 0.0
          0.0351 -0.03445 0.0
          0.0338 -0.03445 0.0
          0.0325 -0.03445 0.0
          0.0312 -0.03445 0.0
          0.0299 -0.03445 0.0
          0.0286 -0.03445 0.0
          0.0273 -0.03445 0.0
          0.026 -0.03445 0.0
          0.0247 -0.03445 0.0
          0.0234 -0.03445 0.0
          0.0221 -0.03445 0.0
          0.0208 -0.03445 0.0
          0.0195 -0.03445 0.0
          0.0182 -0.03445 0.0
          0.0169 -0.03445 0.0
          0.0156 -0.03445 0.0
          0.0143 -0.03445 0.0
          0.013 -0.03445 0.0
          0.0117 -0.03445 0.0
          0.0104 -0.03445 0.0
          0.0091 -0.03445 0.0
          0.0078 -0.03445 0.0
          0.0065 -0.03445 0.0
          0.0052 -0.03445 0.0
          0.0039 -0.03445 0.0
          0.0026 -0.03445 0.0
          0.0013 -0.03445 0.0
          0 -0.03445 0.0
          0.039 -0.03575 0.0
          0.0377 -0.03575 0.0
          0.0364 -0.03575 0.0
          0.0351 -0.03575 0.0
          0.0338 -0.03575 0.0
          0.0325 -0.03575 0.0
          0.0312 -0.03575 0.0
          0.0299 -0.03575 0.0
          0.0286 -0.03575 0.0
          0.0273 -0.03575 0.0
          0.026 -0.03575 0.0
          0.0247 -0.03575 0.0
          0.0234 -0.03575 0.0
          0.0221 -0.03575 0.0
          0.0208 -0.03575 0.0
          0.0195 -0.03575 0.0
          0.0182 -0.03575 0.0
          0.0169 -0.03575 0.0
          0.0156 -0.03575 0.0
          0.0143 -0.03575 0.0
          0.013 -0.03575 0.0
          0.0117 -0.03575 0.0
          0.0104 -0.03575 0.0
          0.0091 -0.03575 0.0
          0.0078 -0.03575 0.0
          0.0065 -0.03575 0.0
          0.0052 -0.03575 0.0
          0.0039 -0.03575 0.0
          0.0026 -0.03575 0.0
          0.0013 -0.03575 0.0
          0 -0.03575 0.0
          0.039 -0.03705 0.0
          0.0377 -0.03705 0.0
          0.0364 -0.03705 0.0
          0.0351 -0.03705 0.0
          0.0338 -0.03705 0.0
          0.0325 -0.03705 0.0
          0.0312 -0.03705 0.0
          0.0299 -0.03705 0.0
          0.0286 -0.03705 0.0
          0.0273 -0.03705 0.0
          0.026 -0.03705 0.0
          0.0247 -0.03705 0.0
          0.0234 -0.03705 0.0
          0.0221 -0.03705 0.0
          0.0208 -0.03705 0.0
          0.0195 -0.03705 0.0
          0.0182 -0.03705 0.0
          0.0169 -0.03705 0.0
          0.0156 -0.03705 0.0
          0.0143 -0.03705 0.0
          0.013 -0.03705 0.0
          0.0117 -0.03705 0.0
          0.0104 -0.03705 0.0
          0.0091 -0.03705 0.0
          0.0078 -0.03705 0.0
          0.0065 -0.03705 0.0
          0.0052 -0.03705 0.0
          0.0039 -0.03705 0.0
          0.0026 -0.03705 0.0
          0.0013 -0.03705 0.0
          0 -0.03705 0.0
        </DataArray>
      </Points>
      <Cells>
        <DataArray type="Int32" Name="connectivity" format="ascii">
          0 1 32 31 
          1 2 33 32 
          2 3 34 33 
          3 4 35 34 
          4 5 36 35 
          5 6 37 36 
          6 7 38 37 
          7 8 39 38 
          8 9 40 39 
          9 10 41 40 
          10 11 42 41 
          11 12 43 42 
          12 13 44 43 
          13 14 45 44 
          14 15 46 45 
          15 16 47 46 
          16 17 48 47 
          17 18 49 48 
          18 19 50 49 
          19 20 51 50 
          20 21 52 51 
          21 22 53 52 
          22 23 54 53 
          23 24 55 54 
          24 25 56 55 
          25 26 57 56 
          26 27 58 57 
          27 28 59 58 
          28 29 60 59 
          29 30 61 60 
          31 32 63 62 
          32 33 64 63 
          33 34 65 64 
          34 35 66 65 
          35 36 67 66 
          36 37 68 67 
          37 38 69 68 
          38 39 70 69 
          39 40 71 70 
          40 41 72 71 
          41 42 73 72 
          42 43 74 73 
          43 44 75 74 
          44 45 76 75 
          45 46 77 76 
          46 47 78 77 
          47 48 79 78 
          48 49 80 79 
          49 50 81 80 
          50 51 82 81 
          51 52 83 82 
          52 53 84 83 
          53 54 85 84 
          54 55 86 85 
          55 56 87 86 
          56 57 88 87 
          57 58 89 88 
          58 59 90 89 
          59 60 91 90 
          60 61 92 91 
          62 63 94 93 
          63 64 95 94 
          64 65 96 95 
          65 66 97 96 
          66 67 98 97 
          67 68 99 98 
          68 69 100 99 
          69 70 101 100 
          70 71 102 101 
          71 72 103 102 
          72 73 104 103 
          73 74 105 104 
          74 75 106 105 
          75 76 107 106 
          76 77 108 107 
          77 78 109 108 
          78 79 110 109 
          79 80 111 110 
          80 81 112 111 
          81 82 113 112 
          82 83 114 113 
          83 84 115 114 
          84 85 116 115 
          85 86 117 116 
          86 87 118 117 
          87 88 119 118 
          88 89 120 119 
          89 90 121 120 
          90 91 122 121 
          91 92 123 122 
          93 94 125 124 
          94 95 126 125 
          95 96 127 126 
          96 97 128 127 
          97 98 129 128 
          98 99 130 129 
          99 100 131 130 
          100 101 132 131 
          101 102 133 132 
          102 103 134 133 
          103 104 135 134 
          104 105 136 135 
          105 106 137 136 
          106 107 138 137 
          107 108 139 138 
          108 109 140 139 
          109 110 141 140 
          110 111 142 141 
          111 112 143 142 
          112 113 144 143 
          113 114 145 144 
          114 115 146 145 
          115 116 147 146 
          116 117 148 147 
          117 118 149 148 
          118 119 150 149 
          119 120 151 150 
          120 121 152 151 
          121 122 153 152 
          122 123 154 153 
          124 125 156 155 
          125 126 157 156 
          126 127 158 157 
          127 128 159 158 
          128 129 160 159 
          129 130 161 160 
          130 131 162 161 
          131 132 163 162 
          132 133 164 163 
          133 134 165 164 
          134 135 166 165 
          135 136 167 166 
          136 137 168 167 
          137 138 169 168 
          138 139 170 169 
          139 140 171 170 
          140 141 172 171 
          141 142 173 172 
          142 143 174 173 
          143 144 175 174 
          144 145 176 175 
          145 146 177 176 
          146 147 178 177 
          147 148 179 178 
          148 149 180 179 
          149 150 181 180 
          150 151 182 181 
          151 152 183 182 
          152 153 184 183 
          153 154 185 184 
          155 156 187 186 
          156 157 188 187 
          157 158 189 188 
          158 159 190 189 
          159 160 191 190 
          160 161 192 191 
          161 162 193 192 
          162 163 194 193 
          163 164 195 194 
          164 165 196 195 
          165 166 197 196 
          166 167 198 197 
          167 168 199 198 
          168 169 200 199 
          169 170 201 200 
          170 171 202 201 
          171 172 203 202 
          172 173 204 203 
          173 174 205 204 
          174 175 206 205 
          175 176 207 206 
          176 177 208 207 
          177 178 209 208 
          178 179 210 209 
          179 180 211 210 
          180 181 212 211 
          181 182 213 212 
          182 183 214 213 
          183 184 215 214 
          184 185 216 215 
          186 187 218 217 
          187 188 219 218 
          188 189 220 219 
          189 190 221 220 
          190 191 222 221 
          191 192 223 222 
          192 193 224 223 
          193 194 225 224 
          194 195 226 225 
          195 196 227 226 
          196 197 228 227 
          197 198 229 228 
          198 199 230 229 
          199 200 231 230 
          200 201 232 231 
          201 202 233 232 
          202 203 234 233 
          203 204 235 234 
          204 205 236 235 
          205 206 237 236 
          206 207 238 237 
          207 208 239 238 
          208 209 240 239 
          209 210 241 240 
          210 211 242 241 
          211 212 243 242 
          212 213 244 243 
          213 214 245 244 
          214 215 246 245 
          215 216 247 246 
          217 218 249 248 
          218 219 250 249 
          219 220 251 250 
          220 221 252 251 
          221 222 253 252 
          222 223 254 253 
          223 224 255 254 
          224 225 256 255 
          225 226 257 256 
          226 227 258 257 
          227 228 259 258 
          228 229 260 259 
          229 230 261 260 
          230 231 262 261 
          231 232 263 262 
          232 233 264 263 
          233 234 265 264 
          234 235 266 265 
          235 236 267 266 
          236 237 268 267 
          237 238 269 268 
          238 239 270 269 
          239 240 271 270 
          240 241 272 271 
          241 242 273 272 
          242 243 274 273 
          243 244 275 274 
          244 245 276 275 
          245 246 277 276 
          246 247 278 277 
          248 249 280 279 
          249 250 281 280 
          250 251 282 281 
          251 252 283 282 
          252 253 284 283 
          253 254 285 284 
          254 255 286 285 
          255 256 287 286 
          256 257 288 287 
          257 258 289 288 
          258 259 290 289 
          259 260 291 290 
          260 261 292 291 
          261 262 293 292 
          262 263 294 293 
          263 264 295 294 
          264 265 296 295 
          265 266 297 296 
          266 267 298 297 
          267 268 299 298 
          268 269 300 299 
          269 270 301 300 
          270 271 302 301 
          271 272 303 302 
          272 273 304 303 
          273 274 305 304 
          274 275 306 305 
          275 276 307 306 
          276 277 308 307 
          277 278 309 308 
          279 280 311 310 
          280 281 312 311 
          281 282 313 312 
          282 283 314 313 
          283 284 315 314 
          284 285 316 315 
          285 286 317 316 
          286 287 318 317 
          287 288 319 318 
          288 289 320 319 
          289 290 321 320 
          290 291 322 321 
          291 292 323 322 
          292 293 324 323 
          293 294 325 324 
          294 295 326 325 
          295 296 327 326 
          296 297 328 327 
          297 298 329 328 
          298 299 330 329 
          299 300 331 330 
          300 301 332 331 
          301 302 333 332 
          302 303 334 333 
          303 304 335 334 
          304 305 336 335 
          305 306 337 336 
          306 307 338 337 
          307 308 339 338 
          308 309 340 339 
          310 311 342 341 
          311 312 343 342 
          312 313 344 343 
          313 314 345 344 
          314 315 346 345 
          315 316 347 346 
          316 317 348 347 
          317 318 349 348 
          318 319 350 349 
          319 320 351 350 
          320 321 352 351 
          321 322 353 352 
          322 323 354 353 
          323 324 355 354 
          324 325 356 355 
          325 326 357 356 
          326 327 358 357 
          327 328 359 358 
          328 329 360 359 
          329 330 361 360 
          330 331 362 361 
          331 332 363 362 
          332 333 364 363 
          333 334 365 364 
          334 335 366 365 
          335 336 367 366 
          336 337 368 367 
          337 338 369 368 
          338 339 370 369 
          339 340 371 370 
          341 342 373 372 
          342 343 374 373 
          343 344 375 374 
          344 345 376 375 
          345 346 377 376 
          346 347 378 377 
          347 348 379 378 
          348 349 380 379 
          349 350 381 380 
          350 351 382 381 
          351 352 383 382 
          352 353 384 383 
          353 354 385 384 
          354 355 386 385 
          355 356 387 386 
          356 357 388 387 
          357 358 389 388 
          358 359 390 389 
          359 360 391 390 
          360 361 392 391 
          361 362 393 392 
          362 363 394 393 
          363 364 395 394 
          364 365 396 395 
          365 366 397 396 
          366 367 398 397 
          367 368 399 398 
          368 369 400 399 
          369 370 401 400 
          370 371 402 401 
          372 373 404 403 
          373 374 405 404 
          374 375 406 405 
          375 376 407 406 
          376 377 408 407 
          377 378 409 408 
          378 379 410 409 
          379 380 411 410 
          380 381 412 411 
          381 382 413 412 
          382 383 414 413 
          383 384 415 414 
          384 385 416 415 
          385 386 417 416 
          386 387 418 417 
          387 388 419 418 
          388 389 420 419 
          389 390 421 420 
          390 391 422 421 
          391 392 423 422 
          392 393 424 423 
          393 394 425 424 
          394 395 426 425 
          395 396 427 426 
          396 397 428 427 
          397 398 429 428 
          398 399 430 429 
          399 400 431 430 
          400 401 432 431 
          401 402 433 432 
          403 404 435 434 
          404 405 436 435 
          405 406 437 436 
          406 407 438 437 
          407 408 439 438 
          408 409 440 439 
          409 410 441 440 
          410 411 442 441 
          411 412 443 442 
          412 413 444 443 
          413 414 445 444 
          414 415 446 445 
          415 416 447 446 
          416 417 448 447 
          417 418 449 448 
          418 419 450 449 
          419 420 451 450 
          420 421 452 451 
          421 422 453 452 
          422 423 454 453 
          423 424 455 454 
          424 425 456 455 
          425 426 457 456 
          426 427 458 457 
          427 428 459 458 
          428 429 460 459 
          429 430 461 460 
          430 431 462 461 
          431 432 463 462 
          432 433 464 463 
          434 435 466 465 
          435 436 467 466 
          436 437 468 467 
          437 438 469 468 
          438 439 470 469 
          439 440 471 470 
          440 441 472 471 
          441 442 473 472 
          442 443 474 473 
          443 444 475 474 
          444 445 476 475 
          445 446 477 476 
          446 447 478 477 
          447 448 479 478 
          448 449 480 479 
          449 450 481 480 
          450 451 482 481 
          451 452 483 482 
          452 453 484 483 
          453 454 485 484 
          454 455 486 485 
          455 456 487 486 
          456 457 488 487 
          457 458 489 488 
          458 459 490 489 
          459 460 491 490 
          460 461 492 491 
          461 462 493 492 
          462 463 494 493 
          463 464 495 494 
          465 466 497 496 
          466 467 498 497 
          467 468 499 498 
          468 469 500 499 
          469 470 501 500 
          470 471 502 501 
          471 472 503 502 
          472 473 504 503 
          473 474 505 504 
          474 475 506 505 
          475 476 507 506 
          476 477 508 507 
          477 478 509 508 
          478 479 510 509 
          479 480 511 510 
          480 481 512 511 
          481 482 513 512 
          482 483 514 513 
          483 484 515 514 
          484 485 516 515 
          485 486 517 516 
          486 487 518 517 
          487 488 519 518 
          488 489 520 519 
          489 490 521 520 
          490 491 522 521 
          491 492 523 522 
          492 493 524 523 
          493 494 525 524 
          494 495 526 525 
          496 497 528 527 
          497 498 529 528 
          498 499 530 529 
          499 500 531 530 
          500 501 532 531 
          501 502 533 532 
          502 503 534 533 
          503 504 535 534 
          504 505 536 535 
          505 506 537 536 
          506 507 538 537 
          507 508 539 538 
          508 509 540 539 
          509 510 541 540 
          510 511 542 541 
          511 512 543 542 
          512 513 544 543 
          513 514 545 544 
          514 515 546 545 
          515 516 547 546 
          516 517 548 547 
          517 518 549 548 
          518 519 550 549 
          519 520 551 550 
          520 521 552 551 
          521 522 553 552 
          522 523 554 553 
          523 524 555 554 
          524 525 556 555 
          525 526 557 556 
          527 528 559 558 
          528 529 560 559 
          529 530 561 560 
          530 531 562 561 
          531 532 563 562 
          532 533 564 563 
          533 534 565 564 
          534 535 566 565 
          535 536 567 566 
          536 537 568 567 
          537 538 569 568 
          538 539 570 569 
          539 540 571 570 
          540 541 572 571 
          541 542 573 572 
          542 543 574 573 
          543 544 575 574 
          544 545 576 575 
          545 546 577 576 
          546 547 578 577 
          547 548 579 578 
          548 549 580 579 
          549 550 581 580 
          550 551 582 581 
          551 552 583 582 
          552 553 584 583 
          553 554 585 584 
          554 555 586 585 
          555 556 587 586 
          556 557 588 587 
          558 559 590 589 
          559 560 591 590 
          560 561 592 591 
          561 562 593 592 
          562 563 594 593 
          563 564 595 594 
          564 565 596 595 
          565 566 597 596 
          566 567 598 597 
          567 568 599 598 
          568 569 600 599 
          569 570 601 600 
          570 571 602 601 
          571 572 603 602 
          572 573 604 603 
          573 574 605 604 
          574 575 606 605 
          575 576 607 606 
          576 577 608 607 
          577 578 609 608 
          578 579 610 609 
          579 580 611 610 
          580 581 612 611 
          581 582 613 612 
          582 583 614 613 
          583 584 615 614 
          584 585 616 615 
          585 586 617 616 
          586 587 618 617 
          587 588 619 618 
          589 590 621 620 
          590 591 622 621 
          591 592 623 622 
          592 593 624 623 
          593 594 625 624 
          594 595 626 625 
          595 596 627 626 
          596 597 628 627 
          597 598 629 628 
          598 599 630 629 
          599 600 631 630 
          600 601 632 631 
          601 602 633 632 
          602 603 634 633 
          603 604 635 634 
          604 605 636 635 
          605 606 637 636 
          606 607 638 637 
          607 608 639 638 
          608 609 640 639 
          609 610 641 640 
          610 611 642 641 
          611 612 643 642 
          612 613 644 643 
          613 614 645 644 
          614 615 646 645 
          615 616 647 646 
          616 617 648 647 
          617 618 649 648 
          618 619 650 649 
          620 621 652 651 
          621 622 653 652 
          622 623 654 653 
          623 624 655 654 
          624 625 656 655 
          625 626 657 656 
          626 627 658 657 
          627 628 659 658 
          628 629 660 659 
          629 630 661 660 
          630 631 662 661 
          631 632 663 662 
          632 633 664 663 
          633 634 665 664 
          634 635 666 665 
          635 636 667 666 
          636 637 668 667 
          637 638 669 668 
          638 639 670 669 
          639 640 671 670 
          640 641 672 671 
          641 642 673 672 
          642 643 674 673 
          643 644 675 674 
          644 645 676 675 
          645 646 677 676 
          646 647 678 677 
          647 648 679 678 
          648 649 680 679 
          649 650 681 680 
          651 652 683 682 
          652 653 684 683 
          653 654 685 684 
          654 655 686 685 
          655 656 687 686 
          656 657 688 687 
          657 658 689 688 
          658 659 690 689 
          659 660 691 690 
          660 661 692 691 
          661 662 693 692 
          662 663 694 693 
          663 664 695 694 
          664 665 696 695 
          665 666 697 696 
          666 667 698 697 
          667 668 699 698 
          668 669 700 699 
          669 670 701 700 
          670 671 702 701 
          671 672 703 702 
          672 673 704 703 
          673 674 705 704 
          674 675 706 705 
          675 676 707 706 
          676 677 708 707 
          677 678 709 708 
          678 679 710 709 
          679 680 711 710 
          680 681 712 711 
          682 683 714 713 
          683 684 715 714 
          684 685 716 715 
          685 686 717 716 
          686 687 718 717 
          687 688 719 718 
          688 689 720 719 
          689 690 721 720 
          690 691 722 721 
          691 692 723 722 
          692 693 724 723 
          693 694 725 724 
          694 695 726 725 
          695 696 727 726 
          696 697 728 727 
          697 698 729 728 
          698 699 730 729 
          699 700 731 730 
          700 701 732 731 
          701 702 733 732 
          702 703 734 733 
          703 704 735 734 
          704 705 736 735 
          705 706 737 736 
          706 707 738 737 
          707 708 739 738 
          708 709 740 739 
          709 710 741 740 
          710 711 742 741 
          711 712 743 742 
          713 714 745 744 
          714 715 746 745 
          715 716 747 746 
          716 717 748 747 
          717 718 749 748 
          718 719 750 749 
          719 720 751 750 
          720 721 752 751 
          721 722 753 752 
          722 723 754 753 
          723 724 755 754 
          724 725 756 755 
          725 726 757 756 
          726 727 758 757 
          727 728 759 758 
          728 729 760 759 
          729 730 761 760 
          730 731 762 761 
          731 732 763 762 
          732 733 764 763 
          733 734 765 764 
          734 735 766 765 
          735 736 767 766 
          736 737 768 767 
          737 738 769 768 
          738 739 770 769 
          739 740 771 770 
          740 741 772 771 
          741 742 773 772 
          742 743 774 773 
          744 745 776 775 
          745 746 777 776 
          746 747 778 777 
          747 748 779 778 
          748 749 780 779 
          749 750 781 780 
          750 751 782 781 
          751 752 783 782 
          752 753 784 783 
          753 754 785 784 
          754 755 786 785 
          755 756 787 786 
          756 757 788 787 
          757 758 789 788 
          758 759 790 789 
          759 760 791 790 
          760 761 792 791 
          761 762 793 792 
          762 763 794 793 
          763 764 795 794 
          764 765 796 795 
          765 766 797 796 
          766 767 798 797 
          767 768 799 798 
          768 769 800 799 
          769 770 801 800 
          770 771 802 801 
          771 772 803 802 
          772 773 804 803 
          773 774 805 804 
          775 776 807 806 
          776 777 808 807 
          777 778 809 808 
          778 779 810 809 
          779 780 811 810 
          780 781 812 811 
          781 782 813 812 
          782 783 814 813 
          783 784 815 814 
          784 785 816 815 
          785 786 817 816 
          786 787 818 817 
          787 788 819 818 
          788 789 820 819 
          789 790 821 820 
          790 791 822 821 
          791 792 823 822 
          792 793 824 823 
          793 794 825 824 
          794 795 826 825 
          795 796 827 826 
          796 797 828 827 
          797 798 829 828 
          798 799 830 829 
          799 800 831 830 
          800 801 832 831 
          801 802 833 832 
          802 803 834 833 
          803 804 835 834 
          804 805 836 835 
          806 807 838 837 
          807 808 839 838 
          808 809 840 839 
          809 810 841 840 
          810 811 842 841 
          811 812 843 842 
          812 813 844 843 
          813 814 845 844 
          814 815 846 845 
          815 816 847 846 
          816 817 848 847 
          817 818 849 848 
          818 819 850 849 
          819 820 851 850 
          820 821 852 851 
          821 822 853 852 
          822 823 854 853 
          823 824 855 854 
          824 825 856 855 
          825 826 857 856 
          826 827 858 857 
          827 828 859 858 
          828 829 860 859 
          829 830 861 860 
          830 831 862 861 
          831 832 863 862 
          832 833 864 863 
          833 834 865 864 
          834 835 866 865 
          835 836 867 866 
          837 838 869 868 
          838 839 870 869 
          839 840 871 870 
          840 841 872 871 
          841 842 873 872 
          842 843 874 873 
          843 844 875 874 
          844 845 876 875 
          845 846 877 876 
          846 847 878 877 
          847 848 879 878 
          848 849 880 879 
          849 850 881 880 
          850 851 882 881 
          851 852 883 882 
          852 853 884 883 
          853 854 885 884 
          854 855 886 885 
          855 856 887 886 
          856 857 888 887 
          857 858 889 888 
          858 859 890 889 
          859 860 891 890 
          860 861 892 891 
          861 862 893 892 
          862 863 894 893 
          863 864 895 894 
          864 865 896 895 
          865 866 897 896 
          866 867 898 897 
          868 869 900 899 
          869 870 901 900 
          870 871 902 901 
          871 872 903 902 
          872 873 904 903 
          873 874 905 904 
          874 875 906 905 
          875 876 907 906 
          876 877 908 907 
          877 878 909 908 
          878 879 910 909 
          879 880 911 910 
          880 881 912 911 
          881 882 913 912 
          882 883 914 913 
          883 884 915 914 
          884 885 916 915 
          885 886 917 916 
          886 887 918 917 
          887 888 919 918 
          888 889 920 919 
          889 890 921 920 
          890 891 922 921 
          891 892 923 922 
          892 893 924 923 
          893 894 925 924 
          894 895 926 925 
          895 896 927 926 
          896 897 928 927 
          897 898 929 928 
          899 900 931 930 
          900 901 932 931 
          901 902 933 932 
          902 903 934 933 
          903 904 935 934 
          904 905 936 935 
          905 906 937 936 
          906 907 938 937 
          907 908 939 938 
          908 909 940 939 
          909 910 941 940 
          910 911 942 941 
          911 912 943 942 
          912 913 944 943 
          913 914 945 944 
          914 915 946 945 
          915 916 947 946 
          916 917 948 947 
          917 918 949 948 
          918 919 950 949 
          919 920 951 950 
          920 921 952 951 
          921 922 953 952 
          922 923 954 953 
          923 924 955 954 
          924 925 956 955 
          925 926 957 956 
          926 927 958 957 
          927 928 959 958 
          928 929 960 959 
        </DataArray>
        <DataArray type="Int32" Name="offsets" format="ascii">
          4
          8
          12
          16
          20
          24
          28
          32
          36
          40
          44
          48
          52
          56
          60
          64
          68
          72
          76
          80
          84
          88
          92
          96
          100
          104
          108
          112
          116
          120
          124
          128
          132
          136
          140
          144
          148
          152
          156
          160
          164
          168
          172
          176
          180
          184
          188
          192
          196
          200
          204
          208
          212
          216
          220
          224
          228
          232
          236
          240
          244
          248
          252
          256
          260
          264
          268
          272
          276
          280
          284
          288
          292
          296
          300
          304
          308
          312
          316
          320
          324
          328
          332
          336
          340
          344
          348
          352
          356
          360
          364
          368
          372
          376
          380
          384
          388
          392
          396
          400
          404
          408
          412
          416
          420
          424
          428
          432
          436
          440
          444
          448
          452
          456
          460
          464
          468
          472
          476
          480
          484
          488
          492
          496
          500
          504
          508
          512
          516
          520
          524
          528
          532
          536
          540
          544
          548
          552
          556
          560
          564
          568
          572
          576
          580
          584
          588
          592
          596
          600
          604
          608
          612
          616
          620
          624
          628
          632
          636
          640
          644
          648
          652
          656
          660
          664
          668
          672
          676
          680
          684
          688
          692
          696
          700
          704
          708
          712
          716
          720
          724
          728
          732
          736
          740
          744
          748
          752
          756
          760
          764
          768
          772
          776
          780
          784
          788
          792
          796
          800
          804
          808
          812
          816
          820
          824
          828
          832
          836
          840
          844
          848
          852
          856
          860
          864
          868
          872
          876
          880
          884
          888
          892
          896
          900
          904
          908
          912
          916
          920
          924
          928
          932
          936
          940
          944
          948
          952
          956
          960
          964
          968
          972
          976
          980
          984
          988
          992
          996
          1000
          1004
          1008
          1012
          1016
          1020
          1024
          1028
          1032
          1036
          1040
          1044
          1048
          1052
          1056
          1060
          1064
          1068
          1072
          1076
          1080
          1084
          1088
          1092
          1096
          1100
          1104
          1108
          1112
          1116
          1120
          1124
          1128
          1132
          1136
          1140
          1144
          1148
          1152
          1156
          1160
          1164
          1168
          1172
          1176
          1180
          1184
          1188
          1192
          1196
          1200
          1204
          1208
          1212
          1216
          1220
          1224
          1228
          1232
          1236
          1240
          1244
          1248
          1252
          1256
          1260
          1264
          1268
          1272
          1276
          1280
          1284
          1288
          1292
          1296
          1300
          1304
          1308
          1312
          1316
          1320
          1324
          1328
          1332
          1336
          1340
          1344
          1348
          1352
          1356
          1360
          1364
          1368
          1372
          1376
          1380
          1384
          1388
          1392
          1396
          1400
          1404
          1408
          1412
          1416
          1420
          1424
          1428
          1432
          1436
          1440
          1444
          1448
          1452
          1456
          1460
          1464
          1468
          1472
          1476
          1480
          1484
          1488
          1492
          1496
          1500
          1504
          1508
          1512
          1516
          1520
          1524
          1528
          1532
          1536
          1540
          1544
          1548
          1552
          1556
          1560
          1564
          1568
          1572
          1576
          1580
          1584
          1588
          1592
          1596
          1600
          1604
          1608
          1612
          1616
          1620
          1624
          1628
          1632
          1636
          1640
          1644
          1648
          1652
          1656
          1660
          1664
          1668
          1672
          1676
          1680
          1684
          1688
          1692
          1696
          1700
          1704
          1708
          1712
          1716
          1720
          1724
          1728
          1732
          1736
          1740
          1744
          1748
          1752
          1756
          1760
          1764
          1768
          1772
          1776
          1780
          1784
          1788
          1792
          1796
          1800
          1804
          1808
          1812
          1816
          1820
          1824
          1828
          1832
          1836
          1840
          1844
          1848
          1852
          1856
          1860
          1864
          1868
          1872
          1876
          1880
          1884
          1888
          1892
          1896
          1900
          1904
          1908
          1912
          1916
          1920
          1924
          1928
          1932
          1936
          1940
          1944
          1948
          1952
          1956
          1960
          1964
          1968
          1972
          1976
          1980
          1984
          1988
          1992
          1996
          2000
          2004
          2008
          2012
          2016
          2020
          2024
          2028
          2032
          2036
          2040
          2044
          2048
          2052
          2056
          2060
          2064
          2068
          2072
          2076
          2080
          2084
          2088
          2092
          2096
          2100
          2104
          2108
          2112
          2116
          2120
          2124
          2128
          2132
          2136
          2140
          2144
          2148
          2152
          2156
          2160
          2164
          2168
          2172
          2176
          2180
          2184
          2188
          2192
          2196
          2200
          2204
          2208
          2212
          2216
          2220
          2224
          2228
          2232
          2236
          2240
          2244
          2248
          2252
          2256
          2260
          2264
          2268
          2272
          2276
          2280
          2284
          2288
          2292
          2296
          2300
          2304
          2308
          2312
          2316
          2320
          2324
          2328
          2332
          2336
          2340
          2344
          2348
          2352
          2356
          2360
          2364
          2368
          2372
          2376
          2380
          2384
          2388
          2392
          2396
          2400
          2404
          2408
          2412
          2416
          2420
          2424
          2428
          2432
          2436
          2440
          2444
          2448
          2452
          2456
          2460
          2464
          2468
          2472
          2476
          2480
          2484
          2488
          2492
          2496
          2500
          2504
          2508
          2512
          2516
          2520
          2524
          2528
          2532
          2536
          2540
          2544
          2548
          2552
          2556
          2560
          2564
          2568
          2572
          2576
          2580
          2584
          2588
          2592
          2596
          2600
          2604
          2608
          2612
          2616
          2620
          2624
          2628
          2632
          2636
          2640
          2644
          2648
          2652
          2656
          2660
          2664
          2668
          2672
          2676
          2680
          2684
          2688
          2692
          2696
          2700
          2704
          2708
          2712
          2716
          2720
          2724
          2728
          2732
          2736
          2740
          2744
          2748
          2752
          2756
          2760
          2764
          2768
          2772
          2776
          2780
          2784
          2788
          2792
          2796
          2800
          2804
          2808
          2812
          2816
          2820
          2824
          2828
          2832
          2836
          2840
          2844
          2848
          2852
          2856
          2860
          2864
          2868
          2872
          2876
          2880
          2884
          2888
          2892
          2896
          2900
          2904
          2908
          2912
          2916
          2920
          2924
          2928
          2932
          2936
          2940
          2944
          2948
          2952
          2956
          2960
          2964
          2968
          2972
          2976
          2980
          2984
          2988
          2992
          2996
          3000
          3004
          3008
          3012
          3016
          3020
          3024
          3028
          3032
          3036
          3040
          3044
          3048
          3052
          3056
          3060
          3064
          3068
          3072
          3076
          3080
          3084
          3088
          3092
          3096
          3100
          3104
          3108
          3112
          3116
          3120
          3124
          3128
          3132
          3136
          3140
          3144
          3148
          3152
          3156
          3160
          3164
          3168
          3172
          3176
          3180
          3184
          3188
          3192
          3196
          3200
          3204
          3208
          3212
          3216
          3220
          3224
          3228
          3232
          3236
          3240
          3244
          3248
          3252
          3256
          3260
          3264
          3268
          3272
          3276
          3280
          3284
          3288
          3292
          3296
          3300
          3304
          3308
          3312
          3316
          3320
          3324
          3328
          3332
          3336
          3340
          3344
          3348
          3352
          3356
          3360
          3364
          3368
          3372
          3376
          3380
          3384
          3388
          3392
          3396
          3400
          3404
          3408
          3412
          3416
          3420
          3424
          3428
          3432
          3436
          3440
          3444
          3448
          3452
          3456
          3460
          3464
          3468
          3472
          3476
          3480
          3484
          3488
          3492
          3496
          3500
          3504
          3508
          3512
          3516
          3520
          3524
          3528
          3532
          3536
          3540
          3544
          3548
          3552
          3556
          3560
          3564
          3568
          3572
          3576
          3580
          3584
          3588
          3592
          3596
          3600
        </DataArray>
        <DataArray type="UInt8" Name="types" format="ascii">
          9
          9
          9
          9
          9
          9
          9
          9
          9
          9
          9
          9
          9
          9
          9
          9
          9
          9
          9
          9
          9
          9
          9
          9
          9
          9
          9
          9
          9
          9
          9
          9
          9
          9
          9
          9
          9
          9
          9
          9
          9
          9
          9
          9
          9
          9
          9
          9
          9
          9
          9
          9
          9
          9
          9
          9
          9
          9
          9
          9
          9
          9
          9
          9
          9
          9
          9
          9
          9
          9
          9
          9
          9
          9
          9
          9
          9
          9
          9
          9
          9
          9
          9
          9
          9
          9
          9
          9
          9
          9
          9
          9
          9
          9
          9
          9
          9
          9
          9
          9
          9
          9
          9
          9
          9
          9
          9
          9
          9
          9
          9
          9
          9
          9
          9
          9
          9
          9
          9
          9
          9
          9
          9
          9
          9
          9
          9
          9
          9
          9
          9
          9
          9
          9
          9
          9
          9
          9
          9
          9
          9
          9
          9
          9
          9
          9
          9
          9
          9
          9
          9
          9
          9
          9
          9
          9
          9
          9
          9
          9
          9
          9
          9
          9
          9
          9
          9
          9
          9
          9
          9
          9
          9
          9
          9
          9
          9
          9
          9
          9
          9
          9
          9
          9
          9
          9
          9
          9
          9
          9
          9
          9
          9
          9
          9
          9
          9
          9
          9
          9
          9
          9
          9
          9
          9
          9
          9
          9
          9
          9
          9
          9
          9
          9
          9
          9
          9
          9
          9
          9
          9
          9
          9
          9
          9
          9
          9
          9
          9
          9
          9
          9
          9
          9
          9
          9
          9
          9
          9
          9
          9
          9
          9
          9
          9
          9
          9
          9
          9
          9
          9
          9
          9
          9
          9
          9
          9
          9
          9
          9
          9
          9
          9
          9
          9
          9
          9
          9
          9
          9
          9
          9
          9
          9
          9
          9
          9
          9
          9
          9
          9
          9
          9
          9
          9
          9
          9
          9
          9
          9
          9
          9
          9
          9
          9
          9
          9
          9
          9
          9
          9
          9
          9
          9
          9
          9
          9
          9
          9
          9
          9
          9
          9
          9
          9
          9
          9
          9
          9
          9
          9
          9
          9
          9
          9
          9
          9
          9
          9
          9
          9
          9
          9
          9
          9
          9
          9
          9
          9
          9
          9
          9
          9
          9
          9
          9
          9
          9
          9
          9
          9
          9
          9
          9
          9
          9
          9
          9
          9
          9
          9
          9
          9
          9
          9
          9
          9
          9
          9
          9
          9
          9
          9
          9
          9
          9
          9
          9
          9
          9
          9
          9
          9
          9
          9
          9
          9
          9
          9
          9
          9
          9
          9
          9
          9
          9
          9
          9
          9
          9
          9
          9
          9
          9
          9
          9
          9
          9
          9
          9
          9
          9
          9
          9
          9
          9
          9
          9
          9
          9
          9
          9
          9
          9
          9
          9
          9
          9
          9
          9
          9
          9
          9
          9
          9
          9
          9
          9
          9
          9
          9
          9
          9
          9
          9
          9
          9
          9
          9
          9
          9
          9
          9
          9
          9
          9
          9
          9
          9
          9
          9
          9
          9
          9
          9
          9
          9
          9
          9
          9
          9
          9
          9
          9
          9
          9
          9
          9
          9
          9
          9
          9
          9
          9
          9
          9
          9
          9
          9
          9
          9
          9
          9
          9
          9
          9
          9
          9
          9
          9
          9
          9
          9
          9
          9
          9
          9
          9
          9
          9
          9
          9
          9
          9
          9
          9
          9
          9
          9
          9
          9
          9
          9
          9
          9
          9
          9
          9
          9
          9
          9
          9
          9
          9
          9
          9
          9
          9
          9
          9
          9
          9
          9
          9
          9
          9
          9
          9
          9
          9
          9
          9
          9
          9
          9
          9
          9
          9
          9
          9
          9
          9
          9
          9
          9
          9
          9
          9
          9
          9
          9
          9
          9
          9
          9
          9
          9
          9
          9
          9
          9
          9
          9
          9
          9
          9
          9
          9
          9
          9
          9
          9
          9
          9
          9
          9
          9
          9
          9
          9
          9
          9
          9
          9
          9
          9
          9
          9
          9
          9
          9
          9
          9
          9
          9
          9
          9
          9
          9
          9
          9
          9
          9
          9
          9
          9
          9
          9
          9
          9
          9
          9
          9
          9
          9
          9
          9
          9
          9
          9
          9
          9
          9
          9
          9
          9
          9
          9
          9
          9
          9
          9
          9
          9
          9
          9
          9
          9
          9
          9
          9
          9
          9
          9
          9
          9
          9
          9
          9
          9
          9
          9
          9
          9
          9
          9
          9
          9
          9
          9
          9
          9
          9
          9
          9
          9
          9
          9
          9
          9
          9
          9
          9
          9
          9
          9
          9
          9
          9
          9
          9
          9
          9
          9
          9
          9
          9
          9
          9
          9
          9
          9
          9
          9
          9
          9
          9
          9
          9
          9
          9
          9
          9
          9
          9
          9
          9
          9
          9
          9
          9
          9
          9
          9
          9
          9
          9
          9
          9
          9
          9
          9
          9
          9
          9
          9
          9
          9
          9
          9
          9
          9
          9
          9
          9
          9
          9
          9
          9
          9
          9
          9
          9
          9
          9
          9
          9
          9
          9
          9
          9
          9
          9
          9
          9
          9
          9
          9
          9
          9
          9
          9
          9
          9
          9
          9
          9
          9
          9
          9
          9
          9
          9
          9
          9
          9
          9
          9
          9
          9
          9
          9
          9
          9
          9
          9
          9
          9
          9
          9
          9
          9
          9
          9
          9
          9
          9
          9
          9
          9
          9
          9
          9
          9
          9
          9
          9
          9
          9
          9
          9
          9
          9
          9
          9
          9
          9
          9
          9
          9
          9
          9
          9
          9
          9
          9
          9
          9
          9
          9
          9
          9
          9
          9
          9
          9
          9
          9
          9
          9
          9
          9
          9
          9
          9
          9
          9
          9
          9
          9
          9
          9
          9
          9
          9
          9
          9
          9
          9
          9
          9
          9
          9
          9
          9
          9
          9
          9
          9
          9
          9
          9
          9
          9
          9
          9
          9
          9
          9
          9
        </DataArray>
      </Cells>
    </Piece>
  </UnstructuredGrid>
</VTKFile>
