<?xml version="1.0"?>
<VTKFile type="UnstructuredGrid" version="0.1" byte_order="LittleEndian">
  <UnstructuredGrid>
    <Piece NumberOfPoints="961" NumberOfCells="900">
      <PointData Scalars="Temperature">
        <DataArray type="Float32" Name="Temperature" format="ascii">
          21.0008
          21.0131
          21.0249
          21.0361
          21.0463
          21.0554
          21.0635
          21.0706
          21.0769
          21.0827
          21.0884
          21.0943
          21.1009
          21.1092
          21.1191
          21.1357
          21.1454
          21.2241
          21.0645
          22.1042
          18.1467
          38.0893
          38.0965
          38.0965
          38.0892
          18.1284
          22.067
          21.0073
          21.1454
          21.0425
          21.0052
          21.0132
          21.2152
          21.4106
          21.5938
          21.7612
          21.9108
          22.0424
          22.158
          22.2607
          22.355
          22.4464
          22.5416
          22.649
          22.7788
          22.9462
          23.1719
          23.4979
          23.9692
          24.8289
          25.9885
          30.5069
          38.1141
          38.1146
          38.1146
          38.1141
          30.208
          25.3824
          23.8984
          22.6871
          21.8244
          21.0484
          21.0261
          21.4244
          21.8088
          22.1682
          22.4947
          22.7846
          23.038
          23.2587
          23.4532
          23.6304
          23.801
          23.9777
          24.1755
          24.4136
          24.7173
          25.1239
          25.6901
          26.5231
          27.7796
          29.9784
          33.4991
          38.1351
          38.1353
          38.1352
          38.135
          32.928
          28.8203
          26.002
          24.0758
          22.5009
          21.0903
          21.0398
          21.6482
          22.2333
          22.7767
          23.2662
          23.696
          24.0672
          24.3863
          24.6637
          24.9131
          25.1503
          25.3936
          25.6638
          25.986
          26.3922
          26.9257
          27.6499
          28.6588
          30.1103
          32.1795
          34.9341
          38.1561
          38.1562
          38.1562
          38.156
          34.1068
          30.5015
          27.535
          25.1158
          23.0424
          21.123
          21.0553
          21.8965
          22.7015
          23.4418
          24.0995
          24.6679
          25.15
          25.5564
          25.903
          26.2086
          26.4945
          26.7839
          27.1021
          27.478
          27.9457
          28.5476
          29.3388
          30.3914
          31.787
          33.5848
          35.7625
          38.1773
          38.1774
          38.1774
          38.1772
          34.7025
          31.4336
          28.4836
          25.8473
          23.439
          21.1476
          21.0725
          22.1839
          23.2379
          24.1934
          25.0257
          25.7286
          26.31
          26.7875
          27.1838
          27.5243
          27.8359
          28.1463
          28.4844
          28.8809
          29.369
          29.9859
          30.7737
          31.7775
          33.0351
          34.5586
          36.3113
          38.1986
          38.1987
          38.1986
          38.1985
          35.0504
          31.9961
          29.0929
          26.3469
          23.7231
          21.1656
          21.0967
          22.5314
          23.8798
          25.0746
          26.0865
          26.9137
          27.5754
          28.1004
          28.5208
          28.8694
          29.1788
          29.4814
          29.8093
          30.1936
          30.6653
          31.2549
          31.9919
          32.9019
          33.9998
          35.2801
          36.7083
          38.22
          38.2201
          38.22
          38.2199
          35.2889
          32.3867
          29.5301
          26.7187
          23.9407
          21.179
          21.1137
          22.9817
          24.685
          26.1503
          27.3381
          28.2672
          28.9782
          29.5178
          29.9295
          30.2535
          30.5283
          30.7911
          31.0773
          31.4189
          31.8438
          32.3757
          33.034
          33.8316
          34.7716
          35.8421
          37.0139
          38.2415
          38.2416
          38.2415
          38.2414
          35.4931
          32.7249
          29.9174
          27.0569
          24.1415
          21.1943
          21.2015
          23.581
          25.7641
          27.5175
          28.8565
          29.8386
          30.5507
          31.062
          31.4256
          31.6868
          31.8891
          32.0762
          32.2886
          32.5596
          32.9138
          33.3682
          33.9335
          34.6141
          35.4063
          36.2964
          37.26
          38.2631
          38.2631
          38.2631
          38.263
          35.7165
          33.1033
          30.3635
          27.4552
          24.3879
          21.1992
          21.0448
          24.5793
          27.2782
          29.3398
          30.728
          31.6724
          32.318
          32.7512
          33.0246
          33.1794
          33.2641
          33.333
          33.4381
          33.6145
          33.8818
          34.2478
          34.7152
          35.2816
          35.9393
          36.6739
          37.4645
          38.2848
          38.2848
          38.2847
          38.2846
          36.0066
          33.6149
          30.9897
          28.0455
          24.7391
          21.2712
          22.1189
          25.8857
          29.7603
          31.7978
          33.0159
          33.7858
          34.2855
          34.598
          34.745
          34.7488
          34.6516
          34.5479
          34.5087
          34.5761
          34.7494
          35.0247
          35.396
          35.8557
          36.3929
          36.9932
          37.6383
          38.3065
          38.3065
          38.3064
          38.3063
          36.4065
          34.3577
          31.9752
          29.0027
          25.4506
          21.1005
          18.0646
          30.6397
          33.6002
          34.9615
          35.6983
          36.1437
          36.4242
          36.5908
          36.6448
          36.4226
          36.0582
          35.6589
          35.4705
          35.4309
          35.5149
          35.7048
          35.9875
          36.3508
          36.782
          37.2666
          37.7882
          38.3284
          38.3284
          38.3281
          38.328
          36.9435
          35.4107
          33.5149
          30.8653
          26.4411
          22.1397
          38.5386
          38.564
          38.5854
          38.6068
          38.6277
          38.6474
          38.6647
          38.678
          38.6862
          38.6889
          37.1572
          36.5896
          36.287
          36.165
          36.1755
          36.2925
          36.4981
          36.7774
          37.1169
          37.5024
          37.919
          38.3507
          38.3504
          38.3497
          38.3493
          37.6116
          36.7777
          35.6983
          34.0316
          30.8083
          18.1303
          38.546
          38.5645
          38.5857
          38.6071
          38.6284
          38.6488
          38.6669
          38.6807
          38.6892
          38.692
          37.8754
          37.2722
          36.9377
          36.7715
          36.732
          36.7927
          36.9349
          37.1437
          37.4055
          37.7069
          38.0344
          38.374
          38.3731
          38.3706
          38.37
          38.3649
          38.3486
          38.329
          38.3084
          38.2874
          38.2623
          38.5461
          38.5646
          38.5858
          38.6075
          38.6294
          38.6525
          38.6734
          38.6894
          38.698
          38.7005
          38.1709
          37.7318
          37.4282
          37.256
          37.1904
          37.2122
          37.3056
          37.4571
          37.6543
          37.8852
          38.1377
          38.3994
          38.3976
          38.3921
          38.3824
          38.3681
          38.35
          38.3296
          38.3087
          38.2879
          38.2697
          38.5386
          38.5642
          38.5857
          38.6075
          38.6299
          38.6537
          38.6896
          38.7056
          38.7121
          38.7141
          38.3497
          38.031
          37.7897
          37.6355
          37.5628
          37.5609
          37.6185
          37.7248
          37.8694
          38.0418
          38.2317
          38.4283
          38.4259
          38.4172
          38.3997
          38.3769
          38.3524
          38.3304
          38.309
          38.288
          38.2698
          18.0907
          31.071
          34.4189
          36.1441
          37.2288
          38.032
          38.7255
          38.7268
          38.7304
          38.7316
          38.4746
          38.2435
          38.0594
          37.9327
          37.8645
          37.8502
          37.8828
          37.9543
          38.0564
          38.1808
          38.3189
          38.4617
          38.4594
          38.4517
          38.429
          38.3801
          38.3537
          38.3306
          38.3089
          38.2876
          38.2624
          22.1754
          26.7677
          31.4268
          34.1838
          36.0713
          37.5077
          38.7495
          38.7502
          38.7512
          38.7518
          38.5703
          38.4046
          38.2684
          38.1698
          38.1116
          38.0924
          38.1081
          38.1531
          38.2213
          38.3061
          38.401
          38.4994
          38.4978
          38.4929
          38.4913
          37.8495
          37.0922
          36.0378
          34.3241
          30.9819
          18.1434
          21.1217
          25.9693
          29.8677
          32.9921
          35.3208
          37.1614
          38.7723
          38.7726
          38.773
          38.7732
          38.649
          38.5342
          38.4376
          38.365
          38.319
          38.2994
          38.3038
          38.3287
          38.3694
          38.4214
          38.4798
          38.5402
          38.5393
          38.5379
          38.537
          37.4207
          36.0917
          34.2731
          31.5284
          26.8441
          22.1565
          21.3671
          25.5774
          29.4502
          32.5744
          35.042
          37.0332
          38.7944
          38.7947
          38.7952
          38.7954
          38.7175
          38.6446
          38.5817
          38.5327
          38.4994
          38.4819
          38.479
          38.4881
          38.5064
          38.5303
          38.5567
          38.5829
          38.5824
          38.5813
          38.5807
          37.1852
          35.538
          33.3371
          30.2358
          26.1929
          21.1897
          21.1179
          25.9319
          29.7937
          32.8954
          35.2335
          37.1253
          38.8159
          38.8166
          38.8177
          38.8183
          38.7811
          38.7446
          38.7113
          38.6839
          38.6634
          38.6496
          38.6418
          38.6383
          38.6376
          38.6373
          38.6342
          38.6274
          38.6262
          38.6241
          38.6229
          37.1825
          35.5084
          33.3055
          30.2163
          26.1887
          21.1841
          22.1787
          26.6976
          31.2722
          33.9501
          35.8473
          37.4001
          38.8362
          38.8375
          38.8412
          38.8425
          38.8449
          38.8408
          38.8345
          38.8277
          38.8203
          38.8114
          38.8
          38.7857
          38.7682
          38.7468
          38.7179
          38.6746
          38.6721
          38.6648
          38.6623
          37.3898
          35.9729
          34.1559
          31.4794
          26.8349
          22.1766
          18.062
          31.0584
          34.1661
          35.6848
          36.7075
          37.7815
          38.8538
          38.856
          38.8625
          38.8788
          38.9149
          38.938
          38.9576
          38.972
          38.9789
          38.9757
          38.9613
          38.9361
          38.9021
          38.8615
          38.8157
          38.7453
          38.7136
          38.7008
          38.6967
          37.7301
          36.743
          35.7678
          34.2538
          31.1123
          18.0682
          38.6817
          38.702
          38.7071
          37.2562
          37.572
          38.1677
          38.8674
          38.8701
          38.8789
          38.8952
          38.9164
          38.9395
          38.9599
          38.9759
          38.9841
          38.9817
          38.967
          38.9407
          38.905
          38.8638
          38.8185
          38.7772
          38.7454
          38.7284
          38.7232
          38.0951
          37.558
          37.2742
          38.7054
          38.7002
          38.6799
          38.6947
          38.7079
          38.713
          38.2949
          38.2045
          38.4792
          38.876
          38.8789
          38.8877
          38.9019
          38.9206
          38.9421
          38.9663
          38.9876
          39.0008
          39.0004
          38.9856
          38.9547
          38.9134
          38.8678
          38.8264
          38.7902
          38.7625
          38.7454
          38.7398
          38.3996
          38.1702
          38.2843
          38.7112
          38.7061
          38.6929
          38.7111
          38.7243
          38.729
          38.5995
          38.5775
          38.6892
          38.8789
          38.8818
          38.8904
          38.9041
          38.9222
          38.9436
          38.9687
          39.0135
          39.0316
          39.0314
          39.0206
          38.9887
          38.9163
          38.8701
          38.8292
          38.7944
          38.7677
          38.7511
          38.7454
          38.6225
          38.5429
          38.585
          38.7272
          38.7225
          38.7093
          38.7339
          38.7498
          38.755
          38.7514
          38.7706
          38.8306
          38.8964
          38.9468
          38.9726
          38.9964
          39.0196
          39.0407
          39.0582
          39.0739
          39.0733
          39.0716
          39.0671
          39.0654
          39.0328
          39.0036
          38.9729
          38.9416
          38.9117
          38.8832
          38.8415
          38.791
          38.7493
          38.7415
          38.7532
          38.748
          38.7321
          38.7595
          38.7781
          38.8072
          38.8662
          38.9063
          38.9443
          38.9815
          39.0182
          39.0543
          39.0888
          39.1193
          39.1419
          39.1521
          39.1313
          39.1182
          39.1152
          39.1156
          39.1281
          39.1501
          39.14
          39.1174
          39.087
          39.0525
          39.0163
          38.9796
          38.9425
          38.9045
          38.8644
          38.8053
          38.7763
          38.7577
          38.7831
          38.8037
          38.8326
          38.8682
          38.9072
          38.9446
          38.9816
          39.0184
          39.0549
          39.0906
          39.1231
          39.1482
          39.1608
          39.1629
          39.1598
          39.1577
          39.1585
          39.161
          39.1588
          39.1463
          39.1212
          39.0887
          39.053
          39.0165
          38.9798
          38.9428
          38.9054
          38.8664
          38.8308
          38.8019
          38.7812
          38.8058
          38.8198
          38.8434
          38.8742
          38.9088
          38.9452
          38.9819
          39.0188
          39.056
          39.094
          39.1341
          39.1675
          39.1868
          39.1957
          39.1984
          39.1986
          39.1976
          39.1943
          39.1851
          39.1657
          39.1322
          39.0922
          39.0541
          39.0169
          38.98
          38.9433
          38.907
          38.8723
          38.8416
          38.818
          38.804
          38.8177
          38.8253
          38.847
          38.8762
          38.9097
          38.9454
          38.982
          39.019
          39.0565
          39.0957
          39.1413
          39.1808
          39.2025
          39.2134
          39.2179
          39.2187
          39.2172
          39.2122
          39.2009
          39.179
          39.1395
          39.0939
          39.0547
          39.0171
          38.9802
          38.9436
          38.9079
          38.8744
          38.8452
          38.8235
          38.8159
        </DataArray>
      </PointData>
      <CellData>
      </CellData>
      <Points>
        <DataArray type="Float32" NumberOfComponents="3" format="ascii">
          0.039 0.00195 0.0
          0.0377 0.00195 0.0
          0.0364 0.00195 0.0
          0.0351 0.00195 0.0
          0.0338 0.00195 0.0
          0.0325 0.00195 0.0
          0.0312 0.00195 0.0
          0.0299 0.00195 0.0
          0.0286 0.00195 0.0
          0.0273 0.00195 0.0
          0.026 0.00195 0.0
          0.0247 0.00195 0.0
          0.0234 0.00195 0.0
          0.0221 0.00195 0.0
          0.0208 0.00195 0.0
          0.0195 0.00195 0.0
          0.0182 0.00195 0.0
          0.0169 0.00195 0.0
          0.0156 0.00195 0.0
          0.0143 0.00195 0.0
          0.013 0.00195 0.0
          0.0117 0.00195 0.0
          0.0104 0.00195 0.0
          0.0091 0.00195 0.0
          0.0078 0.00195 0.0
          0.0065 0.00195 0.0
          0.0052 0.00195 0.0
          0.0039 0.00195 0.0
          0.0026 0.00195 0.0
          0.0013 0.00195 0.0
          0 0.00195 0.0
          0.039 0.00065 0.0
          0.0377 0.00065 0.0
          0.0364 0.00065 0.0
          0.0351 0.00065 0.0
          0.0338 0.00065 0.0
          0.0325 0.00065 0.0
          0.0312 0.00065 0.0
          0.0299 0.00065 0.0
          0.0286 0.00065 0.0
          0.0273 0.00065 0.0
          0.026 0.00065 0.0
          0.0247 0.00065 0.0
          0.0234 0.00065 0.0
          0.0221 0.00065 0.0
          0.0208 0.00065 0.0
          0.0195 0.00065 0.0
          0.0182 0.00065 0.0
          0.0169 0.00065 0.0
          0.0156 0.00065 0.0
          0.0143 0.00065 0.0
          0.013 0.00065 0.0
          0.0117 0.00065 0.0
          0.0104 0.00065 0.0
          0.0091 0.00065 0.0
          0.0078 0.00065 0.0
          0.0065 0.00065 0.0
          0.0052 0.00065 0.0
          0.0039 0.00065 0.0
          0.0026 0.00065 0.0
          0.0013 0.00065 0.0
          0 0.00065 0.0
          0.039 -0.00065 0.0
          0.0377 -0.00065 0.0
          0.0364 -0.00065 0.0
          0.0351 -0.00065 0.0
          0.0338 -0.00065 0.0
          0.0325 -0.00065 0.0
          0.0312 -0.00065 0.0
          0.0299 -0.00065 0.0
          0.0286 -0.00065 0.0
          0.0273 -0.00065 0.0
          0.026 -0.00065 0.0
          0.0247 -0.00065 0.0
          0.0234 -0.00065 0.0
          0.0221 -0.00065 0.0
          0.0208 -0.00065 0.0
          0.0195 -0.00065 0.0
          0.0182 -0.00065 0.0
          0.0169 -0.00065 0.0
          0.0156 -0.00065 0.0
          0.0143 -0.00065 0.0
          0.013 -0.00065 0.0
          0.0117 -0.00065 0.0
          0.0104 -0.00065 0.0
          0.0091 -0.00065 0.0
          0.0078 -0.00065 0.0
          0.0065 -0.00065 0.0
          0.0052 -0.00065 0.0
          0.0039 -0.00065 0.0
          0.0026 -0.00065 0.0
          0.0013 -0.00065 0.0
          0 -0.00065 0.0
          0.039 -0.00195 0.0
          0.0377 -0.00195 0.0
          0.0364 -0.00195 0.0
          0.0351 -0.00195 0.0
          0.0338 -0.00195 0.0
          0.0325 -0.00195 0.0
          0.0312 -0.00195 0.0
          0.0299 -0.00195 0.0
          0.0286 -0.00195 0.0
          0.0273 -0.00195 0.0
          0.026 -0.00195 0.0
          0.0247 -0.00195 0.0
          0.0234 -0.00195 0.0
          0.0221 -0.00195 0.0
          0.0208 -0.00195 0.0
          0.0195 -0.00195 0.0
          0.0182 -0.00195 0.0
          0.0169 -0.00195 0.0
          0.0156 -0.00195 0.0
          0.0143 -0.00195 0.0
          0.013 -0.00195 0.0
          0.0117 -0.00195 0.0
          0.0104 -0.00195 0.0
          0.0091 -0.00195 0.0
          0.0078 -0.00195 0.0
          0.0065 -0.00195 0.0
          0.0052 -0.00195 0.0
          0.0039 -0.00195 0.0
          0.0026 -0.00195 0.0
          0.0013 -0.00195 0.0
          0 -0.00195 0.0
          0.039 -0.00325 0.0
          0.0377 -0.00325 0.0
          0.0364 -0.00325 0.0
          0.0351 -0.00325 0.0
          0.0338 -0.00325 0.0
          0.0325 -0.00325 0.0
          0.0312 -0.00325 0.0
          0.0299 -0.00325 0.0
          0.0286 -0.00325 0.0
          0.0273 -0.00325 0.0
          0.026 -0.00325 0.0
          0.0247 -0.00325 0.0
          0.0234 -0.00325 0.0
          0.0221 -0.00325 0.0
          0.0208 -0.00325 0.0
          0.0195 -0.00325 0.0
          0.0182 -0.00325 0.0
          0.0169 -0.00325 0.0
          0.0156 -0.00325 0.0
          0.0143 -0.00325 0.0
          0.013 -0.00325 0.0
          0.0117 -0.00325 0.0
          0.0104 -0.00325 0.0
          0.0091 -0.00325 0.0
          0.0078 -0.00325 0.0
          0.0065 -0.00325 0.0
          0.0052 -0.00325 0.0
          0.0039 -0.00325 0.0
          0.0026 -0.00325 0.0
          0.0013 -0.00325 0.0
          0 -0.00325 0.0
          0.039 -0.00455 0.0
          0.0377 -0.00455 0.0
          0.0364 -0.00455 0.0
          0.0351 -0.00455 0.0
          0.0338 -0.00455 0.0
          0.0325 -0.00455 0.0
          0.0312 -0.00455 0.0
          0.0299 -0.00455 0.0
          0.0286 -0.00455 0.0
          0.0273 -0.00455 0.0
          0.026 -0.00455 0.0
          0.0247 -0.00455 0.0
          0.0234 -0.00455 0.0
          0.0221 -0.00455 0.0
          0.0208 -0.00455 0.0
          0.0195 -0.00455 0.0
          0.0182 -0.00455 0.0
          0.0169 -0.00455 0.0
          0.0156 -0.00455 0.0
          0.0143 -0.00455 0.0
          0.013 -0.00455 0.0
          0.0117 -0.00455 0.0
          0.0104 -0.00455 0.0
          0.0091 -0.00455 0.0
          0.0078 -0.00455 0.0
          0.0065 -0.00455 0.0
          0.0052 -0.00455 0.0
          0.0039 -0.00455 0.0
          0.0026 -0.00455 0.0
          0.0013 -0.00455 0.0
          0 -0.00455 0.0
          0.039 -0.00585 0.0
          0.0377 -0.00585 0.0
          0.0364 -0.00585 0.0
          0.0351 -0.00585 0.0
          0.0338 -0.00585 0.0
          0.0325 -0.00585 0.0
          0.0312 -0.00585 0.0
          0.0299 -0.00585 0.0
          0.0286 -0.00585 0.0
          0.0273 -0.00585 0.0
          0.026 -0.00585 0.0
          0.0247 -0.00585 0.0
          0.0234 -0.00585 0.0
          0.0221 -0.00585 0.0
          0.0208 -0.00585 0.0
          0.0195 -0.00585 0.0
          0.0182 -0.00585 0.0
          0.0169 -0.00585 0.0
          0.0156 -0.00585 0.0
          0.0143 -0.00585 0.0
          0.013 -0.00585 0.0
          0.0117 -0.00585 0.0
          0.0104 -0.00585 0.0
          0.0091 -0.00585 0.0
          0.0078 -0.00585 0.0
          0.0065 -0.00585 0.0
          0.0052 -0.00585 0.0
          0.0039 -0.00585 0.0
          0.0026 -0.00585 0.0
          0.0013 -0.00585 0.0
          0 -0.00585 0.0
          0.039 -0.00715 0.0
          0.0377 -0.00715 0.0
          0.0364 -0.00715 0.0
          0.0351 -0.00715 0.0
          0.0338 -0.00715 0.0
          0.0325 -0.00715 0.0
          0.0312 -0.00715 0.0
          0.0299 -0.00715 0.0
          0.0286 -0.00715 0.0
          0.0273 -0.00715 0.0
          0.026 -0.00715 0.0
          0.0247 -0.00715 0.0
          0.0234 -0.00715 0.0
          0.0221 -0.00715 0.0
          0.0208 -0.00715 0.0
          0.0195 -0.00715 0.0
          0.0182 -0.00715 0.0
          0.0169 -0.00715 0.0
          0.0156 -0.00715 0.0
          0.0143 -0.00715 0.0
          0.013 -0.00715 0.0
          0.0117 -0.00715 0.0
          0.0104 -0.00715 0.0
          0.0091 -0.00715 0.0
          0.0078 -0.00715 0.0
          0.0065 -0.00715 0.0
          0.0052 -0.00715 0.0
          0.0039 -0.00715 0.0
          0.0026 -0.00715 0.0
          0.0013 -0.00715 0.0
          0 -0.00715 0.0
          0.039 -0.00845 0.0
          0.0377 -0.00845 0.0
          0.0364 -0.00845 0.0
          0.0351 -0.00845 0.0
          0.0338 -0.00845 0.0
          0.0325 -0.00845 0.0
          0.0312 -0.00845 0.0
          0.0299 -0.00845 0.0
          0.0286 -0.00845 0.0
          0.0273 -0.00845 0.0
          0.026 -0.00845 0.0
          0.0247 -0.00845 0.0
          0.0234 -0.00845 0.0
          0.0221 -0.00845 0.0
          0.0208 -0.00845 0.0
          0.0195 -0.00845 0.0
          0.0182 -0.00845 0.0
          0.0169 -0.00845 0.0
          0.0156 -0.00845 0.0
          0.0143 -0.00845 0.0
          0.013 -0.00845 0.0
          0.0117 -0.00845 0.0
          0.0104 -0.00845 0.0
          0.0091 -0.00845 0.0
          0.0078 -0.00845 0.0
          0.0065 -0.00845 0.0
          0.0052 -0.00845 0.0
          0.0039 -0.00845 0.0
          0.0026 -0.00845 0.0
          0.0013 -0.00845 0.0
          0 -0.00845 0.0
          0.039 -0.00975 0.0
          0.0377 -0.00975 0.0
          0.0364 -0.00975 0.0
          0.0351 -0.00975 0.0
          0.0338 -0.00975 0.0
          0.0325 -0.00975 0.0
          0.0312 -0.00975 0.0
          0.0299 -0.00975 0.0
          0.0286 -0.00975 0.0
          0.0273 -0.00975 0.0
          0.026 -0.00975 0.0
          0.0247 -0.00975 0.0
          0.0234 -0.00975 0.0
          0.0221 -0.00975 0.0
          0.0208 -0.00975 0.0
          0.0195 -0.00975 0.0
          0.0182 -0.00975 0.0
          0.0169 -0.00975 0.0
          0.0156 -0.00975 0.0
          0.0143 -0.00975 0.0
          0.013 -0.00975 0.0
          0.0117 -0.00975 0.0
          0.0104 -0.00975 0.0
          0.0091 -0.00975 0.0
          0.0078 -0.00975 0.0
          0.0065 -0.00975 0.0
          0.0052 -0.00975 0.0
          0.0039 -0.00975 0.0
          0.0026 -0.00975 0.0
          0.0013 -0.00975 0.0
          0 -0.00975 0.0
          0.039 -0.01105 0.0
          0.0377 -0.01105 0.0
          0.0364 -0.01105 0.0
          0.0351 -0.01105 0.0
          0.0338 -0.01105 0.0
          0.0325 -0.01105 0.0
          0.0312 -0.01105 0.0
          0.0299 -0.01105 0.0
          0.0286 -0.01105 0.0
          0.0273 -0.01105 0.0
          0.026 -0.01105 0.0
          0.0247 -0.01105 0.0
          0.0234 -0.01105 0.0
          0.0221 -0.01105 0.0
          0.0208 -0.01105 0.0
          0.0195 -0.01105 0.0
          0.0182 -0.01105 0.0
          0.0169 -0.01105 0.0
          0.0156 -0.01105 0.0
          0.0143 -0.01105 0.0
          0.013 -0.01105 0.0
          0.0117 -0.01105 0.0
          0.0104 -0.01105 0.0
          0.0091 -0.01105 0.0
          0.0078 -0.01105 0.0
          0.0065 -0.01105 0.0
          0.0052 -0.01105 0.0
          0.0039 -0.01105 0.0
          0.0026 -0.01105 0.0
          0.0013 -0.01105 0.0
          0 -0.01105 0.0
          0.039 -0.01235 0.0
          0.0377 -0.01235 0.0
          0.0364 -0.01235 0.0
          0.0351 -0.01235 0.0
          0.0338 -0.01235 0.0
          0.0325 -0.01235 0.0
          0.0312 -0.01235 0.0
          0.0299 -0.01235 0.0
          0.0286 -0.01235 0.0
          0.0273 -0.01235 0.0
          0.026 -0.01235 0.0
          0.0247 -0.01235 0.0
          0.0234 -0.01235 0.0
          0.0221 -0.01235 0.0
          0.0208 -0.01235 0.0
          0.0195 -0.01235 0.0
          0.0182 -0.01235 0.0
          0.0169 -0.01235 0.0
          0.0156 -0.01235 0.0
          0.0143 -0.01235 0.0
          0.013 -0.01235 0.0
          0.0117 -0.01235 0.0
          0.0104 -0.01235 0.0
          0.0091 -0.01235 0.0
          0.0078 -0.01235 0.0
          0.0065 -0.01235 0.0
          0.0052 -0.01235 0.0
          0.0039 -0.01235 0.0
          0.0026 -0.01235 0.0
          0.0013 -0.01235 0.0
          0 -0.01235 0.0
          0.039 -0.01365 0.0
          0.0377 -0.01365 0.0
          0.0364 -0.01365 0.0
          0.0351 -0.01365 0.0
          0.0338 -0.01365 0.0
          0.0325 -0.01365 0.0
          0.0312 -0.01365 0.0
          0.0299 -0.01365 0.0
          0.0286 -0.01365 0.0
          0.0273 -0.01365 0.0
          0.026 -0.01365 0.0
          0.0247 -0.01365 0.0
          0.0234 -0.01365 0.0
          0.0221 -0.01365 0.0
          0.0208 -0.01365 0.0
          0.0195 -0.01365 0.0
          0.0182 -0.01365 0.0
          0.0169 -0.01365 0.0
          0.0156 -0.01365 0.0
          0.0143 -0.01365 0.0
          0.013 -0.01365 0.0
          0.0117 -0.01365 0.0
          0.0104 -0.01365 0.0
          0.0091 -0.01365 0.0
          0.0078 -0.01365 0.0
          0.0065 -0.01365 0.0
          0.0052 -0.01365 0.0
          0.0039 -0.01365 0.0
          0.0026 -0.01365 0.0
          0.0013 -0.01365 0.0
          0 -0.01365 0.0
          0.039 -0.01495 0.0
          0.0377 -0.01495 0.0
          0.0364 -0.01495 0.0
          0.0351 -0.01495 0.0
          0.0338 -0.01495 0.0
          0.0325 -0.01495 0.0
          0.0312 -0.01495 0.0
          0.0299 -0.01495 0.0
          0.0286 -0.01495 0.0
          0.0273 -0.01495 0.0
          0.026 -0.01495 0.0
          0.0247 -0.01495 0.0
          0.0234 -0.01495 0.0
          0.0221 -0.01495 0.0
          0.0208 -0.01495 0.0
          0.0195 -0.01495 0.0
          0.0182 -0.01495 0.0
          0.0169 -0.01495 0.0
          0.0156 -0.01495 0.0
          0.0143 -0.01495 0.0
          0.013 -0.01495 0.0
          0.0117 -0.01495 0.0
          0.0104 -0.01495 0.0
          0.0091 -0.01495 0.0
          0.0078 -0.01495 0.0
          0.0065 -0.01495 0.0
          0.0052 -0.01495 0.0
          0.0039 -0.01495 0.0
          0.0026 -0.01495 0.0
          0.0013 -0.01495 0.0
          0 -0.01495 0.0
          0.039 -0.01625 0.0
          0.0377 -0.01625 0.0
          0.0364 -0.01625 0.0
          0.0351 -0.01625 0.0
          0.0338 -0.01625 0.0
          0.0325 -0.01625 0.0
          0.0312 -0.01625 0.0
          0.0299 -0.01625 0.0
          0.0286 -0.01625 0.0
          0.0273 -0.01625 0.0
          0.026 -0.01625 0.0
          0.0247 -0.01625 0.0
          0.0234 -0.01625 0.0
          0.0221 -0.01625 0.0
          0.0208 -0.01625 0.0
          0.0195 -0.01625 0.0
          0.0182 -0.01625 0.0
          0.0169 -0.01625 0.0
          0.0156 -0.01625 0.0
          0.0143 -0.01625 0.0
          0.013 -0.01625 0.0
          0.0117 -0.01625 0.0
          0.0104 -0.01625 0.0
          0.0091 -0.01625 0.0
          0.0078 -0.01625 0.0
          0.0065 -0.01625 0.0
          0.0052 -0.01625 0.0
          0.0039 -0.01625 0.0
          0.0026 -0.01625 0.0
          0.0013 -0.01625 0.0
          0 -0.01625 0.0
          0.039 -0.01755 0.0
          0.0377 -0.01755 0.0
          0.0364 -0.01755 0.0
          0.0351 -0.01755 0.0
          0.0338 -0.01755 0.0
          0.0325 -0.01755 0.0
          0.0312 -0.01755 0.0
          0.0299 -0.01755 0.0
          0.0286 -0.01755 0.0
          0.0273 -0.01755 0.0
          0.026 -0.01755 0.0
          0.0247 -0.01755 0.0
          0.0234 -0.01755 0.0
          0.0221 -0.01755 0.0
          0.0208 -0.01755 0.0
          0.0195 -0.01755 0.0
          0.0182 -0.01755 0.0
          0.0169 -0.01755 0.0
          0.0156 -0.01755 0.0
          0.0143 -0.01755 0.0
          0.013 -0.01755 0.0
          0.0117 -0.01755 0.0
          0.0104 -0.01755 0.0
          0.0091 -0.01755 0.0
          0.0078 -0.01755 0.0
          0.0065 -0.01755 0.0
          0.0052 -0.01755 0.0
          0.0039 -0.01755 0.0
          0.0026 -0.01755 0.0
          0.0013 -0.01755 0.0
          0 -0.01755 0.0
          0.039 -0.01885 0.0
          0.0377 -0.01885 0.0
          0.0364 -0.01885 0.0
          0.0351 -0.01885 0.0
          0.0338 -0.01885 0.0
          0.0325 -0.01885 0.0
          0.0312 -0.01885 0.0
          0.0299 -0.01885 0.0
          0.0286 -0.01885 0.0
          0.0273 -0.01885 0.0
          0.026 -0.01885 0.0
          0.0247 -0.01885 0.0
          0.0234 -0.01885 0.0
          0.0221 -0.01885 0.0
          0.0208 -0.01885 0.0
          0.0195 -0.01885 0.0
          0.0182 -0.01885 0.0
          0.0169 -0.01885 0.0
          0.0156 -0.01885 0.0
          0.0143 -0.01885 0.0
          0.013 -0.01885 0.0
          0.0117 -0.01885 0.0
          0.0104 -0.01885 0.0
          0.0091 -0.01885 0.0
          0.0078 -0.01885 0.0
          0.0065 -0.01885 0.0
          0.0052 -0.01885 0.0
          0.0039 -0.01885 0.0
          0.0026 -0.01885 0.0
          0.0013 -0.01885 0.0
          0 -0.01885 0.0
          0.039 -0.02015 0.0
          0.0377 -0.02015 0.0
          0.0364 -0.02015 0.0
          0.0351 -0.02015 0.0
          0.0338 -0.02015 0.0
          0.0325 -0.02015 0.0
          0.0312 -0.02015 0.0
          0.0299 -0.02015 0.0
          0.0286 -0.02015 0.0
          0.0273 -0.02015 0.0
          0.026 -0.02015 0.0
          0.0247 -0.02015 0.0
          0.0234 -0.02015 0.0
          0.0221 -0.02015 0.0
          0.0208 -0.02015 0.0
          0.0195 -0.02015 0.0
          0.0182 -0.02015 0.0
          0.0169 -0.02015 0.0
          0.0156 -0.02015 0.0
          0.0143 -0.02015 0.0
          0.013 -0.02015 0.0
          0.0117 -0.02015 0.0
          0.0104 -0.02015 0.0
          0.0091 -0.02015 0.0
          0.0078 -0.02015 0.0
          0.0065 -0.02015 0.0
          0.0052 -0.02015 0.0
          0.0039 -0.02015 0.0
          0.0026 -0.02015 0.0
          0.0013 -0.02015 0.0
          0 -0.02015 0.0
          0.039 -0.02145 0.0
          0.0377 -0.02145 0.0
          0.0364 -0.02145 0.0
          0.0351 -0.02145 0.0
          0.0338 -0.02145 0.0
          0.0325 -0.02145 0.0
          0.0312 -0.02145 0.0
          0.0299 -0.02145 0.0
          0.0286 -0.02145 0.0
          0.0273 -0.02145 0.0
          0.026 -0.02145 0.0
          0.0247 -0.02145 0.0
          0.0234 -0.02145 0.0
          0.0221 -0.02145 0.0
          0.0208 -0.02145 0.0
          0.0195 -0.02145 0.0
          0.0182 -0.02145 0.0
          0.0169 -0.02145 0.0
          0.0156 -0.02145 0.0
          0.0143 -0.02145 0.0
          0.013 -0.02145 0.0
          0.0117 -0.02145 0.0
          0.0104 -0.02145 0.0
          0.0091 -0.02145 0.0
          0.0078 -0.02145 0.0
          0.0065 -0.02145 0.0
          0.0052 -0.02145 0.0
          0.0039 -0.02145 0.0
          0.0026 -0.02145 0.0
          0.0013 -0.02145 0.0
          0 -0.02145 0.0
          0.039 -0.02275 0.0
          0.0377 -0.02275 0.0
          0.0364 -0.02275 0.0
          0.0351 -0.02275 0.0
          0.0338 -0.02275 0.0
          0.0325 -0.02275 0.0
          0.0312 -0.02275 0.0
          0.0299 -0.02275 0.0
          0.0286 -0.02275 0.0
          0.0273 -0.02275 0.0
          0.026 -0.02275 0.0
          0.0247 -0.02275 0.0
          0.0234 -0.02275 0.0
          0.0221 -0.02275 0.0
          0.0208 -0.02275 0.0
          0.0195 -0.02275 0.0
          0.0182 -0.02275 0.0
          0.0169 -0.02275 0.0
          0.0156 -0.02275 0.0
          0.0143 -0.02275 0.0
          0.013 -0.02275 0.0
          0.0117 -0.02275 0.0
          0.0104 -0.02275 0.0
          0.0091 -0.02275 0.0
          0.0078 -0.02275 0.0
          0.0065 -0.02275 0.0
          0.0052 -0.02275 0.0
          0.0039 -0.02275 0.0
          0.0026 -0.02275 0.0
          0.0013 -0.02275 0.0
          0 -0.02275 0.0
          0.039 -0.02405 0.0
          0.0377 -0.02405 0.0
          0.0364 -0.02405 0.0
          0.0351 -0.02405 0.0
          0.0338 -0.02405 0.0
          0.0325 -0.02405 0.0
          0.0312 -0.02405 0.0
          0.0299 -0.02405 0.0
          0.0286 -0.02405 0.0
          0.0273 -0.02405 0.0
          0.026 -0.02405 0.0
          0.0247 -0.02405 0.0
          0.0234 -0.02405 0.0
          0.0221 -0.02405 0.0
          0.0208 -0.02405 0.0
          0.0195 -0.02405 0.0
          0.0182 -0.02405 0.0
          0.0169 -0.02405 0.0
          0.0156 -0.02405 0.0
          0.0143 -0.02405 0.0
          0.013 -0.02405 0.0
          0.0117 -0.02405 0.0
          0.0104 -0.02405 0.0
          0.0091 -0.02405 0.0
          0.0078 -0.02405 0.0
          0.0065 -0.02405 0.0
          0.0052 -0.02405 0.0
          0.0039 -0.02405 0.0
          0.0026 -0.02405 0.0
          0.0013 -0.02405 0.0
          0 -0.02405 0.0
          0.039 -0.02535 0.0
          0.0377 -0.02535 0.0
          0.0364 -0.02535 0.0
          0.0351 -0.02535 0.0
          0.0338 -0.02535 0.0
          0.0325 -0.02535 0.0
          0.0312 -0.02535 0.0
          0.0299 -0.02535 0.0
          0.0286 -0.02535 0.0
          0.0273 -0.02535 0.0
          0.026 -0.02535 0.0
          0.0247 -0.02535 0.0
          0.0234 -0.02535 0.0
          0.0221 -0.02535 0.0
          0.0208 -0.02535 0.0
          0.0195 -0.02535 0.0
          0.0182 -0.02535 0.0
          0.0169 -0.02535 0.0
          0.0156 -0.02535 0.0
          0.0143 -0.02535 0.0
          0.013 -0.02535 0.0
          0.0117 -0.02535 0.0
          0.0104 -0.02535 0.0
          0.0091 -0.02535 0.0
          0.0078 -0.02535 0.0
          0.0065 -0.02535 0.0
          0.0052 -0.02535 0.0
          0.0039 -0.02535 0.0
          0.0026 -0.02535 0.0
          0.0013 -0.02535 0.0
          0 -0.02535 0.0
          0.039 -0.02665 0.0
          0.0377 -0.02665 0.0
          0.0364 -0.02665 0.0
          0.0351 -0.02665 0.0
          0.0338 -0.02665 0.0
          0.0325 -0.02665 0.0
          0.0312 -0.02665 0.0
          0.0299 -0.02665 0.0
          0.0286 -0.02665 0.0
          0.0273 -0.02665 0.0
          0.026 -0.02665 0.0
          0.0247 -0.02665 0.0
          0.0234 -0.02665 0.0
          0.0221 -0.02665 0.0
          0.0208 -0.02665 0.0
          0.0195 -0.02665 0.0
          0.0182 -0.02665 0.0
          0.0169 -0.02665 0.0
          0.0156 -0.02665 0.0
          0.0143 -0.02665 0.0
          0.013 -0.02665 0.0
          0.0117 -0.02665 0.0
          0.0104 -0.02665 0.0
          0.0091 -0.02665 0.0
          0.0078 -0.02665 0.0
          0.0065 -0.02665 0.0
          0.0052 -0.02665 0.0
          0.0039 -0.02665 0.0
          0.0026 -0.02665 0.0
          0.0013 -0.02665 0.0
          0 -0.02665 0.0
          0.039 -0.02795 0.0
          0.0377 -0.02795 0.0
          0.0364 -0.02795 0.0
          0.0351 -0.02795 0.0
          0.0338 -0.02795 0.0
          0.0325 -0.02795 0.0
          0.0312 -0.02795 0.0
          0.0299 -0.02795 0.0
          0.0286 -0.02795 0.0
          0.0273 -0.02795 0.0
          0.026 -0.02795 0.0
          0.0247 -0.02795 0.0
          0.0234 -0.02795 0.0
          0.0221 -0.02795 0.0
          0.0208 -0.02795 0.0
          0.0195 -0.02795 0.0
          0.0182 -0.02795 0.0
          0.0169 -0.02795 0.0
          0.0156 -0.02795 0.0
          0.0143 -0.02795 0.0
          0.013 -0.02795 0.0
          0.0117 -0.02795 0.0
          0.0104 -0.02795 0.0
          0.0091 -0.02795 0.0
          0.0078 -0.02795 0.0
          0.0065 -0.02795 0.0
          0.0052 -0.02795 0.0
          0.0039 -0.02795 0.0
          0.0026 -0.02795 0.0
          0.0013 -0.02795 0.0
          0 -0.02795 0.0
          0.039 -0.02925 0.0
          0.0377 -0.02925 0.0
          0.0364 -0.02925 0.0
          0.0351 -0.02925 0.0
          0.0338 -0.02925 0.0
          0.0325 -0.02925 0.0
          0.0312 -0.02925 0.0
          0.0299 -0.02925 0.0
          0.0286 -0.02925 0.0
          0.0273 -0.02925 0.0
          0.026 -0.02925 0.0
          0.0247 -0.02925 0.0
          0.0234 -0.02925 0.0
          0.0221 -0.02925 0.0
          0.0208 -0.02925 0.0
          0.0195 -0.02925 0.0
          0.0182 -0.02925 0.0
          0.0169 -0.02925 0.0
          0.0156 -0.02925 0.0
          0.0143 -0.02925 0.0
          0.013 -0.02925 0.0
          0.0117 -0.02925 0.0
          0.0104 -0.02925 0.0
          0.0091 -0.02925 0.0
          0.0078 -0.02925 0.0
          0.0065 -0.02925 0.0
          0.0052 -0.02925 0.0
          0.0039 -0.02925 0.0
          0.0026 -0.02925 0.0
          0.0013 -0.02925 0.0
          0 -0.02925 0.0
          0.039 -0.03055 0.0
          0.0377 -0.03055 0.0
          0.0364 -0.03055 0.0
          0.0351 -0.03055 0.0
          0.0338 -0.03055 0.0
          0.0325 -0.03055 0.0
          0.0312 -0.03055 0.0
          0.0299 -0.03055 0.0
          0.0286 -0.03055 0.0
          0.0273 -0.03055 0.0
          0.026 -0.03055 0.0
          0.0247 -0.03055 0.0
          0.0234 -0.03055 0.0
          0.0221 -0.03055 0.0
          0.0208 -0.03055 0.0
          0.0195 -0.03055 0.0
          0.0182 -0.03055 0.0
          0.0169 -0.03055 0.0
          0.0156 -0.03055 0.0
          0.0143 -0.03055 0.0
          0.013 -0.03055 0.0
          0.0117 -0.03055 0.0
          0.0104 -0.03055 0.0
          0.0091 -0.03055 0.0
          0.0078 -0.03055 0.0
          0.0065 -0.03055 0.0
          0.0052 -0.03055 0.0
          0.0039 -0.03055 0.0
          0.0026 -0.03055 0.0
          0.0013 -0.03055 0.0
          0 -0.03055 0.0
          0.039 -0.03185 0.0
          0.0377 -0.03185 0.0
          0.0364 -0.03185 0.0
          0.0351 -0.03185 0.0
          0.0338 -0.03185 0.0
          0.0325 -0.03185 0.0
          0.0312 -0.03185 0.0
          0.0299 -0.03185 0.0
          0.0286 -0.03185 0.0
          0.0273 -0.03185 0.0
          0.026 -0.03185 0.0
          0.0247 -0.03185 0.0
          0.0234 -0.03185 0.0
          0.0221 -0.03185 0.0
          0.0208 -0.03185 0.0
          0.0195 -0.03185 0.0
          0.0182 -0.03185 0.0
          0.0169 -0.03185 0.0
          0.0156 -0.03185 0.0
          0.0143 -0.03185 0.0
          0.013 -0.03185 0.0
          0.0117 -0.03185 0.0
          0.0104 -0.03185 0.0
          0.0091 -0.03185 0.0
          0.0078 -0.03185 0.0
          0.0065 -0.03185 0.0
          0.0052 -0.03185 0.0
          0.0039 -0.03185 0.0
          0.0026 -0.03185 0.0
          0.0013 -0.03185 0.0
          0 -0.03185 0.0
          0.039 -0.03315 0.0
          0.0377 -0.03315 0.0
          0.0364 -0.03315 0.0
          0.0351 -0.03315 0.0
          0.0338 -0.03315 0.0
          0.0325 -0.03315 0.0
          0.0312 -0.03315 0.0
          0.0299 -0.03315 0.0
          0.0286 -0.03315 0.0
          0.0273 -0.03315 0.0
          0.026 -0.03315 0.0
          0.0247 -0.03315 0.0
          0.0234 -0.03315 0.0
          0.0221 -0.03315 0.0
          0.0208 -0.03315 0.0
          0.0195 -0.03315 0.0
          0.0182 -0.03315 0.0
          0.0169 -0.03315 0.0
          0.0156 -0.03315 0.0
          0.0143 -0.03315 0.0
          0.013 -0.03315 0.0
          0.0117 -0.03315 0.0
          0.0104 -0.03315 0.0
          0.0091 -0.03315 0.0
          0.0078 -0.03315 0.0
          0.0065 -0.03315 0.0
          0.0052 -0.03315 0.0
          0.0039 -0.03315 0.0
          0.0026 -0.03315 0.0
          0.0013 -0.03315 0.0
          0 -0.03315 0.0
          0.039 -0.03445 0.0
          0.0377 -0.03445 0.0
          0.0364 -0.03445 0.0
          0.0351 -0.03445 0.0
          0.0338 -0.03445 0.0
          0.0325 -0.03445 0.0
          0.0312 -0.03445 0.0
          0.0299 -0.03445 0.0
          0.0286 -0.03445 0.0
          0.0273 -0.03445 0.0
          0.026 -0.03445 0.0
          0.0247 -0.03445 0.0
          0.0234 -0.03445 0.0
          0.0221 -0.03445 0.0
          0.0208 -0.03445 0.0
          0.0195 -0.03445 0.0
          0.0182 -0.03445 0.0
          0.0169 -0.03445 0.0
          0.0156 -0.03445 0.0
          0.0143 -0.03445 0.0
          0.013 -0.03445 0.0
          0.0117 -0.03445 0.0
          0.0104 -0.03445 0.0
          0.0091 -0.03445 0.0
          0.0078 -0.03445 0.0
          0.0065 -0.03445 0.0
          0.0052 -0.03445 0.0
          0.0039 -0.03445 0.0
          0.0026 -0.03445 0.0
          0.0013 -0.03445 0.0
          0 -0.03445 0.0
          0.039 -0.03575 0.0
          0.0377 -0.03575 0.0
          0.0364 -0.03575 0.0
          0.0351 -0.03575 0.0
          0.0338 -0.03575 0.0
          0.0325 -0.03575 0.0
          0.0312 -0.03575 0.0
          0.0299 -0.03575 0.0
          0.0286 -0.03575 0.0
          0.0273 -0.03575 0.0
          0.026 -0.03575 0.0
          0.0247 -0.03575 0.0
          0.0234 -0.03575 0.0
          0.0221 -0.03575 0.0
          0.0208 -0.03575 0.0
          0.0195 -0.03575 0.0
          0.0182 -0.03575 0.0
          0.0169 -0.03575 0.0
          0.0156 -0.03575 0.0
          0.0143 -0.03575 0.0
          0.013 -0.03575 0.0
          0.0117 -0.03575 0.0
          0.0104 -0.03575 0.0
          0.0091 -0.03575 0.0
          0.0078 -0.03575 0.0
          0.0065 -0.03575 0.0
          0.0052 -0.03575 0.0
          0.0039 -0.03575 0.0
          0.0026 -0.03575 0.0
          0.0013 -0.03575 0.0
          0 -0.03575 0.0
          0.039 -0.03705 0.0
          0.0377 -0.03705 0.0
          0.0364 -0.03705 0.0
          0.0351 -0.03705 0.0
          0.0338 -0.03705 0.0
          0.0325 -0.03705 0.0
          0.0312 -0.03705 0.0
          0.0299 -0.03705 0.0
          0.0286 -0.03705 0.0
          0.0273 -0.03705 0.0
          0.026 -0.03705 0.0
          0.0247 -0.03705 0.0
          0.0234 -0.03705 0.0
          0.0221 -0.03705 0.0
          0.0208 -0.03705 0.0
          0.0195 -0.03705 0.0
          0.0182 -0.03705 0.0
          0.0169 -0.03705 0.0
          0.0156 -0.03705 0.0
          0.0143 -0.03705 0.0
          0.013 -0.03705 0.0
          0.0117 -0.03705 0.0
          0.0104 -0.03705 0.0
          0.0091 -0.03705 0.0
          0.0078 -0.03705 0.0
          0.0065 -0.03705 0.0
          0.0052 -0.03705 0.0
          0.0039 -0.03705 0.0
          0.0026 -0.03705 0.0
          0.0013 -0.03705 0.0
          0 -0.03705 0.0
        </DataArray>
      </Points>
      <Cells>
        <DataArray type="Int32" Name="connectivity" format="ascii">
          0 1 32 31 
          1 2 33 32 
          2 3 34 33 
          3 4 35 34 
          4 5 36 35 
          5 6 37 36 
          6 7 38 37 
          7 8 39 38 
          8 9 40 39 
          9 10 41 40 
          10 11 42 41 
          11 12 43 42 
          12 13 44 43 
          13 14 45 44 
          14 15 46 45 
          15 16 47 46 
          16 17 48 47 
          17 18 49 48 
          18 19 50 49 
          19 20 51 50 
          20 21 52 51 
          21 22 53 52 
          22 23 54 53 
          23 24 55 54 
          24 25 56 55 
          25 26 57 56 
          26 27 58 57 
          27 28 59 58 
          28 29 60 59 
          29 30 61 60 
          31 32 63 62 
          32 33 64 63 
          33 34 65 64 
          34 35 66 65 
          35 36 67 66 
          36 37 68 67 
          37 38 69 68 
          38 39 70 69 
          39 40 71 70 
          40 41 72 71 
          41 42 73 72 
          42 43 74 73 
          43 44 75 74 
          44 45 76 75 
          45 46 77 76 
          46 47 78 77 
          47 48 79 78 
          48 49 80 79 
          49 50 81 80 
          50 51 82 81 
          51 52 83 82 
          52 53 84 83 
          53 54 85 84 
          54 55 86 85 
          55 56 87 86 
          56 57 88 87 
          57 58 89 88 
          58 59 90 89 
          59 60 91 90 
          60 61 92 91 
          62 63 94 93 
          63 64 95 94 
          64 65 96 95 
          65 66 97 96 
          66 67 98 97 
          67 68 99 98 
          68 69 100 99 
          69 70 101 100 
          70 71 102 101 
          71 72 103 102 
          72 73 104 103 
          73 74 105 104 
          74 75 106 105 
          75 76 107 106 
          76 77 108 107 
          77 78 109 108 
          78 79 110 109 
          79 80 111 110 
          80 81 112 111 
          81 82 113 112 
          82 83 114 113 
          83 84 115 114 
          84 85 116 115 
          85 86 117 116 
          86 87 118 117 
          87 88 119 118 
          88 89 120 119 
          89 90 121 120 
          90 91 122 121 
          91 92 123 122 
          93 94 125 124 
          94 95 126 125 
          95 96 127 126 
          96 97 128 127 
          97 98 129 128 
          98 99 130 129 
          99 100 131 130 
          100 101 132 131 
          101 102 133 132 
          102 103 134 133 
          103 104 135 134 
          104 105 136 135 
          105 106 137 136 
          106 107 138 137 
          107 108 139 138 
          108 109 140 139 
          109 110 141 140 
          110 111 142 141 
          111 112 143 142 
          112 113 144 143 
          113 114 145 144 
          114 115 146 145 
          115 116 147 146 
          116 117 148 147 
          117 118 149 148 
          118 119 150 149 
          119 120 151 150 
          120 121 152 151 
          121 122 153 152 
          122 123 154 153 
          124 125 156 155 
          125 126 157 156 
          126 127 158 157 
          127 128 159 158 
          128 129 160 159 
          129 130 161 160 
          130 131 162 161 
          131 132 163 162 
          132 133 164 163 
          133 134 165 164 
          134 135 166 165 
          135 136 167 166 
          136 137 168 167 
          137 138 169 168 
          138 139 170 169 
          139 140 171 170 
          140 141 172 171 
          141 142 173 172 
          142 143 174 173 
          143 144 175 174 
          144 145 176 175 
          145 146 177 176 
          146 147 178 177 
          147 148 179 178 
          148 149 180 179 
          149 150 181 180 
          150 151 182 181 
          151 152 183 182 
          152 153 184 183 
          153 154 185 184 
          155 156 187 186 
          156 157 188 187 
          157 158 189 188 
          158 159 190 189 
          159 160 191 190 
          160 161 192 191 
          161 162 193 192 
          162 163 194 193 
          163 164 195 194 
          164 165 196 195 
          165 166 197 196 
          166 167 198 197 
          167 168 199 198 
          168 169 200 199 
          169 170 201 200 
          170 171 202 201 
          171 172 203 202 
          172 173 204 203 
          173 174 205 204 
          174 175 206 205 
          175 176 207 206 
          176 177 208 207 
          177 178 209 208 
          178 179 210 209 
          179 180 211 210 
          180 181 212 211 
          181 182 213 212 
          182 183 214 213 
          183 184 215 214 
          184 185 216 215 
          186 187 218 217 
          187 188 219 218 
          188 189 220 219 
          189 190 221 220 
          190 191 222 221 
          191 192 223 222 
          192 193 224 223 
          193 194 225 224 
          194 195 226 225 
          195 196 227 226 
          196 197 228 227 
          197 198 229 228 
          198 199 230 229 
          199 200 231 230 
          200 201 232 231 
          201 202 233 232 
          202 203 234 233 
          203 204 235 234 
          204 205 236 235 
          205 206 237 236 
          206 207 238 237 
          207 208 239 238 
          208 209 240 239 
          209 210 241 240 
          210 211 242 241 
          211 212 243 242 
          212 213 244 243 
          213 214 245 244 
          214 215 246 245 
          215 216 247 246 
          217 218 249 248 
          218 219 250 249 
          219 220 251 250 
          220 221 252 251 
          221 222 253 252 
          222 223 254 253 
          223 224 255 254 
          224 225 256 255 
          225 226 257 256 
          226 227 258 257 
          227 228 259 258 
          228 229 260 259 
          229 230 261 260 
          230 231 262 261 
          231 232 263 262 
          232 233 264 263 
          233 234 265 264 
          234 235 266 265 
          235 236 267 266 
          236 237 268 267 
          237 238 269 268 
          238 239 270 269 
          239 240 271 270 
          240 241 272 271 
          241 242 273 272 
          242 243 274 273 
          243 244 275 274 
          244 245 276 275 
          245 246 277 276 
          246 247 278 277 
          248 249 280 279 
          249 250 281 280 
          250 251 282 281 
          251 252 283 282 
          252 253 284 283 
          253 254 285 284 
          254 255 286 285 
          255 256 287 286 
          256 257 288 287 
          257 258 289 288 
          258 259 290 289 
          259 260 291 290 
          260 261 292 291 
          261 262 293 292 
          262 263 294 293 
          263 264 295 294 
          264 265 296 295 
          265 266 297 296 
          266 267 298 297 
          267 268 299 298 
          268 269 300 299 
          269 270 301 300 
          270 271 302 301 
          271 272 303 302 
          272 273 304 303 
          273 274 305 304 
          274 275 306 305 
          275 276 307 306 
          276 277 308 307 
          277 278 309 308 
          279 280 311 310 
          280 281 312 311 
          281 282 313 312 
          282 283 314 313 
          283 284 315 314 
          284 285 316 315 
          285 286 317 316 
          286 287 318 317 
          287 288 319 318 
          288 289 320 319 
          289 290 321 320 
          290 291 322 321 
          291 292 323 322 
          292 293 324 323 
          293 294 325 324 
          294 295 326 325 
          295 296 327 326 
          296 297 328 327 
          297 298 329 328 
          298 299 330 329 
          299 300 331 330 
          300 301 332 331 
          301 302 333 332 
          302 303 334 333 
          303 304 335 334 
          304 305 336 335 
          305 306 337 336 
          306 307 338 337 
          307 308 339 338 
          308 309 340 339 
          310 311 342 341 
          311 312 343 342 
          312 313 344 343 
          313 314 345 344 
          314 315 346 345 
          315 316 347 346 
          316 317 348 347 
          317 318 349 348 
          318 319 350 349 
          319 320 351 350 
          320 321 352 351 
          321 322 353 352 
          322 323 354 353 
          323 324 355 354 
          324 325 356 355 
          325 326 357 356 
          326 327 358 357 
          327 328 359 358 
          328 329 360 359 
          329 330 361 360 
          330 331 362 361 
          331 332 363 362 
          332 333 364 363 
          333 334 365 364 
          334 335 366 365 
          335 336 367 366 
          336 337 368 367 
          337 338 369 368 
          338 339 370 369 
          339 340 371 370 
          341 342 373 372 
          342 343 374 373 
          343 344 375 374 
          344 345 376 375 
          345 346 377 376 
          346 347 378 377 
          347 348 379 378 
          348 349 380 379 
          349 350 381 380 
          350 351 382 381 
          351 352 383 382 
          352 353 384 383 
          353 354 385 384 
          354 355 386 385 
          355 356 387 386 
          356 357 388 387 
          357 358 389 388 
          358 359 390 389 
          359 360 391 390 
          360 361 392 391 
          361 362 393 392 
          362 363 394 393 
          363 364 395 394 
          364 365 396 395 
          365 366 397 396 
          366 367 398 397 
          367 368 399 398 
          368 369 400 399 
          369 370 401 400 
          370 371 402 401 
          372 373 404 403 
          373 374 405 404 
          374 375 406 405 
          375 376 407 406 
          376 377 408 407 
          377 378 409 408 
          378 379 410 409 
          379 380 411 410 
          380 381 412 411 
          381 382 413 412 
          382 383 414 413 
          383 384 415 414 
          384 385 416 415 
          385 386 417 416 
          386 387 418 417 
          387 388 419 418 
          388 389 420 419 
          389 390 421 420 
          390 391 422 421 
          391 392 423 422 
          392 393 424 423 
          393 394 425 424 
          394 395 426 425 
          395 396 427 426 
          396 397 428 427 
          397 398 429 428 
          398 399 430 429 
          399 400 431 430 
          400 401 432 431 
          401 402 433 432 
          403 404 435 434 
          404 405 436 435 
          405 406 437 436 
          406 407 438 437 
          407 408 439 438 
          408 409 440 439 
          409 410 441 440 
          410 411 442 441 
          411 412 443 442 
          412 413 444 443 
          413 414 445 444 
          414 415 446 445 
          415 416 447 446 
          416 417 448 447 
          417 418 449 448 
          418 419 450 449 
          419 420 451 450 
          420 421 452 451 
          421 422 453 452 
          422 423 454 453 
          423 424 455 454 
          424 425 456 455 
          425 426 457 456 
          426 427 458 457 
          427 428 459 458 
          428 429 460 459 
          429 430 461 460 
          430 431 462 461 
          431 432 463 462 
          432 433 464 463 
          434 435 466 465 
          435 436 467 466 
          436 437 468 467 
          437 438 469 468 
          438 439 470 469 
          439 440 471 470 
          440 441 472 471 
          441 442 473 472 
          442 443 474 473 
          443 444 475 474 
          444 445 476 475 
          445 446 477 476 
          446 447 478 477 
          447 448 479 478 
          448 449 480 479 
          449 450 481 480 
          450 451 482 481 
          451 452 483 482 
          452 453 484 483 
          453 454 485 484 
          454 455 486 485 
          455 456 487 486 
          456 457 488 487 
          457 458 489 488 
          458 459 490 489 
          459 460 491 490 
          460 461 492 491 
          461 462 493 492 
          462 463 494 493 
          463 464 495 494 
          465 466 497 496 
          466 467 498 497 
          467 468 499 498 
          468 469 500 499 
          469 470 501 500 
          470 471 502 501 
          471 472 503 502 
          472 473 504 503 
          473 474 505 504 
          474 475 506 505 
          475 476 507 506 
          476 477 508 507 
          477 478 509 508 
          478 479 510 509 
          479 480 511 510 
          480 481 512 511 
          481 482 513 512 
          482 483 514 513 
          483 484 515 514 
          484 485 516 515 
          485 486 517 516 
          486 487 518 517 
          487 488 519 518 
          488 489 520 519 
          489 490 521 520 
          490 491 522 521 
          491 492 523 522 
          492 493 524 523 
          493 494 525 524 
          494 495 526 525 
          496 497 528 527 
          497 498 529 528 
          498 499 530 529 
          499 500 531 530 
          500 501 532 531 
          501 502 533 532 
          502 503 534 533 
          503 504 535 534 
          504 505 536 535 
          505 506 537 536 
          506 507 538 537 
          507 508 539 538 
          508 509 540 539 
          509 510 541 540 
          510 511 542 541 
          511 512 543 542 
          512 513 544 543 
          513 514 545 544 
          514 515 546 545 
          515 516 547 546 
          516 517 548 547 
          517 518 549 548 
          518 519 550 549 
          519 520 551 550 
          520 521 552 551 
          521 522 553 552 
          522 523 554 553 
          523 524 555 554 
          524 525 556 555 
          525 526 557 556 
          527 528 559 558 
          528 529 560 559 
          529 530 561 560 
          530 531 562 561 
          531 532 563 562 
          532 533 564 563 
          533 534 565 564 
          534 535 566 565 
          535 536 567 566 
          536 537 568 567 
          537 538 569 568 
          538 539 570 569 
          539 540 571 570 
          540 541 572 571 
          541 542 573 572 
          542 543 574 573 
          543 544 575 574 
          544 545 576 575 
          545 546 577 576 
          546 547 578 577 
          547 548 579 578 
          548 549 580 579 
          549 550 581 580 
          550 551 582 581 
          551 552 583 582 
          552 553 584 583 
          553 554 585 584 
          554 555 586 585 
          555 556 587 586 
          556 557 588 587 
          558 559 590 589 
          559 560 591 590 
          560 561 592 591 
          561 562 593 592 
          562 563 594 593 
          563 564 595 594 
          564 565 596 595 
          565 566 597 596 
          566 567 598 597 
          567 568 599 598 
          568 569 600 599 
          569 570 601 600 
          570 571 602 601 
          571 572 603 602 
          572 573 604 603 
          573 574 605 604 
          574 575 606 605 
          575 576 607 606 
          576 577 608 607 
          577 578 609 608 
          578 579 610 609 
          579 580 611 610 
          580 581 612 611 
          581 582 613 612 
          582 583 614 613 
          583 584 615 614 
          584 585 616 615 
          585 586 617 616 
          586 587 618 617 
          587 588 619 618 
          589 590 621 620 
          590 591 622 621 
          591 592 623 622 
          592 593 624 623 
          593 594 625 624 
          594 595 626 625 
          595 596 627 626 
          596 597 628 627 
          597 598 629 628 
          598 599 630 629 
          599 600 631 630 
          600 601 632 631 
          601 602 633 632 
          602 603 634 633 
          603 604 635 634 
          604 605 636 635 
          605 606 637 636 
          606 607 638 637 
          607 608 639 638 
          608 609 640 639 
          609 610 641 640 
          610 611 642 641 
          611 612 643 642 
          612 613 644 643 
          613 614 645 644 
          614 615 646 645 
          615 616 647 646 
          616 617 648 647 
          617 618 649 648 
          618 619 650 649 
          620 621 652 651 
          621 622 653 652 
          622 623 654 653 
          623 624 655 654 
          624 625 656 655 
          625 626 657 656 
          626 627 658 657 
          627 628 659 658 
          628 629 660 659 
          629 630 661 660 
          630 631 662 661 
          631 632 663 662 
          632 633 664 663 
          633 634 665 664 
          634 635 666 665 
          635 636 667 666 
          636 637 668 667 
          637 638 669 668 
          638 639 670 669 
          639 640 671 670 
          640 641 672 671 
          641 642 673 672 
          642 643 674 673 
          643 644 675 674 
          644 645 676 675 
          645 646 677 676 
          646 647 678 677 
          647 648 679 678 
          648 649 680 679 
          649 650 681 680 
          651 652 683 682 
          652 653 684 683 
          653 654 685 684 
          654 655 686 685 
          655 656 687 686 
          656 657 688 687 
          657 658 689 688 
          658 659 690 689 
          659 660 691 690 
          660 661 692 691 
          661 662 693 692 
          662 663 694 693 
          663 664 695 694 
          664 665 696 695 
          665 666 697 696 
          666 667 698 697 
          667 668 699 698 
          668 669 700 699 
          669 670 701 700 
          670 671 702 701 
          671 672 703 702 
          672 673 704 703 
          673 674 705 704 
          674 675 706 705 
          675 676 707 706 
          676 677 708 707 
          677 678 709 708 
          678 679 710 709 
          679 680 711 710 
          680 681 712 711 
          682 683 714 713 
          683 684 715 714 
          684 685 716 715 
          685 686 717 716 
          686 687 718 717 
          687 688 719 718 
          688 689 720 719 
          689 690 721 720 
          690 691 722 721 
          691 692 723 722 
          692 693 724 723 
          693 694 725 724 
          694 695 726 725 
          695 696 727 726 
          696 697 728 727 
          697 698 729 728 
          698 699 730 729 
          699 700 731 730 
          700 701 732 731 
          701 702 733 732 
          702 703 734 733 
          703 704 735 734 
          704 705 736 735 
          705 706 737 736 
          706 707 738 737 
          707 708 739 738 
          708 709 740 739 
          709 710 741 740 
          710 711 742 741 
          711 712 743 742 
          713 714 745 744 
          714 715 746 745 
          715 716 747 746 
          716 717 748 747 
          717 718 749 748 
          718 719 750 749 
          719 720 751 750 
          720 721 752 751 
          721 722 753 752 
          722 723 754 753 
          723 724 755 754 
          724 725 756 755 
          725 726 757 756 
          726 727 758 757 
          727 728 759 758 
          728 729 760 759 
          729 730 761 760 
          730 731 762 761 
          731 732 763 762 
          732 733 764 763 
          733 734 765 764 
          734 735 766 765 
          735 736 767 766 
          736 737 768 767 
          737 738 769 768 
          738 739 770 769 
          739 740 771 770 
          740 741 772 771 
          741 742 773 772 
          742 743 774 773 
          744 745 776 775 
          745 746 777 776 
          746 747 778 777 
          747 748 779 778 
          748 749 780 779 
          749 750 781 780 
          750 751 782 781 
          751 752 783 782 
          752 753 784 783 
          753 754 785 784 
          754 755 786 785 
          755 756 787 786 
          756 757 788 787 
          757 758 789 788 
          758 759 790 789 
          759 760 791 790 
          760 761 792 791 
          761 762 793 792 
          762 763 794 793 
          763 764 795 794 
          764 765 796 795 
          765 766 797 796 
          766 767 798 797 
          767 768 799 798 
          768 769 800 799 
          769 770 801 800 
          770 771 802 801 
          771 772 803 802 
          772 773 804 803 
          773 774 805 804 
          775 776 807 806 
          776 777 808 807 
          777 778 809 808 
          778 779 810 809 
          779 780 811 810 
          780 781 812 811 
          781 782 813 812 
          782 783 814 813 
          783 784 815 814 
          784 785 816 815 
          785 786 817 816 
          786 787 818 817 
          787 788 819 818 
          788 789 820 819 
          789 790 821 820 
          790 791 822 821 
          791 792 823 822 
          792 793 824 823 
          793 794 825 824 
          794 795 826 825 
          795 796 827 826 
          796 797 828 827 
          797 798 829 828 
          798 799 830 829 
          799 800 831 830 
          800 801 832 831 
          801 802 833 832 
          802 803 834 833 
          803 804 835 834 
          804 805 836 835 
          806 807 838 837 
          807 808 839 838 
          808 809 840 839 
          809 810 841 840 
          810 811 842 841 
          811 812 843 842 
          812 813 844 843 
          813 814 845 844 
          814 815 846 845 
          815 816 847 846 
          816 817 848 847 
          817 818 849 848 
          818 819 850 849 
          819 820 851 850 
          820 821 852 851 
          821 822 853 852 
          822 823 854 853 
          823 824 855 854 
          824 825 856 855 
          825 826 857 856 
          826 827 858 857 
          827 828 859 858 
          828 829 860 859 
          829 830 861 860 
          830 831 862 861 
          831 832 863 862 
          832 833 864 863 
          833 834 865 864 
          834 835 866 865 
          835 836 867 866 
          837 838 869 868 
          838 839 870 869 
          839 840 871 870 
          840 841 872 871 
          841 842 873 872 
          842 843 874 873 
          843 844 875 874 
          844 845 876 875 
          845 846 877 876 
          846 847 878 877 
          847 848 879 878 
          848 849 880 879 
          849 850 881 880 
          850 851 882 881 
          851 852 883 882 
          852 853 884 883 
          853 854 885 884 
          854 855 886 885 
          855 856 887 886 
          856 857 888 887 
          857 858 889 888 
          858 859 890 889 
          859 860 891 890 
          860 861 892 891 
          861 862 893 892 
          862 863 894 893 
          863 864 895 894 
          864 865 896 895 
          865 866 897 896 
          866 867 898 897 
          868 869 900 899 
          869 870 901 900 
          870 871 902 901 
          871 872 903 902 
          872 873 904 903 
          873 874 905 904 
          874 875 906 905 
          875 876 907 906 
          876 877 908 907 
          877 878 909 908 
          878 879 910 909 
          879 880 911 910 
          880 881 912 911 
          881 882 913 912 
          882 883 914 913 
          883 884 915 914 
          884 885 916 915 
          885 886 917 916 
          886 887 918 917 
          887 888 919 918 
          888 889 920 919 
          889 890 921 920 
          890 891 922 921 
          891 892 923 922 
          892 893 924 923 
          893 894 925 924 
          894 895 926 925 
          895 896 927 926 
          896 897 928 927 
          897 898 929 928 
          899 900 931 930 
          900 901 932 931 
          901 902 933 932 
          902 903 934 933 
          903 904 935 934 
          904 905 936 935 
          905 906 937 936 
          906 907 938 937 
          907 908 939 938 
          908 909 940 939 
          909 910 941 940 
          910 911 942 941 
          911 912 943 942 
          912 913 944 943 
          913 914 945 944 
          914 915 946 945 
          915 916 947 946 
          916 917 948 947 
          917 918 949 948 
          918 919 950 949 
          919 920 951 950 
          920 921 952 951 
          921 922 953 952 
          922 923 954 953 
          923 924 955 954 
          924 925 956 955 
          925 926 957 956 
          926 927 958 957 
          927 928 959 958 
          928 929 960 959 
        </DataArray>
        <DataArray type="Int32" Name="offsets" format="ascii">
          4
          8
          12
          16
          20
          24
          28
          32
          36
          40
          44
          48
          52
          56
          60
          64
          68
          72
          76
          80
          84
          88
          92
          96
          100
          104
          108
          112
          116
          120
          124
          128
          132
          136
          140
          144
          148
          152
          156
          160
          164
          168
          172
          176
          180
          184
          188
          192
          196
          200
          204
          208
          212
          216
          220
          224
          228
          232
          236
          240
          244
          248
          252
          256
          260
          264
          268
          272
          276
          280
          284
          288
          292
          296
          300
          304
          308
          312
          316
          320
          324
          328
          332
          336
          340
          344
          348
          352
          356
          360
          364
          368
          372
          376
          380
          384
          388
          392
          396
          400
          404
          408
          412
          416
          420
          424
          428
          432
          436
          440
          444
          448
          452
          456
          460
          464
          468
          472
          476
          480
          484
          488
          492
          496
          500
          504
          508
          512
          516
          520
          524
          528
          532
          536
          540
          544
          548
          552
          556
          560
          564
          568
          572
          576
          580
          584
          588
          592
          596
          600
          604
          608
          612
          616
          620
          624
          628
          632
          636
          640
          644
          648
          652
          656
          660
          664
          668
          672
          676
          680
          684
          688
          692
          696
          700
          704
          708
          712
          716
          720
          724
          728
          732
          736
          740
          744
          748
          752
          756
          760
          764
          768
          772
          776
          780
          784
          788
          792
          796
          800
          804
          808
          812
          816
          820
          824
          828
          832
          836
          840
          844
          848
          852
          856
          860
          864
          868
          872
          876
          880
          884
          888
          892
          896
          900
          904
          908
          912
          916
          920
          924
          928
          932
          936
          940
          944
          948
          952
          956
          960
          964
          968
          972
          976
          980
          984
          988
          992
          996
          1000
          1004
          1008
          1012
          1016
          1020
          1024
          1028
          1032
          1036
          1040
          1044
          1048
          1052
          1056
          1060
          1064
          1068
          1072
          1076
          1080
          1084
          1088
          1092
          1096
          1100
          1104
          1108
          1112
          1116
          1120
          1124
          1128
          1132
          1136
          1140
          1144
          1148
          1152
          1156
          1160
          1164
          1168
          1172
          1176
          1180
          1184
          1188
          1192
          1196
          1200
          1204
          1208
          1212
          1216
          1220
          1224
          1228
          1232
          1236
          1240
          1244
          1248
          1252
          1256
          1260
          1264
          1268
          1272
          1276
          1280
          1284
          1288
          1292
          1296
          1300
          1304
          1308
          1312
          1316
          1320
          1324
          1328
          1332
          1336
          1340
          1344
          1348
          1352
          1356
          1360
          1364
          1368
          1372
          1376
          1380
          1384
          1388
          1392
          1396
          1400
          1404
          1408
          1412
          1416
          1420
          1424
          1428
          1432
          1436
          1440
          1444
          1448
          1452
          1456
          1460
          1464
          1468
          1472
          1476
          1480
          1484
          1488
          1492
          1496
          1500
          1504
          1508
          1512
          1516
          1520
          1524
          1528
          1532
          1536
          1540
          1544
          1548
          1552
          1556
          1560
          1564
          1568
          1572
          1576
          1580
          1584
          1588
          1592
          1596
          1600
          1604
          1608
          1612
          1616
          1620
          1624
          1628
          1632
          1636
          1640
          1644
          1648
          1652
          1656
          1660
          1664
          1668
          1672
          1676
          1680
          1684
          1688
          1692
          1696
          1700
          1704
          1708
          1712
          1716
          1720
          1724
          1728
          1732
          1736
          1740
          1744
          1748
          1752
          1756
          1760
          1764
          1768
          1772
          1776
          1780
          1784
          1788
          1792
          1796
          1800
          1804
          1808
          1812
          1816
          1820
          1824
          1828
          1832
          1836
          1840
          1844
          1848
          1852
          1856
          1860
          1864
          1868
          1872
          1876
          1880
          1884
          1888
          1892
          1896
          1900
          1904
          1908
          1912
          1916
          1920
          1924
          1928
          1932
          1936
          1940
          1944
          1948
          1952
          1956
          1960
          1964
          1968
          1972
          1976
          1980
          1984
          1988
          1992
          1996
          2000
          2004
          2008
          2012
          2016
          2020
          2024
          2028
          2032
          2036
          2040
          2044
          2048
          2052
          2056
          2060
          2064
          2068
          2072
          2076
          2080
          2084
          2088
          2092
          2096
          2100
          2104
          2108
          2112
          2116
          2120
          2124
          2128
          2132
          2136
          2140
          2144
          2148
          2152
          2156
          2160
          2164
          2168
          2172
          2176
          2180
          2184
          2188
          2192
          2196
          2200
          2204
          2208
          2212
          2216
          2220
          2224
          2228
          2232
          2236
          2240
          2244
          2248
          2252
          2256
          2260
          2264
          2268
          2272
          2276
          2280
          2284
          2288
          2292
          2296
          2300
          2304
          2308
          2312
          2316
          2320
          2324
          2328
          2332
          2336
          2340
          2344
          2348
          2352
          2356
          2360
          2364
          2368
          2372
          2376
          2380
          2384
          2388
          2392
          2396
          2400
          2404
          2408
          2412
          2416
          2420
          2424
          2428
          2432
          2436
          2440
          2444
          2448
          2452
          2456
          2460
          2464
          2468
          2472
          2476
          2480
          2484
          2488
          2492
          2496
          2500
          2504
          2508
          2512
          2516
          2520
          2524
          2528
          2532
          2536
          2540
          2544
          2548
          2552
          2556
          2560
          2564
          2568
          2572
          2576
          2580
          2584
          2588
          2592
          2596
          2600
          2604
          2608
          2612
          2616
          2620
          2624
          2628
          2632
          2636
          2640
          2644
          2648
          2652
          2656
          2660
          2664
          2668
          2672
          2676
          2680
          2684
          2688
          2692
          2696
          2700
          2704
          2708
          2712
          2716
          2720
          2724
          2728
          2732
          2736
          2740
          2744
          2748
          2752
          2756
          2760
          2764
          2768
          2772
          2776
          2780
          2784
          2788
          2792
          2796
          2800
          2804
          2808
          2812
          2816
          2820
          2824
          2828
          2832
          2836
          2840
          2844
          2848
          2852
          2856
          2860
          2864
          2868
          2872
          2876
          2880
          2884
          2888
          2892
          2896
          2900
          2904
          2908
          2912
          2916
          2920
          2924
          2928
          2932
          2936
          2940
          2944
          2948
          2952
          2956
          2960
          2964
          2968
          2972
          2976
          2980
          2984
          2988
          2992
          2996
          3000
          3004
          3008
          3012
          3016
          3020
          3024
          3028
          3032
          3036
          3040
          3044
          3048
          3052
          3056
          3060
          3064
          3068
          3072
          3076
          3080
          3084
          3088
          3092
          3096
          3100
          3104
          3108
          3112
          3116
          3120
          3124
          3128
          3132
          3136
          3140
          3144
          3148
          3152
          3156
          3160
          3164
          3168
          3172
          3176
          3180
          3184
          3188
          3192
          3196
          3200
          3204
          3208
          3212
          3216
          3220
          3224
          3228
          3232
          3236
          3240
          3244
          3248
          3252
          3256
          3260
          3264
          3268
          3272
          3276
          3280
          3284
          3288
          3292
          3296
          3300
          3304
          3308
          3312
          3316
          3320
          3324
          3328
          3332
          3336
          3340
          3344
          3348
          3352
          3356
          3360
          3364
          3368
          3372
          3376
          3380
          3384
          3388
          3392
          3396
          3400
          3404
          3408
          3412
          3416
          3420
          3424
          3428
          3432
          3436
          3440
          3444
          3448
          3452
          3456
          3460
          3464
          3468
          3472
          3476
          3480
          3484
          3488
          3492
          3496
          3500
          3504
          3508
          3512
          3516
          3520
          3524
          3528
          3532
          3536
          3540
          3544
          3548
          3552
          3556
          3560
          3564
          3568
          3572
          3576
          3580
          3584
          3588
          3592
          3596
          3600
        </DataArray>
        <DataArray type="UInt8" Name="types" format="ascii">
          9
          9
          9
          9
          9
          9
          9
          9
          9
          9
          9
          9
          9
          9
          9
          9
          9
          9
          9
          9
          9
          9
          9
          9
          9
          9
          9
          9
          9
          9
          9
          9
          9
          9
          9
          9
          9
          9
          9
          9
          9
          9
          9
          9
          9
          9
          9
          9
          9
          9
          9
          9
          9
          9
          9
          9
          9
          9
          9
          9
          9
          9
          9
          9
          9
          9
          9
          9
          9
          9
          9
          9
          9
          9
          9
          9
          9
          9
          9
          9
          9
          9
          9
          9
          9
          9
          9
          9
          9
          9
          9
          9
          9
          9
          9
          9
          9
          9
          9
          9
          9
          9
          9
          9
          9
          9
          9
          9
          9
          9
          9
          9
          9
          9
          9
          9
          9
          9
          9
          9
          9
          9
          9
          9
          9
          9
          9
          9
          9
          9
          9
          9
          9
          9
          9
          9
          9
          9
          9
          9
          9
          9
          9
          9
          9
          9
          9
          9
          9
          9
          9
          9
          9
          9
          9
          9
          9
          9
          9
          9
          9
          9
          9
          9
          9
          9
          9
          9
          9
          9
          9
          9
          9
          9
          9
          9
          9
          9
          9
          9
          9
          9
          9
          9
          9
          9
          9
          9
          9
          9
          9
          9
          9
          9
          9
          9
          9
          9
          9
          9
          9
          9
          9
          9
          9
          9
          9
          9
          9
          9
          9
          9
          9
          9
          9
          9
          9
          9
          9
          9
          9
          9
          9
          9
          9
          9
          9
          9
          9
          9
          9
          9
          9
          9
          9
          9
          9
          9
          9
          9
          9
          9
          9
          9
          9
          9
          9
          9
          9
          9
          9
          9
          9
          9
          9
          9
          9
          9
          9
          9
          9
          9
          9
          9
          9
          9
          9
          9
          9
          9
          9
          9
          9
          9
          9
          9
          9
          9
          9
          9
          9
          9
          9
          9
          9
          9
          9
          9
          9
          9
          9
          9
          9
          9
          9
          9
          9
          9
          9
          9
          9
          9
          9
          9
          9
          9
          9
          9
          9
          9
          9
          9
          9
          9
          9
          9
          9
          9
          9
          9
          9
          9
          9
          9
          9
          9
          9
          9
          9
          9
          9
          9
          9
          9
          9
          9
          9
          9
          9
          9
          9
          9
          9
          9
          9
          9
          9
          9
          9
          9
          9
          9
          9
          9
          9
          9
          9
          9
          9
          9
          9
          9
          9
          9
          9
          9
          9
          9
          9
          9
          9
          9
          9
          9
          9
          9
          9
          9
          9
          9
          9
          9
          9
          9
          9
          9
          9
          9
          9
          9
          9
          9
          9
          9
          9
          9
          9
          9
          9
          9
          9
          9
          9
          9
          9
          9
          9
          9
          9
          9
          9
          9
          9
          9
          9
          9
          9
          9
          9
          9
          9
          9
          9
          9
          9
          9
          9
          9
          9
          9
          9
          9
          9
          9
          9
          9
          9
          9
          9
          9
          9
          9
          9
          9
          9
          9
          9
          9
          9
          9
          9
          9
          9
          9
          9
          9
          9
          9
          9
          9
          9
          9
          9
          9
          9
          9
          9
          9
          9
          9
          9
          9
          9
          9
          9
          9
          9
          9
          9
          9
          9
          9
          9
          9
          9
          9
          9
          9
          9
          9
          9
          9
          9
          9
          9
          9
          9
          9
          9
          9
          9
          9
          9
          9
          9
          9
          9
          9
          9
          9
          9
          9
          9
          9
          9
          9
          9
          9
          9
          9
          9
          9
          9
          9
          9
          9
          9
          9
          9
          9
          9
          9
          9
          9
          9
          9
          9
          9
          9
          9
          9
          9
          9
          9
          9
          9
          9
          9
          9
          9
          9
          9
          9
          9
          9
          9
          9
          9
          9
          9
          9
          9
          9
          9
          9
          9
          9
          9
          9
          9
          9
          9
          9
          9
          9
          9
          9
          9
          9
          9
          9
          9
          9
          9
          9
          9
          9
          9
          9
          9
          9
          9
          9
          9
          9
          9
          9
          9
          9
          9
          9
          9
          9
          9
          9
          9
          9
          9
          9
          9
          9
          9
          9
          9
          9
          9
          9
          9
          9
          9
          9
          9
          9
          9
          9
          9
          9
          9
          9
          9
          9
          9
          9
          9
          9
          9
          9
          9
          9
          9
          9
          9
          9
          9
          9
          9
          9
          9
          9
          9
          9
          9
          9
          9
          9
          9
          9
          9
          9
          9
          9
          9
          9
          9
          9
          9
          9
          9
          9
          9
          9
          9
          9
          9
          9
          9
          9
          9
          9
          9
          9
          9
          9
          9
          9
          9
          9
          9
          9
          9
          9
          9
          9
          9
          9
          9
          9
          9
          9
          9
          9
          9
          9
          9
          9
          9
          9
          9
          9
          9
          9
          9
          9
          9
          9
          9
          9
          9
          9
          9
          9
          9
          9
          9
          9
          9
          9
          9
          9
          9
          9
          9
          9
          9
          9
          9
          9
          9
          9
          9
          9
          9
          9
          9
          9
          9
          9
          9
          9
          9
          9
          9
          9
          9
          9
          9
          9
          9
          9
          9
          9
          9
          9
          9
          9
          9
          9
          9
          9
          9
          9
          9
          9
          9
          9
          9
          9
          9
          9
          9
          9
          9
          9
          9
          9
          9
          9
          9
          9
          9
          9
          9
          9
          9
          9
          9
          9
          9
          9
          9
          9
          9
          9
          9
          9
          9
          9
          9
          9
          9
          9
          9
          9
          9
          9
          9
          9
          9
          9
          9
          9
          9
          9
          9
          9
          9
          9
          9
          9
          9
          9
          9
          9
          9
          9
          9
          9
          9
          9
          9
          9
          9
          9
          9
          9
          9
          9
          9
          9
          9
          9
          9
          9
          9
          9
          9
          9
          9
          9
          9
          9
          9
          9
          9
          9
          9
          9
          9
          9
          9
          9
          9
          9
          9
          9
          9
          9
          9
          9
          9
          9
          9
          9
          9
          9
          9
          9
          9
          9
          9
          9
          9
          9
          9
          9
          9
          9
          9
          9
          9
        </DataArray>
      </Cells>
    </Piece>
  </UnstructuredGrid>
</VTKFile>
